<svg xmlns="http://www.w3.org/2000/svg" viewBox="0 0 283.5 283.5"><path stroke="#FFF" stroke-miterlimit="10" d="M0 0h283.5v283.5H0z"/><g fill="#FFF"><path d="M37.6 143.9c0-10.2 6.7-16.7 16.2-16.7 10.1 0 15.3 7.1 15.3 15.4 0 10.2-6.7 16.7-16.2 16.7-10.1 0-15.3-7.1-15.3-15.4zm21.3.1c0-8.2-1.5-14.4-5.7-14.4s-5.3 6.9-5.3 13.1c0 8.2 1.5 14.4 5.7 14.4 4.1-.1 5.3-7 5.3-13.1zm14.4-9.8c0-7.1 5-9.6 10.8-9.6 2.9 0 5.2.7 7.1 2.3 2-2 5-2.8 8.3-2.8 5.1 0 7.4 1.7 7.4 4.6 0 1.3-.7 2.4-1.7 2.9h-4.6c.1-.6.2-1.4.2-2.2 0-1.6-.1-3.1-1.5-3.1-1.2 0-1.7 1-1.7 2.7v5.8h5.1v2.5h-5.1v17.3c0 2 1 2.1 3.5 2.4v1.9H86.3V157c1.6-.1 2.2-.3 2.2-1.6v-18.1h-6v18.1c0 1.3.6 1.5 2.2 1.6v1.9H71V157c1.6-.1 2.4-.3 2.4-1.6v-18.1h-3.2v-2l3.2-.8v-.3zm15.8-3.8c-.5-2-1.7-3.6-4-3.6-1.9 0-2.6 1.4-2.6 4.2v3.9h6v-.6c0-1.5.3-2.8.6-3.9zM103.9 157.1l-.3-6h2.3c.8 3.6 3.2 6.3 6.6 6.3 2 0 3.6-.9 3.6-2.8 0-2.2-1.7-2.8-4.6-3.7-5.2-1.5-8-3.7-8-8.4 0-5.3 4-8.1 9.6-8.1 3.1 0 5.9.8 7.8 2v5.3h-2.1c-.4-2.8-2.4-5.4-5.5-5.4-1.8 0-3 .9-3 2.5 0 1.8 1.3 2.4 4 3.3 5.6 1.8 8.5 3.6 8.5 8.8 0 5.4-4 8.4-10.3 8.4-3.8 0-6.6-.8-8.6-2.2zm35.8-3.8c2.5 0 4.4-.8 5.8-2.8l1.1.7c-1.5 5.7-5.2 8.2-10.4 8.2-6.3 0-11.2-4.4-11.2-11.8 0-7.6 5-13.2 12.5-13.2 4.5 0 8.4 1.7 8.4 5.8 0 1.8-1.1 2.9-2.1 3.4h-4.6c.1-1.1.2-1.9.2-2.7 0-2.7-.7-4.4-2.7-4.4-2.5 0-3.9 3.3-3.9 7.8 0 5.5 2.5 9 6.9 9zm19.5 1.3c0 2 1 2.1 3.5 2.4v1.9h-15V157c1.6-.1 2.4-.3 2.4-1.6v-15.5l-2.4-1.5V137l9.9-2.7h1.8l-.2 6.9c1.7-5.3 3.3-6.9 6.2-6.9 1.1 0 1.9.3 2.4.8v6.8h-1.2c-2.8 0-5.5.1-7.4 1.2v11.5zm31.8-10.3v1.1h-14.1c0 4.9 2.8 8 6.7 8 2.8 0 4.9-.9 6.6-3.1l.9.6c-1.2 5.2-4.8 8.5-10.6 8.5-6.6 0-11.9-4.2-11.9-12 0-8 5.7-13 12.3-13 6.7-.1 10.1 4.1 10.1 9.9zm-14.1-1.1h6.3c0-4.4-.7-6.9-2.8-6.9-2.3 0-3.3 2.7-3.5 6.9zm38.3 1.1v1.1h-14.1c0 4.9 2.8 8 6.7 8 2.8 0 4.9-.9 6.6-3.1l.9.6c-1.2 5.2-4.8 8.5-10.6 8.5-6.6 0-11.9-4.2-11.9-12 0-8 5.7-13 12.3-13 6.8-.1 10.1 4.1 10.1 9.9zm-14-1.1h6.3c0-4.4-.7-6.9-2.8-6.9-2.3 0-3.3 2.7-3.5 6.9zm33.1-.8c0-1.6-.5-2.8-2.8-2.8-1.2 0-2.3.2-3.3.6v15.2c0 1.3.6 1.5 2.2 1.6v1.9h-13.7V157c1.6-.1 2.4-.3 2.4-1.6v-15.5l-2.4-1.5V137l9.9-2.7h1.8l-.2 4.5c1.6-2.1 4.1-4.5 8.3-4.5 4.3 0 6.9 2.4 6.9 7.3v13.8c0 1.3.7 1.5 2.4 1.6v1.9h-13.7V157c1.6-.1 2.2-.3 2.2-1.6v-13z"/></g></svg>