<svg xmlns="http://www.w3.org/2000/svg" width="170.12" height="104.333" viewBox="0 0 170.12 104.333"><g><linearGradient id="a" gradientUnits="userSpaceOnUse" x1="46.683" y1="37.091" x2="110.91" y2="37.091"><stop offset="0" stop-color="#07A5DD"/><stop offset="1" stop-color="#1492CF"/></linearGradient><path fill="url(#a)" d="M46.683 13.802v38.87h5.435l-2.69 7.71 11.774-7.71h49.708V13.8H46.683z"/><g fill="#95C11F"><path d="M60.366 89.88V56.37h7.37c1.676 0 3.15.16 4.425.477 1.268.315 2.388.812 3.34 1.49.956.675 1.684 1.584 2.177 2.735.498 1.147.747 2.52.747 4.12 0 .697-.024 1.318-.074 1.862-.047.55-.164 1.17-.343 1.87-.182.704-.427 1.322-.738 1.862-.31.54-.76 1.07-1.338 1.595-.587.522-1.275.953-2.068 1.302 2.01 6.38 3.76 11.78 5.248 16.196h-7.017l-3.833-15.434h-1.12v15.434h-6.776zm6.777-19.568h1.936c.52 0 .967-.175 1.34-.52.373-.352.64-.79.808-1.323.167-.532.288-1.027.354-1.47.07-.447.1-.867.1-1.267 0-.397-.026-.806-.08-1.23-.055-.422-.156-.89-.3-1.405-.14-.514-.377-.934-.708-1.264-.326-.33-.727-.494-1.197-.494h-2.254v8.972zM81.102 77.423V56.37h6.78v20.85c0 1.19.003 2.058.015 2.598.015.54.046 1.197.093 1.976.05.773.14 1.313.26 1.63.13.306.296.645.518 1 .214.363.498.6.844.71.35.112.77.166 1.267.166.497 0 .917-.054 1.263-.167.35-.11.63-.343.85-.7.215-.353.386-.684.51-.99.126-.315.21-.852.26-1.614.052-.762.083-1.407.094-1.937s.016-1.38.016-2.562c0-.045 0-.083 0-.107V56.37h6.775v21.053c0 1.07-.027 2.037-.093 2.907-.06.868-.18 1.77-.35 2.698-.175.93-.408 1.754-.708 2.465-.3.715-.696 1.396-1.19 2.048-.497.65-1.083 1.19-1.764 1.615-.673.42-1.49.754-2.446 1.002-.956.25-2.03.374-3.22.374-1.192 0-2.265-.123-3.22-.373-.954-.248-1.77-.58-2.44-1.002-.667-.424-1.25-.964-1.748-1.614-.5-.65-.895-1.332-1.194-2.047-.296-.71-.537-1.536-.715-2.465-.178-.93-.298-1.83-.364-2.698-.06-.87-.094-1.838-.094-2.907zM104.484 89.88V56.37h6.776v13.737h4.86V56.37h6.814v33.51h-6.815V74.93h-4.86V89.88h-6.776zM126.915 89.88V56.37h7.375c1.675 0 3.15.16 4.42.477 1.27.315 2.387.812 3.34 1.49.956.675 1.683 1.584 2.18 2.735.494 1.147.743 2.52.743 4.12 0 .697-.023 1.318-.074 1.862-.047.55-.164 1.17-.342 1.87-.184.704-.424 1.322-.74 1.862-.306.54-.753 1.07-1.336 1.595-.587.522-1.27.953-2.068 1.302 2.01 6.38 3.763 11.78 5.252 16.196h-7.02l-3.834-15.434h-1.12v15.434h-6.777zm6.776-19.568h1.937c.525 0 .968-.175 1.34-.52.374-.352.646-.79.813-1.323.163-.532.284-1.027.35-1.47.07-.447.105-.867.105-1.267 0-.397-.03-.806-.085-1.23-.055-.422-.156-.89-.296-1.405-.144-.514-.38-.934-.708-1.264-.33-.33-.73-.494-1.2-.494h-2.255v8.972z"/></g><g fill="#fff"><path d="M70.312 47.646V18.672h5.86v11.876h4.887V18.672h5.894v28.974H81.06V34.722h-4.89v12.924h-5.858zM66.64 20.782c-1.26-1.41-3.816-2.11-6.58-2.11h-7.677v28.974h6.458V35.252c1.193-.01 2.235-.097 3.138-.253.91-.155 2.3-.42 3.077-.802.772-.383 1.408-.887 1.904-1.515.49-.63.877-1.426 1.155-2.392.27-.967.415-2.102.415-3.41 0-2.665-.634-4.692-1.89-6.098zm-3.866 6.96c-.06.383-.16.81-.306 1.27-.145.463-.378.845-.7 1.144-.323.3-.71.45-1.16.45h-1.67v-7.76h1.947c.403 0 .75.146 1.035.433.282.28.487.646.612 1.09.125.446.214.85.258 1.22.048.36.068.717.068 1.062 0 .34-.027.704-.084 1.09zM104.042 20.782c-1.26-1.41-3.817-2.11-6.583-2.11h-7.67v28.974h6.454V35.252c1.187-.01 2.234-.097 3.14-.253.906-.155 2.295-.42 3.072-.802.773-.383 1.41-.887 1.904-1.515.49-.63.878-1.426 1.155-2.392.274-.967.416-2.102.416-3.41 0-2.665-.633-4.692-1.888-6.098zm-3.862 6.96c-.06.383-.165.81-.31 1.27-.145.463-.378.845-.697 1.144-.326.3-.712.45-1.16.45h-1.675v-7.76h1.95c.406 0 .752.146 1.034.433.282.28.49.646.612 1.09.125.446.213.85.257 1.22.05.36.073.717.073 1.062 0 .34-.027.704-.083 1.09z"/></g><g fill="#95C11F"><path d="M33.118 62.845c.354 1.275 1.002 2.146 1.002 2.146s2.998 3.982 6.55 0c0 0 .65-.87 1.008-2.145 0 0 .688-.33.594-1.877v-.525s-.186-.27-.334.175c0 0 .556-4.226-1.4-5.527 0 0-.777-.986-3.144-1.073-2.364.087-3.14 1.074-3.14 1.074-1.957 1.303-1.4 5.528-1.4 5.528-.152-.446-.335-.175-.335-.175v.525c-.094 1.547.598 1.877.598 1.877zM43.31 69.283h-.128L39.05 84.27l-.688-12.36.828-.832-1.795-1.795-1.792 1.795.827.836-.688 12.357-4.13-14.987h-.13l-7.025 4.742v15.84h5.02v-6.344h.507v6.346h14.824V83.2h.505v6.666h5.02v-15.84z"/></g><path fill="#95C11F" d="M52.403 89.896v-5.548h5.683v5.548h-5.683z"/><linearGradient id="b" gradientUnits="userSpaceOnUse" x1="115.594" y1="46.016" x2="149.927" y2="46.349"><stop offset="0" stop-color="#F39200"/><stop offset="1" stop-color="#F9B233"/></linearGradient><path fill="url(#b)" d="M120.974 47.723c.312-.405.636-.873.972-1.404s.595-1.086.778-1.66c.183-.576.274-1.158.274-1.746 0-1.132-.305-2.027-.914-2.687s-1.468-.99-2.58-.99c-.5 0-.95.07-1.343.205s-.725.324-.993.566c-.268.242-.49.54-.665.89s-.302.73-.38 1.138c-.078.407-.117.855-.117 1.345v.838h2.52c0-.034 0-.094 0-.178 0-.123 0-.258-.002-.403-.003-.146.003-.3.018-.464.016-.162.033-.324.052-.485.02-.16.053-.312.102-.455s.107-.27.175-.382c.067-.11.156-.198.266-.262.11-.064.233-.097.37-.097.165 0 .312.047.44.138.13.092.23.212.304.36.073.147.128.3.165.46s.055.312.055.466c0 .257-.035.52-.106.785-.07.266-.175.535-.314.807-.14.272-.27.504-.39.697-.123.192-.276.425-.46.696l-3.2 4.646v2.29h7v-2.564h-4.093c.2-.27.516-.663.95-1.174.433-.512.805-.97 1.117-1.375z"/><linearGradient id="c" gradientUnits="userSpaceOnUse" x1="115.593" y1="46.055" x2="149.927" y2="46.388"><stop offset="0" stop-color="#F39200"/><stop offset="1" stop-color="#F9B233"/></linearGradient><path fill="url(#c)" d="M130.216 40.48c-.277-.39-.646-.69-1.106-.91-.46-.216-.993-.324-1.597-.324-.61 0-1.144.108-1.604.325-.46.22-.83.52-1.108.905-.278.386-.486.826-.625 1.323-.14.496-.208 1.04-.208 1.634v5.49c0 .574.07 1.11.214 1.605.144.497.357.938.64 1.323.282.385.654.688 1.114.91.46.224.985.335 1.575.335.58 0 1.098-.113 1.556-.338s.83-.53 1.113-.915c.285-.385.5-.826.646-1.322.145-.497.218-1.03.218-1.598v-5.49c0-.594-.07-1.137-.208-1.63s-.346-.936-.624-1.323zm-1.716 8.443c0 .203-.01.398-.033.586s-.065.39-.128.606c-.064.218-.167.392-.308.522-.14.13-.314.196-.52.196-.165 0-.31-.047-.434-.14-.125-.095-.22-.21-.29-.346-.067-.136-.12-.297-.16-.48-.04-.187-.065-.352-.077-.498-.01-.146-.017-.295-.017-.448v-5.49c0-.18.003-.334.01-.468s.03-.298.067-.493c.037-.193.088-.355.153-.484.066-.128.162-.24.29-.333.126-.094.28-.14.46-.14.657 0 .985.64.985 1.918v5.493z"/><linearGradient id="d" gradientUnits="userSpaceOnUse" x1="115.594" y1="45.978" x2="149.928" y2="46.312"><stop offset="0" stop-color="#F39200"/><stop offset="1" stop-color="#F9B233"/></linearGradient><path fill="url(#d)" d="M133.482 40.06c-.156.158-.297.272-.424.34-.127.07-.305.16-.533.272-.23.11-.412.21-.548.293v1.964h1.33v9.907h2.513V39.49h-1.943c-.107.222-.24.41-.395.57z"/><linearGradient id="e" gradientUnits="userSpaceOnUse" x1="115.594" y1="46.033" x2="149.927" y2="46.366"><stop offset="0" stop-color="#F39200"/><stop offset="1" stop-color="#F9B233"/></linearGradient><path fill="url(#e)" d="M144.186 46.86c-.054-.38-.152-.748-.296-1.11-.144-.36-.327-.666-.548-.918-.222-.252-.514-.454-.877-.607s-.778-.23-1.246-.23c-.386 0-.812.147-1.28.44v-2.41h3.895V39.49h-6.262v7.664h2.155c.107-.272.252-.513.435-.723.183-.21.393-.314.632-.314.15 0 .284.03.398.093.115.06.207.148.278.262.07.114.13.23.173.353.043.12.075.265.095.43.02.166.032.304.037.415s.007.24.007.39c0 .04 0 .105 0 .2-.005.138-.005.286 0 .444s0 .322-.018.492c-.018.17-.038.34-.062.504-.024.166-.064.32-.12.467-.057.146-.124.274-.202.386-.078.11-.18.2-.307.263-.126.064-.27.097-.43.097-.128 0-.24-.026-.334-.078-.096-.052-.174-.133-.235-.244s-.11-.228-.146-.352c-.038-.123-.063-.282-.078-.478s-.024-.375-.03-.54c-.004-.166-.004-.37 0-.612h-2.527c0 .52.03.988.09 1.408.062.42.17.826.33 1.22s.365.722.62.988c.256.267.59.48.998.638s.884.237 1.425.237c.478 0 .903-.067 1.28-.197.374-.13.687-.318.937-.56.25-.242.463-.516.636-.82s.307-.65.4-1.044c.09-.394.157-.78.196-1.157.04-.378.058-.786.058-1.227.002-.448-.025-.86-.078-1.237z"/></g></svg>