<svg xmlns="http://www.w3.org/2000/svg" viewBox="0 -46 293 293"><g fill-rule="evenodd" clip-rule="evenodd" stroke-width=".6"><path fill="#5fc8d6" stroke="#5fc8d6" d="M53 142L40 48l66 55z"/><path fill="#4e9eaa" stroke="#4e9eaa" d="M148 142H53l53-39z"/><path fill="#2f575c" stroke="#2f575c" d="M125 198l-72-56h95z"/><path fill="#384e51" stroke="#384e51" d="M125 198l23-56 62 10z"/><path fill="#4e9099" stroke="#4e9099" d="M148 142l49-27 13 37z"/><path fill="#84bbc2" stroke="#84bbc2" d="M148 142l-3-45 52 18z"/><path fill="#8ebec3" stroke="#8ebec3" d="M106 103l39-6 3 45z"/><path fill="#aad0d5" stroke="#aad0d5" d="M106 103l27-27 12 21z"/><path fill="#addee4" stroke="#addee4" d="M106 103L40 48l93 28z"/><path fill="#d1e0e3" stroke="#d1e0e3" d="M145 97l-12-21 34-24z"/><path fill="#d0e5e8" stroke="#d0e5e8" d="M145 97l22-45 15 8z"/><path fill="#a4d1d7" stroke="#a4d1d7" d="M145 97l37-37 15 55z"/><path fill="#a1d9e0" stroke="#a1d9e0" d="M197 115l-15-55 40 8z"/><path fill="#78d0db" stroke="#78d0db" d="M197 115l25-47 28 17z"/><path fill="#32b5c7" stroke="#32b5c7" d="M210 152l-13-37 53-30z"/><path fill="#b4e7ee" stroke="#b4e7ee" d="M250 85l-28-17 31-28z"/></g></svg>