<?xml version="1.0" encoding="UTF-8" standalone="no"?><svg xmlns="http://www.w3.org/2000/svg" xmlns:xlink="http://www.w3.org/1999/xlink" clip-rule="evenodd" stroke-miterlimit="10" viewBox="0 0 1600 900"><desc>SVG generated by Keynote</desc><defs></defs><g transform="matrix(1.00, 0.00, -0.00, -1.00, 0.0, 900.0)"><path d="M 0.0 900.0 L 1600.0 900.0 L 1600.0 0.0 L 0.0 0.0 Z M 0.0 900.0 " fill="#EAEAEA"></path><text xml:space="preserve" font-family="Helvetica,Helvetica" font-size="12.0" fill="#000000" transform="matrix(1.00, 0.00, -0.00, -1.00, 1502.6, 29.8)">7</text><text xml:space="preserve" font-family="Helvetica,Helvetica" font-size="12.0" fill="#000000" transform="matrix(1.00, 0.00, -0.00, -1.00, 1509.3, 29.8)">1</text><text xml:space="preserve" font-family="Helvetica-Light,Helvetica" font-size="60.0" fill="#000000" transform="matrix(1.00, 0.00, -0.00, -1.00, 268.7, 749.7)">F</text><text xml:space="preserve" font-family="Helvetica-Light,Helvetica" font-size="60.0" fill="#000000" transform="matrix(1.00, 0.00, -0.00, -1.00, 302.1, 749.7)">o</text><text xml:space="preserve" font-family="Helvetica-Light,Helvetica" font-size="60.0" fill="#000000" transform="matrix(1.00, 0.00, -0.00, -1.00, 335.4, 749.7)">r</text><text xml:space="preserve" font-family="Helvetica-Light,Helvetica" font-size="60.0" fill="#000000" transform="matrix(1.00, 0.00, -0.00, -1.00, 355.4, 749.7)"> </text><text xml:space="preserve" font-family="Helvetica-Light,Helvetica" font-size="60.0" fill="#000000" transform="matrix(1.00, 0.00, -0.00, -1.00, 372.1, 749.7)">s</text><text xml:space="preserve" font-family="Helvetica-Light,Helvetica" font-size="60.0" fill="#000000" transform="matrix(1.00, 0.00, -0.00, -1.00, 402.1, 749.7)">m</text><text xml:space="preserve" font-family="Helvetica-Light,Helvetica" font-size="60.0" fill="#000000" transform="matrix(1.00, 0.00, -0.00, -1.00, 452.1, 749.7)">a</text><text xml:space="preserve" font-family="Helvetica-Light,Helvetica" font-size="60.0" fill="#000000" transform="matrix(1.00, 0.00, -0.00, -1.00, 485.4, 749.7)">l</text><text xml:space="preserve" font-family="Helvetica-Light,Helvetica" font-size="60.0" fill="#000000" transform="matrix(1.00, 0.00, -0.00, -1.00, 498.7, 749.7)">l</text><text xml:space="preserve" font-family="Helvetica-Light,Helvetica" font-size="60.0" fill="#000000" transform="matrix(1.00, 0.00, -0.00, -1.00, 512.1, 749.7)"> </text><text xml:space="preserve" font-family="Helvetica-Light,Helvetica" font-size="60.0" fill="#000000" transform="matrix(1.00, 0.00, -0.00, -1.00, 528.7, 749.7)">n</text><text xml:space="preserve" font-family="Helvetica-Light,Helvetica" font-size="60.0" fill="#000000" transform="matrix(1.00, 0.00, -0.00, -1.00, 562.1, 749.7)">u</text><text xml:space="preserve" font-family="Helvetica-Light,Helvetica" font-size="60.0" fill="#000000" transform="matrix(1.00, 0.00, -0.00, -1.00, 595.5, 749.7)">m</text><text xml:space="preserve" font-family="Helvetica-Light,Helvetica" font-size="60.0" fill="#000000" transform="matrix(1.00, 0.00, -0.00, -1.00, 645.4, 749.7)">b</text><text xml:space="preserve" font-family="Helvetica-Light,Helvetica" font-size="60.0" fill="#000000" transform="matrix(1.00, 0.00, -0.00, -1.00, 682.1, 749.7)">e</text><text xml:space="preserve" font-family="Helvetica-Light,Helvetica" font-size="60.0" fill="#000000" transform="matrix(1.00, 0.00, -0.00, -1.00, 715.5, 749.7)">r</text><text xml:space="preserve" font-family="Helvetica-Light,Helvetica" font-size="60.0" fill="#000000" transform="matrix(1.00, 0.00, -0.00, -1.00, 735.4, 749.7)">s</text><text xml:space="preserve" font-family="Helvetica-Light,Helvetica" font-size="60.0" fill="#000000" transform="matrix(1.00, 0.00, -0.00, -1.00, 765.4, 749.7)"> </text><text xml:space="preserve" font-family="Helvetica-Light,Helvetica" font-size="60.0" fill="#000000" transform="matrix(1.00, 0.00, -0.00, -1.00, 782.1, 749.7)">o</text><text xml:space="preserve" font-family="Helvetica-Light,Helvetica" font-size="60.0" fill="#000000" transform="matrix(1.00, 0.00, -0.00, -1.00, 815.5, 749.7)">f</text><text xml:space="preserve" font-family="Helvetica-Light,Helvetica" font-size="60.0" fill="#000000" transform="matrix(1.00, 0.00, -0.00, -1.00, 832.2, 749.7)"> </text><text xml:space="preserve" font-family="Helvetica-Light,Helvetica" font-size="60.0" fill="#000000" transform="matrix(1.00, 0.00, -0.00, -1.00, 848.8, 749.7)">d</text><text xml:space="preserve" font-family="Helvetica-Light,Helvetica" font-size="60.0" fill="#000000" transform="matrix(1.00, 0.00, -0.00, -1.00, 885.5, 749.7)">i</text><text xml:space="preserve" font-family="Helvetica-Light,Helvetica" font-size="60.0" fill="#000000" transform="matrix(1.00, 0.00, -0.00, -1.00, 898.8, 749.7)">s</text><text xml:space="preserve" font-family="Helvetica-Light,Helvetica" font-size="60.0" fill="#000000" transform="matrix(1.00, 0.00, -0.00, -1.00, 928.8, 749.7)">c</text><text xml:space="preserve" font-family="Helvetica-Light,Helvetica" font-size="60.0" fill="#000000" transform="matrix(1.00, 0.00, -0.00, -1.00, 962.2, 749.7)">r</text><text xml:space="preserve" font-family="Helvetica-Light,Helvetica" font-size="60.0" fill="#000000" transform="matrix(1.00, 0.00, -0.00, -1.00, 981.1, 749.7)">e</text><text xml:space="preserve" font-family="Helvetica-Light,Helvetica" font-size="60.0" fill="#000000" transform="matrix(1.00, 0.00, -0.00, -1.00, 1014.4, 749.7)">t</text><text xml:space="preserve" font-family="Helvetica-Light,Helvetica" font-size="60.0" fill="#000000" transform="matrix(1.00, 0.00, -0.00, -1.00, 1031.1, 749.7)">e</text><text xml:space="preserve" font-family="Helvetica-Light,Helvetica" font-size="60.0" fill="#000000" transform="matrix(1.00, 0.00, -0.00, -1.00, 1064.5, 749.7)"> </text><text xml:space="preserve" font-family="Helvetica-Light,Helvetica" font-size="60.0" fill="#000000" transform="matrix(1.00, 0.00, -0.00, -1.00, 1081.2, 749.7)">d</text><text xml:space="preserve" font-family="Helvetica-Light,Helvetica" font-size="60.0" fill="#000000" transform="matrix(1.00, 0.00, -0.00, -1.00, 1117.8, 749.7)">a</text><text xml:space="preserve" font-family="Helvetica-Light,Helvetica" font-size="60.0" fill="#000000" transform="matrix(1.00, 0.00, -0.00, -1.00, 1151.2, 749.7)">t</text><text xml:space="preserve" font-family="Helvetica-Light,Helvetica" font-size="60.0" fill="#000000" transform="matrix(1.00, 0.00, -0.00, -1.00, 1167.9, 749.7)">a</text><text xml:space="preserve" font-family="Helvetica-Light,Helvetica" font-size="60.0" fill="#000000" transform="matrix(1.00, 0.00, -0.00, -1.00, 1201.2, 749.7)">,</text><text xml:space="preserve" font-family="Helvetica-Light,Helvetica" font-size="60.0" fill="#000000" transform="matrix(1.00, 0.00, -0.00, -1.00, 1217.9, 749.7)"> </text><text xml:space="preserve" font-family="Helvetica-Light,Helvetica" font-size="60.0" fill="#000000" transform="matrix(1.00, 0.00, -0.00, -1.00, 1234.6, 749.7)">u</text><text xml:space="preserve" font-family="Helvetica-Light,Helvetica" font-size="60.0" fill="#000000" transform="matrix(1.00, 0.00, -0.00, -1.00, 1267.9, 749.7)">s</text><text xml:space="preserve" font-family="Helvetica-Light,Helvetica" font-size="60.0" fill="#000000" transform="matrix(1.00, 0.00, -0.00, -1.00, 1297.9, 749.7)">e</text><text xml:space="preserve" font-family="Helvetica-Light,Helvetica" font-size="60.0" fill="#000000" transform="matrix(1.00, 0.00, -0.00, -1.00, 1331.3, 749.7)"> </text><text xml:space="preserve" font-family="Helvetica-Light,Helvetica" font-size="60.0" fill="#000000" transform="matrix(1.00, 0.00, -0.00, -1.00, 416.5, 677.7)">c</text><text xml:space="preserve" font-family="Helvetica-Light,Helvetica" font-size="60.0" fill="#000000" transform="matrix(1.00, 0.00, -0.00, -1.00, 449.9, 677.7)">h</text><text xml:space="preserve" font-family="Helvetica-Light,Helvetica" font-size="60.0" fill="#000000" transform="matrix(1.00, 0.00, -0.00, -1.00, 483.2, 677.7)">e</text><text xml:space="preserve" font-family="Helvetica-Light,Helvetica" font-size="60.0" fill="#000000" transform="matrix(1.00, 0.00, -0.00, -1.00, 516.6, 677.7)">c</text><text xml:space="preserve" font-family="Helvetica-Light,Helvetica" font-size="60.0" fill="#000000" transform="matrix(1.00, 0.00, -0.00, -1.00, 550.0, 677.7)">k</text><text xml:space="preserve" font-family="Helvetica-Light,Helvetica" font-size="60.0" fill="#000000" transform="matrix(1.00, 0.00, -0.00, -1.00, 580.0, 677.7)">b</text><text xml:space="preserve" font-family="Helvetica-Light,Helvetica" font-size="60.0" fill="#000000" transform="matrix(1.00, 0.00, -0.00, -1.00, 616.6, 677.7)">o</text><text xml:space="preserve" font-family="Helvetica-Light,Helvetica" font-size="60.0" fill="#000000" transform="matrix(1.00, 0.00, -0.00, -1.00, 650.0, 677.7)">x</text><text xml:space="preserve" font-family="Helvetica-Light,Helvetica" font-size="60.0" fill="#000000" transform="matrix(1.00, 0.00, -0.00, -1.00, 680.0, 677.7)">e</text><text xml:space="preserve" font-family="Helvetica-Light,Helvetica" font-size="60.0" fill="#000000" transform="matrix(1.00, 0.00, -0.00, -1.00, 713.3, 677.7)">s</text><text xml:space="preserve" font-family="Helvetica-Light,Helvetica" font-size="60.0" fill="#000000" transform="matrix(1.00, 0.00, -0.00, -1.00, 743.3, 677.7)"> </text><text xml:space="preserve" font-family="Helvetica-Light,Helvetica" font-size="60.0" fill="#000000" transform="matrix(1.00, 0.00, -0.00, -1.00, 760.0, 677.7)">o</text><text xml:space="preserve" font-family="Helvetica-Light,Helvetica" font-size="60.0" fill="#000000" transform="matrix(1.00, 0.00, -0.00, -1.00, 793.4, 677.7)">r</text><text xml:space="preserve" font-family="Helvetica-Light,Helvetica" font-size="60.0" fill="#000000" transform="matrix(1.00, 0.00, -0.00, -1.00, 813.4, 677.7)"> </text><text xml:space="preserve" font-family="Helvetica-Light,Helvetica" font-size="60.0" fill="#000000" transform="matrix(1.00, 0.00, -0.00, -1.00, 830.0, 677.7)">r</text><text xml:space="preserve" font-family="Helvetica-Light,Helvetica" font-size="60.0" fill="#000000" transform="matrix(1.00, 0.00, -0.00, -1.00, 850.0, 677.7)">a</text><text xml:space="preserve" font-family="Helvetica-Light,Helvetica" font-size="60.0" fill="#000000" transform="matrix(1.00, 0.00, -0.00, -1.00, 883.4, 677.7)">d</text><text xml:space="preserve" font-family="Helvetica-Light,Helvetica" font-size="60.0" fill="#000000" transform="matrix(1.00, 0.00, -0.00, -1.00, 920.0, 677.7)">i</text><text xml:space="preserve" font-family="Helvetica-Light,Helvetica" font-size="60.0" fill="#000000" transform="matrix(1.00, 0.00, -0.00, -1.00, 933.4, 677.7)">o</text><text xml:space="preserve" font-family="Helvetica-Light,Helvetica" font-size="60.0" fill="#000000" transform="matrix(1.00, 0.00, -0.00, -1.00, 966.7, 677.7)"> </text><text xml:space="preserve" font-family="Helvetica-Light,Helvetica" font-size="60.0" fill="#000000" transform="matrix(1.00, 0.00, -0.00, -1.00, 983.4, 677.7)">b</text><text xml:space="preserve" font-family="Helvetica-Light,Helvetica" font-size="60.0" fill="#000000" transform="matrix(1.00, 0.00, -0.00, -1.00, 1020.1, 677.7)">u</text><text xml:space="preserve" font-family="Helvetica-Light,Helvetica" font-size="60.0" fill="#000000" transform="matrix(1.00, 0.00, -0.00, -1.00, 1053.4, 677.7)">t</text><text xml:space="preserve" font-family="Helvetica-Light,Helvetica" font-size="60.0" fill="#000000" transform="matrix(1.00, 0.00, -0.00, -1.00, 1070.1, 677.7)">t</text><text xml:space="preserve" font-family="Helvetica-Light,Helvetica" font-size="60.0" fill="#000000" transform="matrix(1.00, 0.00, -0.00, -1.00, 1086.8, 677.7)">o</text><text xml:space="preserve" font-family="Helvetica-Light,Helvetica" font-size="60.0" fill="#000000" transform="matrix(1.00, 0.00, -0.00, -1.00, 1120.1, 677.7)">n</text><text xml:space="preserve" font-family="Helvetica-Light,Helvetica" font-size="60.0" fill="#000000" transform="matrix(1.00, 0.00, -0.00, -1.00, 1153.5, 677.7)">s</text><path d="M 0.0 90.0 L 1600.0 90.0 L 1600.0 0.0 L 0.0 0.0 Z M 0.0 90.0 " fill="#008ACB"></path><text xml:space="preserve" font-family="Helvetica,Helvetica" font-size="42.0" fill="#FEFFFF" transform="matrix(1.00, 0.00, -0.00, -1.00, 1419.0, 33.7)">G</text><text xml:space="preserve" font-family="Helvetica,Helvetica" font-size="42.0" fill="#FEFFFF" transform="matrix(1.00, 0.00, -0.00, -1.00, 1451.6, 33.7)">D</text><text xml:space="preserve" font-family="Helvetica,Helvetica" font-size="42.0" fill="#FEFFFF" transform="matrix(1.00, 0.00, -0.00, -1.00, 1482.0, 33.7)">S</text><path d="M 854.0 375.0 L 854.0 340.8 L 917.7 390.8 L 854.0 440.8 L 854.0 407.0 L 682.0 407.0 L 682.0 375.0 Z M 853.7 374.8 " fill="#060200"></path><path d="M 171.7 65.8 L 171.7 100.0 L 235.5 50.0 L 171.7 0.0 L 171.7 33.8 L -0.3 33.8 L -0.3 65.8 Z M 171.5 66.0 " fill="none" stroke="#000000" stroke-width="2.00" stroke-linejoin="round" transform="matrix(1.00, 0.00, 0.00, -1.00, 682.3, 440.8)"></path><g><clipPath id="clip0x6000006b4ca0"><path d="M 77.0 487.0 L 646.0 487.0 L 646.0 284.0 L 77.0 284.0 Z M 77.3 487.3 "></path></clipPath><g clip-path="url(#clip0x6000006b4ca0)"><g><clipPath id="clip0x6000014b6f20"><path d="M 646.0 487.3 L 642.7 487.0 C 640.2 486.8 639.6 486.2 639.2 483.9 C 638.8 481.5 638.4 481.2 635.3 481.1 C 631.4 481.0 627.2 477.8 627.2 475.0 C 627.2 473.1 625.7 471.9 624.9 473.2 C 624.6 473.8 624.0 477.1 624.0 480.7 L 624.0 487.0 L 621.1 487.0 C 618.3 487.0 618.0 486.9 617.7 484.1 C 617.5 481.4 617.1 481.1 614.1 480.9 C 610.6 480.6 610.3 480.2 608.3 473.9 C 607.5 471.5 606.1 472.8 604.9 477.0 C 604.0 480.4 603.7 480.7 600.8 480.7 C 599.0 480.7 597.5 480.1 597.2 479.4 C 596.8 478.3 596.1 478.4 592.9 479.9 C 588.5 482.1 583.5 481.6 581.1 478.8 C 578.9 476.2 578.2 476.5 576.5 480.7 C 574.5 485.8 571.5 487.0 562.3 487.0 L 555.0 487.0 L 555.0 474.4 L 555.0 462.0 L 563.3 461.0 C 571.2 460.7 571.3 461.2 574.1 464.0 L 576.9 466.9 L 579.4 463.5 C 582.0 460.2 582.2 460.1 586.8 460.7 C 589.4 461.0 592.7 461.0 594.3 461.0 L 597.0 461.0 L 597.0 467.5 C 597.0 470.9 597.5 473.9 598.0 474.1 C 598.5 474.4 600.0 471.7 601.2 468.1 C 603.5 462.0 603.7 461.3 606.9 461.0 L 610.2 461.0 L 612.9 468.7 C 614.4 472.8 616.1 476.3 616.5 476.4 C 617.0 476.4 617.9 473.1 618.0 468.9 L 618.0 461.0 L 621.2 461.0 C 624.2 461.0 624.4 461.4 624.4 464.4 C 624.4 468.8 625.9 469.4 627.5 465.5 C 629.2 461.6 632.0 460.0 635.8 460.7 C 637.4 461.1 640.3 461.0 642.2 461.0 L 646.0 461.0 L 646.0 474.2 L 646.0 487.3 Z M 87.1 487.0 L 87.0 474.3 L 87.0 461.0 L 89.8 461.0 C 91.5 461.0 93.0 462.0 93.9 463.3 L 95.0 465.4 L 96.0 463.3 C 96.5 461.5 97.1 461.2 100.0 461.5 C 103.2 461.7 103.3 461.9 104.3 466.8 C 105.5 473.3 107.0 473.0 107.0 466.3 L 107.0 461.0 L 109.8 461.0 C 112.5 461.3 112.6 461.8 113.0 468.0 C 113.3 471.4 113.9 474.3 114.3 474.3 C 114.8 474.3 116.3 471.2 117.7 467.4 C 120.2 460.5 120.1 458.5 117.0 458.5 C 115.8 458.5 115.3 455.6 116.4 454.5 C 118.6 452.3 126.2 455.1 124.7 457.5 C 124.4 458.0 124.6 458.7 125.3 459.1 C 125.9 459.5 127.9 464.0 129.6 469.1 C 131.4 474.2 133.0 478.9 133.2 479.6 C 133.5 480.5 132.7 480.7 130.1 480.5 C 126.9 480.2 126.5 479.9 125.6 476.6 C 124.3 471.9 123.1 471.9 121.4 476.7 C 120.2 480.2 119.7 480.6 116.8 480.9 C 114.4 481.1 113.4 481.6 113.2 483.0 C 112.6 486.1 111.1 487.1 107.4 487.1 C 104.0 487.1 103.8 487.0 102.8 483.2 C 100.2 473.0 99.3 472.6 97.3 480.9 L 95.9 487.0 L 91.5 487.0 L 87.1 487.0 Z M 150.8 487.1 C 147.3 487.1 145.5 485.8 145.5 483.2 C 145.5 482.3 144.8 481.3 144.1 481.0 C 143.3 480.7 142.7 479.5 142.7 478.4 C 142.7 477.2 143.3 475.8 144.1 475.1 C 145.1 474.3 145.0 472.2 145.0 467.6 L 145.0 461.0 L 148.2 461.0 L 151.0 461.0 L 151.0 467.8 C 151.0 472.8 151.3 474.4 152.5 474.8 C 154.8 475.7 157.0 473.0 155.7 470.7 C 154.0 467.5 154.5 463.4 156.8 461.7 C 158.2 460.7 159.9 460.4 162.1 460.8 C 163.9 461.0 167.0 461.0 169.1 461.0 L 173.0 461.0 L 173.0 467.9 C 173.0 471.6 173.2 474.8 173.6 475.0 C 174.1 475.1 175.6 472.2 177.0 468.5 L 179.5 462.0 L 183.0 462.0 C 186.5 462.0 186.5 461.8 188.5 467.6 C 189.6 470.8 190.8 473.4 191.3 473.4 C 191.8 473.4 192.5 471.9 192.8 470.2 C 194.0 463.1 198.0 459.9 204.6 460.6 C 208.0 461.0 209.4 461.7 211.1 464.0 L 213.4 466.9 L 216.5 463.5 C 219.2 460.6 219.9 460.2 222.6 460.7 C 224.2 461.0 227.3 461.9 229.3 462.0 L 233.0 462.0 L 233.0 471.0 L 233.0 480.0 L 230.0 481.0 L 227.0 481.0 L 227.0 474.9 C 227.0 468.5 225.5 465.2 222.9 466.2 C 221.7 466.6 221.0 468.1 221.0 473.7 L 221.0 481.0 L 218.2 481.0 C 215.2 481.0 214.9 480.4 214.9 478.1 C 214.9 474.0 214.0 473.9 210.7 477.7 C 208.0 480.8 207.3 481.1 203.1 481.1 C 199.4 481.1 197.9 480.7 196.0 478.9 L 194.0 476.6 L 193.0 478.6 C 192.6 480.2 191.8 480.7 189.4 480.7 C 186.7 480.7 186.3 480.3 185.1 476.8 C 184.5 474.6 183.5 472.8 183.0 472.8 C 182.6 472.8 181.6 474.6 180.9 476.8 C 179.7 480.3 179.3 480.7 176.5 480.7 C 174.7 480.7 173.2 480.1 172.9 479.4 C 172.5 478.3 171.8 478.4 168.9 479.9 C 165.0 481.9 160.2 481.7 157.5 479.3 C 156.1 478.0 155.8 478.1 154.3 479.7 C 152.9 481.2 152.8 481.8 153.8 483.0 C 155.6 485.2 154.2 487.1 150.8 487.1 Z M 252.3 487.1 C 250.0 487.1 249.9 486.9 250.4 483.5 C 251.0 479.2 250.4 478.3 248.2 480.3 C 247.0 481.4 246.1 481.5 244.9 480.9 C 244.1 480.4 241.7 479.7 239.8 480.0 L 236.0 481.0 L 236.0 471.1 L 236.0 461.0 L 239.5 461.0 L 243.0 461.0 L 243.0 467.2 C 243.0 472.3 243.0 473.4 244.6 474.2 C 245.6 474.8 246.4 474.9 246.4 474.6 C 246.4 474.2 247.0 474.4 247.7 475.0 C 249.7 476.6 250.0 475.3 250.0 468.1 L 250.0 461.0 L 252.7 461.0 L 255.0 461.0 L 255.0 471.7 C 254.9 477.4 254.9 483.2 254.8 484.6 C 254.8 486.7 254.4 487.1 252.3 487.1 Z M 318.7 487.0 L 319.0 478.4 C 319.0 473.6 318.3 469.5 317.9 469.2 C 316.3 468.2 314.9 471.3 315.5 474.4 C 316.3 478.8 313.5 481.1 307.4 481.1 C 303.7 481.1 302.4 480.7 301.0 479.0 C 299.1 476.6 298.6 471.9 300.2 470.9 C 300.9 470.5 300.7 469.6 299.7 468.1 C 298.0 465.5 299.1 462.6 302.3 461.3 C 303.4 460.8 306.1 460.4 308.3 460.4 C 311.7 460.4 312.8 460.8 314.9 463.1 C 317.6 465.9 318.7 465.9 318.7 463.0 C 318.7 461.6 319.4 461.0 321.9 461.0 L 325.0 461.0 L 325.0 467.7 C 325.0 473.1 325.5 474.3 327.0 475.1 C 329.6 476.5 331.0 473.9 331.0 466.9 L 331.0 461.0 L 333.5 461.0 C 335.2 461.0 336.5 461.8 336.8 462.7 C 337.0 463.4 337.4 464.7 337.7 465.5 C 338.0 466.6 338.8 466.2 341.3 463.6 C 343.9 460.8 345.0 460.3 348.5 460.3 C 353.5 460.3 356.1 462.1 358.6 467.0 C 360.8 471.2 361.4 471.0 362.7 465.6 C 363.6 462.0 364.0 461.7 367.0 461.5 C 370.0 461.2 370.4 461.5 371.4 464.2 C 372.5 467.3 373.8 467.0 374.4 463.6 C 374.7 462.2 375.6 461.2 378.0 461.0 L 381.3 461.0 L 383.8 469.8 C 385.2 474.6 386.3 479.0 386.3 479.6 C 386.3 480.2 385.0 480.7 383.1 480.7 C 380.7 480.7 379.9 480.3 379.7 478.8 C 379.3 476.2 377.7 476.1 376.6 478.6 C 375.3 481.5 370.4 481.5 369.2 478.6 C 368.6 477.5 367.8 476.5 367.3 476.5 C 366.8 476.5 366.3 477.5 366.1 478.6 C 365.9 480.2 365.2 480.7 363.3 480.7 C 361.9 480.6 360.1 480.0 359.2 479.4 C 357.7 478.3 357.0 478.4 354.1 480.0 C 348.6 483.0 343.6 481.5 339.6 475.6 C 338.4 473.9 338.3 474.0 336.9 476.7 C 335.3 479.8 331.5 481.8 327.9 481.4 C 325.9 481.2 325.6 481.6 325.3 484.1 C 325.1 486.9 324.8 487.0 321.9 487.0 L 318.7 487.0 Z M 404.2 487.1 C 400.2 487.1 398.4 485.9 398.4 483.2 C 398.4 482.3 397.7 481.3 397.0 481.0 C 395.2 480.3 395.2 478.0 397.0 475.6 C 397.9 474.5 398.0 471.6 398.0 467.5 L 398.0 461.0 L 401.4 461.0 L 404.0 462.0 L 405.0 468.0 C 405.5 475.3 406.9 476.3 407.6 469.7 C 408.1 464.9 409.6 462.5 412.7 461.2 C 415.9 459.9 420.0 460.3 423.2 462.2 L 426.2 464.1 L 428.9 462.1 C 430.9 460.6 432.3 460.3 434.6 460.7 C 436.3 461.0 439.4 461.0 441.4 461.0 L 445.0 461.0 L 445.0 468.6 C 445.0 477.9 446.8 478.5 447.4 469.5 C 447.8 464.4 448.3 462.7 449.7 461.7 C 452.4 459.7 456.5 460.0 457.6 462.2 C 458.6 464.0 458.6 464.0 461.2 462.2 C 463.4 460.5 464.6 460.5 470.4 461.0 L 477.0 462.0 L 477.0 471.1 L 477.0 481.0 L 473.9 481.0 L 471.0 481.0 L 471.0 474.3 C 471.0 467.7 469.3 465.1 466.4 466.2 C 465.4 466.6 465.0 468.4 465.0 473.8 L 465.0 481.0 L 461.0 480.0 C 456.3 479.5 453.9 480.9 453.9 483.5 C 453.9 485.9 448.6 486.1 447.7 483.7 C 447.4 482.8 446.5 481.1 445.8 479.9 C 444.5 477.9 444.3 477.9 442.7 479.4 C 441.5 480.5 439.3 481.0 436.2 481.1 C 432.0 481.1 431.2 480.8 429.0 478.1 L 426.4 475.1 L 424.9 477.4 C 424.1 478.6 421.7 480.2 419.7 480.8 C 416.5 481.7 415.6 481.6 412.3 479.9 C 408.8 478.1 408.5 478.1 407.8 479.5 C 407.3 480.4 407.1 482.5 407.4 484.1 C 407.8 487.1 407.8 487.1 404.2 487.1 Z M 495.1 487.1 C 493.8 487.0 493.8 486.4 493.8 484.1 C 493.8 480.4 493.0 479.4 491.3 480.8 C 490.6 481.4 489.6 481.4 488.6 480.9 C 487.7 480.4 485.4 479.7 483.4 480.0 L 480.0 481.0 L 480.0 471.1 L 480.0 461.0 L 483.1 461.0 L 486.0 461.0 L 486.0 467.2 C 486.0 472.3 486.7 473.4 488.2 474.2 C 489.2 474.8 490.1 474.9 490.1 474.6 C 490.1 474.2 490.6 474.4 491.3 475.0 C 493.3 476.6 494.0 475.3 494.0 468.0 L 494.0 461.0 L 496.8 461.0 L 500.0 462.0 L 500.0 474.2 L 500.0 487.0 L 496.8 487.0 C 496.1 487.1 495.5 487.1 495.1 487.1 Z M 263.1 485.3 C 261.0 485.3 260.3 484.9 260.3 483.5 C 260.3 482.5 259.5 481.2 258.4 480.7 L 256.5 479.6 L 258.4 476.6 C 259.8 474.4 260.3 471.9 260.3 467.9 C 260.3 463.5 260.7 462.1 262.0 461.3 C 264.5 459.9 267.3 460.2 269.1 462.2 C 270.8 464.0 270.8 464.0 273.1 462.2 C 276.9 459.2 284.0 460.1 286.8 463.9 C 288.5 466.1 288.3 474.9 286.6 477.5 C 285.8 478.7 283.5 480.2 281.6 480.8 C 278.5 481.7 277.6 481.6 274.5 480.0 L 270.9 478.1 L 268.4 480.1 C 267.0 481.2 265.9 482.8 265.9 483.7 C 265.9 484.9 265.1 485.3 263.1 485.3 Z M 514.5 481.4 C 513.6 481.4 512.8 481.3 512.0 480.9 C 510.9 480.4 508.4 479.8 506.5 480.0 L 503.0 481.0 L 503.0 471.1 L 503.0 461.0 L 506.2 461.0 L 509.0 461.0 L 510.0 468.0 C 510.3 474.4 510.1 474.7 512.3 474.7 C 514.5 474.7 514.7 474.4 515.0 468.0 L 515.0 461.0 L 517.9 461.0 C 520.1 461.0 521.3 461.8 522.0 463.7 L 523.0 466.2 L 524.8 464.0 C 527.1 461.9 527.1 460.3 524.7 460.3 C 522.8 460.3 523.1 457.9 525.3 455.6 C 526.5 454.5 528.0 453.9 529.1 454.2 C 530.0 454.4 531.1 454.2 531.3 453.8 C 531.6 453.3 532.4 453.2 533.0 453.6 C 533.6 454.0 534.8 454.2 535.8 454.0 C 536.7 453.9 538.5 454.7 539.7 455.8 C 541.8 457.8 542.0 458.5 542.0 469.3 L 542.0 481.0 L 537.5 481.0 C 535.1 481.0 531.9 480.8 530.4 480.9 C 528.3 480.9 527.0 480.1 524.7 477.3 L 521.6 473.7 L 520.6 476.7 C 519.7 479.3 517.1 481.2 514.5 481.4 Z M 75.0 462.7 C 74.8 462.8 74.7 457.8 74.5 450.7 C 74.6 449.6 74.7 448.6 74.8 447.9 C 74.9 447.0 75.1 446.7 75.3 446.7 C 76.2 446.9 76.8 429.9 77.0 364.9 L 77.0 283.9 C 77.9 287.1 77.8 301.4 77.8 367.9 C 77.8 450.5 77.5 461.1 75.0 462.7 Z M 258.0 447.6 C 256.3 447.6 254.4 446.8 253.3 445.1 C 251.6 442.6 250.1 442.8 250.1 445.6 C 250.1 447.0 249.5 447.4 247.2 447.4 C 244.3 447.4 240.9 445.3 240.8 443.3 C 240.8 442.8 239.8 441.2 238.7 439.7 C 236.8 437.4 236.4 437.3 235.4 438.6 C 234.7 439.3 233.9 439.8 233.5 439.6 C 233.1 439.3 232.2 439.7 231.6 440.5 C 229.0 443.7 221.1 440.8 219.0 435.8 C 217.6 432.3 215.9 432.3 215.9 435.8 C 215.9 438.8 212.7 441.2 208.7 441.3 C 205.6 441.5 205.2 441.8 204.7 444.2 C 204.3 446.5 203.8 446.8 201.3 447.0 L 198.0 448.0 L 198.0 434.7 C 198.0 427.6 198.5 421.6 198.9 421.2 C 199.9 420.2 202.6 420.5 203.6 421.8 C 204.2 422.4 204.8 425.7 204.9 429.0 C 205.2 434.2 205.4 434.9 207.1 434.9 C 208.7 434.9 209.0 434.2 209.4 428.6 C 209.7 424.1 210.3 421.9 211.3 421.2 C 213.9 419.6 215.9 421.1 215.9 424.7 C 215.9 429.1 217.3 429.6 219.1 425.8 C 220.8 422.2 223.8 420.6 229.0 420.6 C 234.2 420.6 237.9 424.5 238.3 430.6 C 238.7 437.3 240.3 435.7 240.9 428.0 C 241.3 421.9 241.6 421.0 243.3 420.8 C 246.2 420.4 247.2 422.4 247.5 429.0 C 247.8 434.2 248.0 434.9 249.7 434.9 C 251.3 434.9 251.6 434.2 252.0 428.6 C 252.5 421.9 253.9 419.7 257.0 420.9 C 258.2 421.3 258.5 422.8 258.5 427.9 C 258.5 433.5 258.7 434.5 260.3 435.4 C 262.3 436.4 262.8 439.5 261.3 440.5 C 260.7 440.8 260.7 441.6 261.4 442.7 C 263.2 445.6 260.8 447.6 258.0 447.6 Z M 195.0 447.5 L 191.6 447.0 C 188.6 446.7 188.5 446.9 188.2 441.9 C 187.9 436.0 186.9 434.3 185.3 437.2 C 183.9 439.7 178.3 442.2 175.5 441.4 C 174.3 441.1 171.8 439.6 170.0 438.1 L 166.8 435.2 L 165.7 437.6 C 163.3 442.9 153.8 442.8 150.3 437.5 L 148.9 435.3 L 146.4 438.1 C 141.6 443.2 132.8 442.4 130.6 436.6 C 129.6 434.0 129.1 434.2 127.5 437.4 C 126.9 438.6 124.8 440.1 122.7 440.9 C 119.3 442.0 118.6 442.0 115.3 440.4 C 111.5 438.5 110.1 435.5 112.0 433.2 C 112.8 432.3 112.6 431.6 111.3 430.4 C 110.4 429.6 109.4 429.2 109.0 429.5 C 108.7 429.9 108.0 434.0 108.0 438.8 L 108.0 447.0 L 105.2 447.0 C 102.1 447.0 102.3 447.3 102.0 443.0 L 101.0 439.0 L 97.7 439.0 L 94.0 439.0 L 94.0 443.0 C 93.7 447.3 93.4 447.0 90.3 447.0 L 87.0 447.0 L 87.0 434.6 C 87.0 427.6 87.4 421.5 87.8 421.2 C 88.1 420.8 89.5 420.6 90.8 420.8 C 92.9 421.0 93.6 421.5 94.0 426.1 L 94.0 431.0 L 97.7 431.0 L 101.0 431.0 L 102.0 426.1 C 102.4 421.5 102.6 421.0 104.9 420.8 C 106.6 420.6 107.7 421.1 108.4 422.4 L 109.4 424.4 L 111.8 422.5 C 114.5 420.4 119.5 420.0 121.2 421.7 C 122.0 422.6 122.5 422.6 123.4 421.7 C 125.1 420.0 127.7 420.4 128.8 422.5 L 129.8 424.4 L 132.2 422.5 C 135.7 419.7 142.7 419.9 146.1 422.8 L 148.7 425.0 L 151.3 422.8 C 155.0 419.7 161.9 419.7 165.5 422.8 L 168.1 425.0 L 170.7 422.8 C 174.8 419.4 180.9 419.7 184.4 423.4 L 187.0 426.2 L 188.2 423.6 C 189.1 421.8 190.2 421.0 191.8 421.0 L 194.0 421.0 L 194.0 434.3 L 195.0 447.5 Z M 276.5 447.4 C 273.4 447.4 271.7 445.0 273.2 442.6 C 274.0 441.2 274.1 440.4 273.4 439.7 C 272.0 438.3 272.1 423.1 273.5 421.7 C 274.8 420.4 277.6 420.2 278.3 421.4 C 279.0 422.5 279.1 426.5 278.9 437.9 C 278.6 447.1 278.6 447.4 276.5 447.4 Z M 291.1 441.5 C 288.1 441.9 285.2 440.6 283.1 437.9 C 281.5 435.7 281.4 435.0 282.3 432.4 C 283.3 430.0 283.2 429.2 282.1 428.1 C 281.0 427.0 281.0 426.4 282.1 424.2 C 282.9 422.8 284.0 421.5 284.6 421.2 C 285.3 421.0 288.0 420.7 290.7 420.7 C 294.4 420.6 296.0 421.0 297.4 422.4 C 299.4 424.5 299.8 428.0 298.2 430.9 C 297.6 432.1 297.6 433.1 298.1 433.8 C 299.6 435.7 297.7 439.0 294.2 440.6 C 293.2 441.1 292.2 441.4 291.1 441.5 Z M 326.5 390.1 C 89.2 390.1 88.0 390.1 86.2 388.3 C 84.5 386.5 84.3 385.2 84.3 370.8 C 84.3 361.1 84.7 354.9 85.3 354.5 C 85.8 354.2 86.0 353.6 85.7 353.1 C 85.4 352.7 85.9 351.9 86.8 351.4 C 88.0 350.7 164.7 350.4 326.3 350.4 C 563.0 350.4 564.2 350.4 566.0 352.2 C 567.7 353.9 567.9 355.3 567.9 370.6 C 567.9 384.5 567.6 387.4 566.4 388.7 C 565.1 390.0 542.0 390.1 326.5 390.1 Z M 326.5 390.1 "></path></clipPath><g clip-path="url(#clip0x6000014b6f20)"><image xlink:href="DAFAE974AF74BB19C7D5ECCDF82B9983.png" width="1081.00" height="416.00" transform="matrix(0.54, 0.00, -0.00, -0.54, 74.1, 507.5)"></image></g></g></g></g><image xlink:href="D597C36C7BA5E63BBF86632B1C376BAA.png" width="898.00" height="262.00" transform="matrix(0.55, 0.00, -0.00, -0.55, 77.8, 351.9)"></image><g><clipPath id="clip0x600000eb8f60"><path d="M 976.0 514.0 L 1562.0 514.0 L 1562.0 218.0 L 976.0 218.0 Z M 975.9 514.4 "></path></clipPath><g clip-path="url(#clip0x600000eb8f60)"><g><clipPath id="clip0x608000eadda0"><path d="M 1332.8 220.0 C 1332.8 220.9 1333.6 221.9 1334.7 222.2 C 1337.8 223.0 1337.7 225.3 1334.3 234.1 C 1332.5 238.7 1331.0 242.9 1331.0 243.3 C 1331.0 243.7 1331.9 243.8 1332.9 243.7 C 1334.3 243.5 1335.4 242.1 1336.5 238.9 C 1338.9 232.8 1339.8 232.0 1341.1 235.3 C 1343.9 242.4 1344.8 243.8 1346.1 243.8 C 1346.8 243.8 1347.4 243.3 1347.4 242.6 C 1347.4 240.5 1340.0 221.6 1338.5 219.9 C 1336.6 217.6 1332.8 217.7 1332.8 220.0 M 996.3 221.7 C 995.9 222.1 995.3 222.4 994.8 222.4 C 993.5 222.4 987.5 228.4 988.0 229.2 C 988.2 229.6 988.0 230.3 987.5 230.6 C 987.0 230.9 986.6 233.1 986.6 235.4 C 986.6 240.6 989.0 244.9 993.2 247.5 C 996.4 249.4 1002.5 250.0 1003.5 248.4 C 1003.8 247.9 1004.5 247.7 1005.0 248.0 C 1006.3 248.8 1012.5 242.2 1011.9 240.7 C 1011.6 239.9 1011.7 239.1 1012.2 238.8 C 1013.5 238.0 1013.3 233.4 1011.7 229.4 C 1010.6 226.7 1009.1 225.2 1005.8 223.4 C 1001.5 221.0 997.6 220.3 996.3 221.7 M 1024.2 225.8 C 1023.5 226.5 1023.1 230.8 1023.1 238.5 C 1023.1 250.4 1023.9 252.9 1026.4 249.7 C 1028.1 247.3 1028.3 227.2 1026.5 225.7 C 1025.6 225.0 1025.0 225.0 1024.2 225.8 M 1044.7 225.7 C 1042.9 231.1 1039.6 242.3 1039.6 243.0 C 1039.6 243.5 1040.4 243.8 1041.3 243.8 C 1042.6 243.8 1043.3 242.7 1044.3 239.2 C 1045.0 236.7 1046.0 234.6 1046.5 234.6 C 1047.0 234.6 1048.0 236.6 1048.7 239.2 C 1049.8 242.9 1050.5 243.8 1052.1 243.8 C 1053.7 243.8 1054.2 243.1 1054.7 240.2 C 1055.0 238.3 1055.8 236.2 1056.5 235.6 C 1057.9 234.5 1058.8 236.1 1060.2 241.6 C 1060.9 244.4 1063.8 244.6 1064.6 241.9 C 1065.1 240.0 1065.1 240.0 1067.9 242.4 C 1072.5 246.2 1078.6 245.2 1081.2 240.1 C 1082.8 237.0 1084.0 237.4 1084.5 241.1 C 1084.7 242.4 1085.5 243.5 1086.4 243.7 C 1087.8 243.9 1088.0 243.2 1088.0 237.1 C 1088.0 231.1 1088.2 230.1 1090.0 228.8 C 1091.7 227.6 1092.3 227.6 1093.9 228.7 C 1095.4 229.7 1095.9 231.2 1096.2 236.6 C 1096.6 242.1 1097.0 243.4 1098.3 243.7 C 1099.7 244.0 1099.9 243.1 1099.9 234.8 C 1099.9 226.4 1099.1 223.2 1097.6 225.6 C 1097.2 226.2 1096.5 226.2 1095.3 225.6 C 1091.4 223.5 1085.3 225.5 1085.3 229.0 C 1085.3 229.5 1084.7 230.4 1084.0 231.0 C 1082.9 231.9 1082.4 231.6 1081.2 229.3 C 1078.8 224.6 1074.0 223.3 1068.8 226.0 C 1066.8 227.1 1065.8 228.6 1064.9 231.7 C 1064.2 234.1 1063.2 236.0 1062.8 235.8 C 1062.3 235.7 1061.4 233.8 1060.6 231.6 C 1057.8 223.6 1055.5 223.1 1053.7 230.4 C 1053.2 232.5 1052.4 234.2 1052.0 234.1 C 1051.5 234.0 1050.5 231.9 1049.7 229.5 C 1048.3 225.2 1045.5 223.1 1044.7 225.7 M 1104.6 225.9 C 1103.8 226.8 1103.6 230.9 1103.7 238.9 C 1103.9 248.7 1104.2 250.7 1105.4 250.7 C 1106.5 250.7 1106.8 248.6 1107.0 238.4 C 1107.2 226.3 1106.7 223.3 1104.6 225.9 M 1114.8 225.7 C 1112.0 227.1 1110.5 231.2 1111.1 236.2 C 1111.7 241.9 1114.2 244.2 1119.8 244.3 C 1124.0 244.4 1124.1 244.5 1124.5 247.5 C 1124.8 249.6 1125.6 250.8 1126.6 251.0 C 1128.1 251.3 1128.2 250.2 1128.2 238.5 C 1128.2 226.9 1127.5 223.0 1125.9 225.6 C 1125.5 226.2 1124.8 226.2 1123.6 225.6 C 1121.5 224.4 1117.4 224.5 1114.8 225.7 M 1142.5 225.3 C 1142.2 225.6 1141.9 229.9 1141.9 234.9 C 1141.9 243.1 1142.6 245.5 1144.2 242.9 C 1144.6 242.2 1145.2 242.3 1146.1 243.0 C 1146.8 243.6 1147.4 243.7 1147.4 243.3 C 1147.4 242.9 1147.9 243.1 1148.5 243.7 C 1150.0 245.2 1151.0 245.0 1151.0 243.2 C 1151.0 242.3 1149.8 240.9 1148.3 240.0 C 1145.7 238.5 1145.6 238.1 1145.6 232.6 C 1145.6 227.1 1144.1 223.6 1142.5 225.3 M 1154.0 226.1 C 1151.4 227.9 1151.3 232.0 1153.8 234.3 C 1155.6 235.9 1155.7 236.1 1154.1 237.2 C 1152.6 238.3 1152.6 238.6 1153.8 240.8 C 1155.3 243.5 1159.4 245.3 1161.8 244.2 C 1162.7 243.9 1163.9 243.6 1164.4 243.7 C 1166.5 244.1 1168.4 239.9 1168.4 234.9 C 1168.4 232.2 1168.8 229.3 1169.3 228.3 C 1170.5 226.0 1168.0 223.9 1165.7 225.3 C 1164.7 225.9 1163.6 226.0 1162.8 225.5 C 1160.8 224.2 1156.2 224.5 1154.0 226.1 M 1173.0 226.4 C 1172.5 227.4 1172.0 230.7 1172.0 233.7 C 1172.0 236.8 1171.6 240.0 1171.0 240.9 C 1170.3 242.2 1170.4 243.2 1171.8 245.6 C 1174.0 249.6 1175.7 250.2 1175.7 247.1 C 1175.7 245.5 1176.3 244.5 1177.8 243.9 C 1180.6 242.8 1181.2 243.4 1181.2 247.6 C 1181.2 250.5 1181.5 251.2 1183.0 251.2 C 1184.3 251.2 1184.8 250.4 1185.0 247.7 C 1185.3 244.4 1185.4 244.3 1188.5 244.6 C 1190.8 244.8 1192.5 244.3 1194.3 242.9 C 1196.7 241.0 1196.8 240.7 1196.5 233.0 C 1196.3 226.7 1196.0 225.1 1194.9 225.1 C 1193.8 225.1 1193.5 226.6 1193.2 231.9 C 1193.0 239.0 1192.1 241.1 1189.4 241.1 C 1186.3 241.1 1184.8 238.1 1184.8 231.7 C 1184.8 225.5 1183.9 223.7 1181.7 225.5 C 1180.8 226.2 1180.2 226.3 1179.8 225.6 C 1178.8 223.9 1174.0 224.5 1173.0 226.4 M 1202.1 227.3 C 1196.9 232.5 1199.4 243.1 1206.1 244.3 C 1210.5 245.2 1213.9 243.5 1215.5 239.6 C 1217.1 236.0 1218.3 236.4 1218.8 240.6 C 1219.0 242.8 1219.6 243.4 1221.4 243.6 C 1222.6 243.7 1224.7 243.9 1225.9 244.1 C 1227.5 244.2 1228.3 243.8 1228.5 242.7 C 1228.7 241.8 1228.3 241.1 1227.5 241.1 C 1224.8 241.1 1223.2 237.9 1223.2 232.2 C 1223.2 226.4 1221.8 223.7 1219.7 225.8 C 1219.1 226.4 1218.6 227.5 1218.6 228.3 C 1218.6 231.1 1217.5 231.0 1214.5 227.8 C 1210.6 223.6 1206.0 223.4 1202.1 227.3 M 1240.3 225.2 C 1239.9 225.6 1240.0 229.9 1240.0 234.9 L 1240.0 244.0 L 1242.2 244.0 C 1243.5 244.0 1246.5 244.0 1248.7 244.1 C 1254.2 244.3 1255.2 242.6 1255.2 233.2 C 1255.2 229.1 1254.8 225.5 1254.4 225.2 C 1252.7 224.1 1251.6 227.2 1251.3 233.8 C 1251.1 240.4 1251.0 240.7 1248.7 240.9 C 1245.0 241.4 1243.4 238.7 1243.1 231.6 C 1242.9 225.8 1241.9 223.6 1240.3 225.2 M 1260.6 227.3 C 1258.3 229.6 1257.9 230.7 1257.9 234.6 C 1257.9 241.2 1260.7 244.3 1266.6 244.3 C 1272.5 244.3 1275.3 241.2 1275.3 234.6 C 1275.3 228.6 1271.8 224.7 1266.6 224.7 C 1264.1 224.7 1262.6 225.3 1260.6 227.3 M 1279.0 226.4 C 1278.4 227.4 1278.0 230.7 1278.0 233.7 C 1278.0 236.8 1277.6 240.0 1277.0 240.9 C 1276.2 242.2 1276.4 243.2 1277.8 245.7 C 1279.7 249.2 1281.1 249.5 1281.5 246.5 C 1281.7 245.4 1282.6 244.3 1283.6 244.1 C 1285.9 243.5 1285.8 241.5 1283.5 240.8 C 1281.9 240.4 1281.7 239.6 1281.7 234.7 C 1281.7 229.8 1281.9 229.0 1283.5 228.6 C 1284.5 228.3 1285.3 227.3 1285.3 226.4 C 1285.3 223.9 1280.3 224.0 1279.0 226.4 M 1298.4 226.0 C 1295.3 228.2 1295.1 230.9 1297.9 232.0 L 1300.4 233.0 L 1298.3 234.6 C 1295.1 237.0 1295.8 242.0 1299.4 243.7 C 1303.1 245.5 1308.2 244.2 1309.7 241.1 C 1310.7 239.1 1310.6 238.6 1309.0 237.4 C 1307.2 236.0 1307.2 236.0 1309.5 233.8 L 1311.8 231.6 L 1314.2 233.8 C 1316.2 235.8 1316.3 236.2 1315.1 237.1 C 1311.3 239.8 1315.4 244.3 1321.6 244.3 C 1327.2 244.3 1329.2 241.8 1329.2 235.0 C 1329.2 232.3 1329.6 229.3 1330.1 228.3 C 1331.3 226.0 1328.8 223.9 1326.5 225.3 C 1325.5 225.9 1324.4 226.0 1323.6 225.5 C 1321.4 224.1 1316.7 224.6 1314.2 226.5 L 1311.8 228.4 L 1309.4 226.5 C 1306.6 224.3 1301.2 224.0 1298.4 226.0 M 1440.6 261.6 C 1440.6 262.3 1441.7 263.5 1442.9 264.3 C 1444.8 265.5 1445.2 266.5 1444.9 268.8 C 1444.8 270.4 1444.0 272.8 1443.1 274.0 C 1442.3 275.3 1441.4 277.4 1441.1 278.8 C 1440.3 281.8 1438.4 283.5 1436.5 282.8 C 1435.5 282.4 1435.1 280.9 1435.1 276.8 C 1435.1 272.3 1435.5 271.2 1437.0 270.4 C 1439.7 268.9 1439.3 266.7 1436.2 266.7 C 1432.3 266.7 1431.5 268.2 1431.5 275.5 C 1431.5 280.1 1431.1 282.3 1430.2 283.1 C 1427.7 285.1 1426.9 283.2 1426.9 275.5 C 1426.9 267.5 1426.5 266.1 1424.5 267.7 C 1423.7 268.4 1423.3 271.0 1423.3 275.8 C 1423.3 279.7 1423.0 283.1 1422.7 283.4 C 1421.6 284.5 1416.9 281.3 1416.4 279.3 C 1416.2 278.1 1415.9 275.0 1415.7 272.2 C 1415.6 268.4 1415.2 267.2 1414.1 267.2 C 1413.0 267.2 1413.2 268.9 1413.0 276.4 L 1412.0 286.0 L 1416.6 286.0 C 1419.0 286.3 1421.4 286.4 1421.9 286.1 C 1423.6 285.0 1429.6 285.1 1430.4 286.2 C 1430.9 286.8 1431.4 288.1 1431.6 289.1 C 1432.1 291.7 1434.5 291.4 1435.1 288.6 C 1435.6 286.8 1436.3 286.3 1439.0 286.1 C 1442.1 285.8 1442.4 285.5 1443.9 281.2 C 1444.9 278.7 1446.1 276.2 1446.7 275.7 C 1447.8 274.8 1448.6 276.1 1451.6 283.8 C 1452.4 285.8 1454.3 286.5 1455.4 285.4 C 1456.1 284.7 1448.1 263.8 1446.3 261.9 C 1444.6 260.0 1440.6 259.8 1440.6 261.6 M 995.6 263.8 C 993.1 264.8 987.4 270.4 988.0 271.3 C 988.2 271.7 988.0 272.3 987.5 272.6 C 986.3 273.4 986.4 281.0 987.7 283.4 C 990.1 288.0 995.1 291.4 999.4 291.4 C 1013.3 291.4 1018.2 272.8 1006.2 265.6 C 1002.2 263.1 998.7 262.5 995.6 263.8 M 1028.8 267.9 C 1028.2 268.6 1028.1 273.5 1028.0 279.1 L 1027.0 289.0 L 1023.8 289.0 C 1021.1 289.2 1020.4 290.0 1020.4 291.5 C 1020.4 293.2 1020.9 293.3 1032.5 293.0 L 1045.0 293.0 L 1045.0 289.6 C 1045.4 286.5 1045.7 286.4 1048.9 286.7 C 1051.6 286.9 1052.8 286.4 1054.7 284.6 C 1056.9 282.4 1057.0 281.8 1056.8 274.7 C 1056.5 268.7 1056.2 267.2 1055.1 267.2 C 1054.0 267.2 1053.7 268.6 1053.5 274.0 C 1053.2 281.1 1052.3 283.2 1049.7 283.2 C 1046.6 283.2 1045.2 280.2 1044.9 273.5 C 1044.7 268.6 1044.3 267.2 1043.2 267.2 C 1042.1 267.2 1041.4 269.2 1041.0 278.6 L 1041.0 290.0 L 1037.3 290.0 C 1035.3 289.8 1033.4 289.1 1033.0 288.8 C 1032.6 288.4 1032.2 283.5 1032.1 277.7 C 1031.8 267.4 1031.1 265.1 1028.8 267.9 M 1061.2 268.4 C 1059.0 270.8 1059.2 275.5 1061.6 276.8 C 1063.4 277.8 1063.4 277.9 1062.0 279.5 C 1058.6 283.2 1063.8 287.6 1070.1 286.4 C 1074.2 285.7 1074.6 284.9 1075.3 277.2 C 1075.6 273.7 1076.2 269.9 1076.6 268.8 C 1077.1 267.1 1076.9 266.7 1075.4 266.7 C 1074.3 266.7 1073.2 267.1 1072.9 267.6 C 1072.6 268.2 1071.8 268.2 1070.7 267.6 C 1067.9 266.1 1062.9 266.5 1061.2 268.4 M 1080.9 267.3 C 1080.1 267.6 1079.8 270.1 1079.8 275.0 C 1079.8 280.6 1079.5 282.4 1078.4 282.8 C 1076.7 283.5 1076.6 285.5 1078.3 286.2 C 1079.1 286.5 1079.8 287.6 1079.9 288.8 C 1080.3 291.4 1082.8 291.6 1083.3 289.1 C 1083.5 288.1 1084.2 286.6 1084.9 285.8 C 1086.1 284.5 1086.0 284.2 1084.8 283.2 C 1083.9 282.4 1083.4 280.4 1083.4 276.8 C 1083.4 272.4 1083.8 271.3 1085.4 270.2 C 1088.8 267.9 1085.2 265.6 1080.9 267.3 M 1098.5 267.9 C 1098.2 268.5 1098.1 274.4 1098.3 280.9 C 1098.5 292.0 1098.6 292.8 1100.3 293.0 C 1101.7 293.2 1103.5 291.2 1107.9 284.5 C 1111.1 279.7 1114.0 276.0 1114.5 276.3 C 1115.0 276.6 1115.4 280.5 1115.4 285.0 C 1115.4 292.6 1115.5 293.2 1117.3 293.2 C 1119.0 293.2 1119.1 292.7 1118.9 280.2 C 1118.6 267.9 1118.5 267.2 1116.8 267.2 C 1115.6 267.2 1113.4 269.6 1109.7 275.2 C 1106.8 279.6 1104.0 283.0 1103.5 282.7 C 1103.0 282.4 1102.6 279.2 1102.6 275.5 C 1102.6 269.4 1101.7 266.7 1099.7 266.7 C 1099.3 266.7 1098.7 267.2 1098.5 267.9 M 1124.2 268.9 C 1122.2 270.8 1121.8 271.9 1121.8 276.2 C 1121.8 283.2 1124.5 286.4 1130.5 286.4 C 1134.1 286.4 1135.1 286.0 1137.0 283.6 C 1140.3 279.5 1140.1 272.9 1136.5 269.4 C 1133.0 265.9 1127.8 265.7 1124.2 268.9 M 1141.9 276.3 C 1141.9 285.6 1142.0 285.9 1144.0 285.9 C 1151.0 285.8 1153.3 286.4 1153.7 288.5 C 1154.4 291.3 1155.8 291.2 1157.3 288.3 C 1157.9 287.0 1158.8 285.9 1159.3 285.9 C 1160.7 285.9 1160.3 283.4 1158.8 282.8 C 1156.5 281.9 1156.9 272.4 1159.4 269.8 C 1161.1 268.0 1161.2 267.6 1159.9 267.1 C 1159.1 266.8 1157.5 266.7 1156.4 266.9 C 1154.4 267.1 1154.2 267.7 1153.8 274.9 C 1153.3 283.5 1152.2 284.7 1147.8 281.8 C 1145.8 280.5 1145.6 279.7 1145.6 274.6 C 1145.6 269.4 1144.6 266.7 1142.6 266.7 C 1142.2 266.7 1141.9 271.0 1141.9 276.3 M 1163.7 269.5 C 1158.7 274.9 1161.2 285.1 1167.8 286.4 C 1172.2 287.2 1175.8 285.3 1177.8 281.1 C 1179.9 276.9 1181.2 277.4 1181.2 282.3 C 1181.2 285.7 1181.4 285.9 1183.7 285.9 C 1185.1 285.9 1187.4 286.1 1189.0 286.4 C 1191.0 286.8 1192.4 286.4 1194.2 285.0 C 1196.7 283.0 1196.8 282.8 1196.5 275.1 C 1196.3 268.8 1196.0 267.2 1194.9 267.2 C 1193.8 267.2 1193.5 268.6 1193.2 274.0 C 1193.0 281.1 1192.1 283.2 1189.4 283.2 C 1186.4 283.2 1184.9 280.2 1184.7 273.5 C 1184.4 268.6 1184.1 267.2 1183.0 267.2 C 1182.1 267.2 1181.5 268.4 1181.2 271.3 C 1180.7 276.0 1179.4 276.6 1178.3 272.7 C 1177.3 269.0 1174.2 266.7 1169.9 266.7 C 1167.1 266.7 1165.8 267.3 1163.7 269.5 M 1211.0 267.3 C 1210.0 268.3 1210.3 292.1 1211.4 292.8 C 1211.9 293.1 1212.9 292.9 1213.7 292.3 C 1215.4 290.8 1215.6 269.5 1213.9 267.8 C 1212.6 266.6 1211.9 266.4 1211.0 267.3 M 1219.6 268.0 C 1218.9 268.8 1218.7 272.2 1218.8 277.4 C 1219.1 284.7 1219.3 285.4 1220.9 285.5 C 1221.9 285.5 1223.7 285.9 1224.8 286.3 C 1228.3 287.4 1232.2 286.0 1233.7 283.1 C 1235.5 279.8 1235.6 269.1 1233.9 267.7 C 1231.9 266.2 1231.4 267.4 1231.4 273.8 C 1231.4 280.6 1230.3 283.2 1227.4 283.2 C 1224.1 283.2 1223.1 281.2 1222.6 273.6 C 1222.0 266.6 1221.5 265.7 1219.6 268.0 M 1239.8 267.8 C 1239.2 268.4 1238.7 271.6 1238.7 275.5 C 1238.7 280.9 1238.4 282.3 1237.2 283.0 C 1235.7 283.9 1235.7 284.0 1237.1 285.6 C 1237.9 286.5 1238.7 288.1 1238.9 289.1 C 1239.3 291.4 1241.8 291.5 1242.2 289.2 C 1242.4 288.2 1243.7 286.2 1245.1 284.8 C 1247.6 282.4 1247.7 282.4 1249.2 284.1 C 1253.1 288.3 1260.4 287.0 1263.0 281.6 C 1264.6 278.1 1265.8 278.5 1266.3 282.7 C 1266.5 284.9 1267.0 285.5 1269.0 285.5 C 1270.3 285.6 1271.8 285.9 1272.4 286.3 C 1273.0 286.7 1274.0 286.6 1274.6 286.0 C 1275.3 285.5 1277.6 285.4 1279.9 285.7 C 1291.6 287.2 1293.5 285.7 1293.5 275.4 C 1293.5 271.0 1293.1 268.4 1292.3 267.7 C 1290.4 266.1 1289.9 267.5 1289.9 274.4 C 1289.9 281.3 1289.0 283.2 1285.8 283.2 C 1282.6 283.2 1281.7 281.3 1281.7 274.9 C 1281.7 269.4 1280.7 266.7 1278.7 266.7 C 1278.3 266.7 1278.0 270.4 1278.0 274.9 C 1278.0 279.4 1277.6 283.3 1277.1 283.6 C 1276.6 283.9 1275.1 283.5 1273.6 282.8 C 1270.8 281.3 1269.8 278.3 1269.8 270.5 C 1269.8 265.3 1267.5 265.8 1265.8 271.5 C 1265.3 272.9 1264.9 273.0 1263.4 272.2 C 1262.4 271.6 1261.7 270.8 1262.0 270.4 C 1262.9 269.0 1258.6 266.7 1255.1 266.7 C 1253.1 266.7 1250.8 267.5 1249.4 268.6 L 1247.0 270.4 L 1246.0 268.6 C 1244.9 266.5 1241.5 266.1 1239.8 267.8 M 1298.5 268.9 C 1296.7 270.8 1296.3 272.1 1296.3 276.2 C 1296.3 282.3 1298.7 285.7 1303.6 286.5 C 1306.3 286.9 1307.4 286.5 1309.8 284.5 C 1312.5 282.3 1312.8 282.2 1313.4 283.8 C 1313.7 284.7 1314.5 285.9 1315.1 286.4 C 1315.7 286.9 1316.4 288.1 1316.5 289.1 C 1316.7 290.1 1317.5 290.9 1318.2 290.9 C 1319.0 290.9 1319.7 290.1 1319.9 289.1 C 1320.1 288.1 1321.1 286.6 1322.1 285.8 L 1324.0 284.3 L 1322.0 283.2 C 1320.3 282.3 1320.0 281.4 1320.0 276.8 C 1320.0 272.2 1320.3 271.2 1321.9 270.3 C 1323.5 269.5 1323.6 269.1 1322.7 268.0 C 1322.1 267.2 1320.5 266.7 1319.2 266.9 C 1316.9 267.1 1316.8 267.4 1316.4 274.9 C 1316.0 281.0 1315.6 282.7 1314.6 282.7 C 1313.6 282.7 1313.1 281.7 1313.0 279.5 C 1313.0 277.7 1312.8 275.9 1312.7 275.4 C 1312.6 274.9 1312.6 273.6 1312.7 272.5 C 1313.1 267.3 1302.8 264.7 1298.5 268.9 M 1336.0 268.9 C 1333.3 271.6 1332.9 275.8 1335.4 275.8 C 1336.2 275.8 1337.4 274.9 1337.9 273.8 C 1339.1 270.9 1343.0 269.2 1345.9 270.3 C 1350.8 272.1 1349.6 277.2 1344.0 278.2 C 1336.6 279.6 1333.0 283.2 1334.3 288.3 C 1335.1 291.5 1338.1 293.2 1343.1 293.2 C 1346.6 293.2 1348.0 292.7 1349.8 291.0 C 1352.5 288.3 1352.8 285.0 1350.3 285.0 C 1349.3 285.0 1348.4 285.8 1348.1 286.8 C 1347.5 289.3 1343.5 290.7 1340.5 289.5 C 1338.7 288.8 1338.2 288.1 1338.5 286.2 C 1338.7 284.0 1339.5 283.5 1344.5 282.0 C 1348.4 280.9 1350.7 279.6 1351.7 278.1 C 1353.3 275.5 1354.8 275.9 1354.8 279.0 C 1354.8 282.0 1358.0 285.7 1361.2 286.4 C 1365.3 287.3 1369.0 285.4 1370.8 281.5 C 1372.2 278.5 1372.5 278.3 1373.4 279.8 C 1377.0 286.0 1381.0 287.9 1385.8 285.9 C 1389.0 284.6 1391.2 280.8 1389.6 279.3 C 1388.8 278.5 1388.0 278.8 1386.0 280.7 C 1383.0 283.6 1381.2 283.8 1379.1 281.5 C 1377.3 279.5 1377.1 272.8 1378.7 271.5 C 1381.6 269.3 1383.3 269.4 1385.9 272.3 C 1388.5 275.0 1390.4 275.2 1390.4 272.5 C 1390.4 269.8 1386.1 266.7 1382.4 266.7 C 1378.0 266.7 1375.1 268.7 1374.1 272.5 C 1373.2 275.9 1370.6 276.6 1371.0 273.2 C 1371.5 269.7 1367.9 266.7 1363.3 266.7 C 1360.2 266.7 1358.9 267.3 1356.6 269.5 L 1353.8 272.4 L 1351.2 269.5 C 1348.8 267.0 1348.0 266.7 1343.4 266.7 C 1339.1 266.7 1337.8 267.1 1336.0 268.9 M 1395.0 268.5 C 1393.4 270.1 1393.1 271.5 1393.1 278.1 C 1393.1 285.3 1393.3 285.9 1394.9 285.9 C 1396.6 285.9 1396.8 285.3 1396.8 278.6 C 1396.8 272.6 1397.1 271.2 1398.4 270.5 C 1402.5 268.4 1405.0 271.8 1405.0 279.7 C 1405.0 285.3 1405.2 285.9 1406.9 285.9 C 1408.6 285.9 1408.2 285.4 1408.0 276.6 L 1408.0 267.0 L 1402.5 267.0 C 1397.8 266.7 1396.5 267.0 1395.0 268.5 M 1467.7 268.4 C 1465.6 270.7 1465.8 274.5 1468.2 276.7 C 1469.9 278.3 1470.0 278.6 1468.6 279.1 C 1466.5 279.9 1466.7 282.5 1469.0 284.6 C 1471.3 286.7 1478.0 287.0 1480.2 285.1 C 1481.3 284.2 1481.7 282.3 1481.7 277.9 C 1481.7 273.8 1482.2 271.4 1483.1 270.3 C 1484.4 268.9 1484.4 268.7 1483.1 267.6 C 1482.0 266.7 1481.2 266.6 1480.0 267.4 C 1479.0 268.0 1477.9 268.0 1477.1 267.5 C 1474.8 266.1 1469.3 266.6 1467.7 268.4 M 1488.3 268.6 C 1485.8 270.9 1485.0 274.0 1485.7 278.8 C 1486.4 284.0 1488.9 286.3 1494.3 286.4 C 1498.5 286.5 1498.6 286.5 1499.1 289.6 C 1499.4 291.5 1500.1 292.8 1501.0 293.0 C 1502.9 293.4 1503.4 289.5 1503.0 276.3 L 1503.0 267.0 L 1496.5 267.0 C 1491.4 266.8 1489.9 267.0 1488.3 268.6 M 1511.0 268.8 C 1504.9 284.5 1504.7 285.1 1506.0 285.6 C 1508.0 286.3 1508.9 285.3 1510.5 280.4 C 1512.8 273.4 1513.9 273.6 1516.8 281.6 C 1518.0 284.7 1518.9 285.9 1520.2 285.9 C 1522.4 285.9 1522.4 285.8 1519.1 277.2 C 1515.3 267.2 1512.7 264.5 1511.0 268.8 M 1525.2 269.5 C 1519.1 276.8 1525.0 288.3 1533.8 286.4 C 1540.0 285.0 1542.3 274.1 1537.4 269.0 C 1534.2 265.5 1528.4 265.8 1525.2 269.5 M 1542.9 276.3 C 1542.9 285.0 1543.6 287.6 1545.2 285.0 C 1545.6 284.4 1546.6 284.6 1547.9 285.5 C 1549.0 286.2 1550.9 286.7 1552.1 286.6 C 1553.7 286.4 1554.4 286.9 1554.7 288.5 C 1555.5 291.3 1556.8 291.2 1558.3 288.3 C 1558.9 287.0 1559.9 285.9 1560.3 285.9 C 1561.7 285.9 1561.3 283.4 1559.8 282.8 C 1557.5 281.9 1558.0 272.4 1560.4 269.8 C 1562.1 268.0 1562.2 267.6 1561.0 267.1 C 1560.2 266.8 1558.6 266.7 1557.4 266.9 C 1555.4 267.1 1555.2 267.7 1554.8 274.9 C 1554.3 283.5 1553.2 284.7 1548.8 281.8 C 1546.8 280.5 1546.6 279.7 1546.6 274.6 C 1546.6 269.4 1545.6 266.7 1543.7 266.7 C 1543.3 266.7 1542.9 271.0 1542.9 276.3 M 1423.6 290.1 C 1422.7 292.2 1424.7 293.8 1426.4 292.3 C 1427.5 291.4 1427.6 290.8 1426.8 289.9 C 1425.5 288.2 1424.2 288.3 1423.6 290.1 M 1058.2 302.7 C 1054.8 304.2 1053.7 306.7 1055.5 308.7 C 1056.6 309.9 1056.6 310.4 1055.5 312.4 C 1054.8 313.7 1054.3 316.6 1054.2 319.0 C 1054.2 324.7 1057.1 328.3 1061.6 328.2 C 1063.3 328.1 1066.3 328.1 1068.1 328.0 L 1072.0 328.0 L 1072.0 317.5 C 1072.0 307.9 1071.4 306.8 1069.5 304.7 C 1067.0 301.8 1062.1 300.9 1058.2 302.7 M 992.7 307.8 C 990.4 309.3 988.4 311.0 988.3 311.5 C 988.3 312.0 988.2 312.8 988.1 313.2 C 988.0 313.7 987.7 314.4 987.3 314.8 C 986.1 315.9 986.5 323.3 988.0 326.1 C 989.8 329.6 993.4 332.3 997.3 333.1 C 1012.0 335.8 1019.1 315.4 1006.2 307.6 C 1000.9 304.4 998.0 304.4 992.7 307.8 M 967.0 411.0 L 967.0 514.0 L 969.7 514.0 L 973.0 514.0 L 973.0 415.0 C 973.0 309.5 973.0 312.8 968.6 309.9 L 967.0 308.5 L 967.0 411.0 M 1022.7 309.9 C 1022.4 310.6 1022.3 316.5 1022.4 323.0 C 1022.7 334.0 1022.8 334.8 1024.5 335.0 C 1025.9 335.2 1027.7 333.2 1032.1 326.5 C 1035.2 321.7 1038.2 318.1 1038.7 318.4 C 1039.2 318.7 1039.6 322.6 1039.6 327.1 C 1039.6 334.6 1039.7 335.3 1041.4 335.3 C 1043.2 335.3 1043.2 334.6 1043.2 322.5 C 1043.2 315.4 1042.9 309.5 1042.4 309.2 C 1040.7 308.2 1038.2 310.8 1032.8 318.9 C 1029.8 323.4 1027.1 326.8 1026.7 326.4 C 1026.3 326.0 1025.8 322.0 1025.7 317.5 C 1025.5 312.0 1025.1 309.2 1024.3 309.0 C 1023.7 308.8 1022.9 309.2 1022.7 309.9 M 1047.5 309.4 C 1047.2 309.7 1046.9 314.0 1046.9 319.0 C 1046.9 327.3 1047.0 327.9 1048.7 327.9 C 1050.4 327.9 1050.6 327.3 1050.6 318.3 C 1050.6 311.0 1050.3 308.7 1049.3 308.7 C 1048.7 308.7 1047.8 309.0 1047.5 309.4 M 1075.2 322.0 C 1075.2 334.3 1075.4 335.4 1076.8 335.1 C 1077.9 334.9 1078.6 333.7 1078.9 331.6 C 1079.3 328.5 1079.5 328.4 1082.7 328.7 C 1085.4 328.9 1086.6 328.5 1088.4 326.7 C 1090.5 324.6 1090.7 323.7 1090.7 316.5 C 1090.7 309.5 1090.6 308.6 1089.1 308.9 C 1087.8 309.2 1087.5 310.4 1087.3 316.0 C 1087.0 323.1 1086.1 325.2 1083.5 325.2 C 1080.4 325.2 1079.0 322.3 1078.7 315.6 C 1078.5 310.4 1078.1 309.2 1076.8 308.9 C 1075.4 308.6 1075.2 309.7 1075.2 322.0 M 1095.9 309.4 C 1095.6 309.7 1095.3 313.2 1095.3 317.2 C 1095.3 322.7 1095.0 324.5 1093.9 324.9 C 1092.2 325.5 1092.2 327.6 1093.9 328.2 C 1094.6 328.5 1095.3 329.7 1095.5 330.9 C 1095.8 333.5 1097.3 333.4 1098.7 330.7 C 1099.2 329.5 1100.2 328.3 1100.8 328.0 C 1102.0 327.2 1107.8 327.5 1110.0 328.4 C 1110.8 328.7 1112.0 328.3 1112.6 327.6 C 1113.5 326.5 1113.3 326.0 1111.0 324.8 C 1107.6 323.1 1107.2 321.9 1107.2 314.6 C 1107.2 308.7 1106.2 307.3 1103.8 309.7 C 1103.1 310.5 1102.7 310.5 1102.2 309.7 C 1101.5 308.7 1096.9 308.4 1095.9 309.4 M 1115.4 317.4 C 1115.4 322.2 1115.3 326.4 1115.2 326.8 C 1115.1 327.2 1115.9 327.6 1117.0 327.8 C 1119.1 328.1 1119.1 328.0 1118.9 318.7 C 1118.6 310.5 1118.4 309.2 1117.0 308.9 C 1115.6 308.6 1115.4 309.5 1115.4 317.4 M 1124.7 310.9 C 1121.8 313.9 1121.2 319.5 1123.1 323.6 C 1124.9 327.3 1128.2 329.0 1132.8 328.7 C 1135.9 328.4 1136.0 328.5 1136.2 331.8 C 1136.4 333.7 1136.8 335.3 1137.2 335.3 C 1139.1 335.3 1140.1 332.5 1140.1 326.9 C 1140.1 320.2 1141.3 318.1 1142.9 322.2 C 1144.3 326.0 1146.4 327.8 1149.8 328.5 C 1153.7 329.2 1157.1 327.1 1158.9 322.7 C 1160.5 319.0 1161.7 319.6 1162.2 324.3 C 1162.4 326.8 1162.9 327.5 1164.3 327.5 C 1165.3 327.6 1167.1 327.9 1168.3 328.3 C 1172.3 329.7 1172.7 327.3 1169.0 323.9 C 1165.8 321.0 1165.7 320.6 1165.7 314.8 C 1165.7 311.5 1165.3 308.7 1164.9 308.7 C 1163.3 308.7 1162.1 311.1 1161.8 314.7 C 1161.5 319.3 1158.8 320.0 1158.8 315.5 C 1158.8 311.3 1156.1 308.7 1151.8 308.7 C 1147.0 308.7 1144.8 310.1 1143.2 313.9 C 1141.7 317.5 1140.1 317.2 1140.1 313.4 C 1140.1 309.9 1138.8 309.1 1132.3 308.9 C 1127.5 308.7 1126.5 308.9 1124.7 310.9 M 1047.1 332.7 C 1047.5 335.8 1050.6 336.0 1050.6 333.0 C 1050.6 331.3 1050.1 330.7 1048.7 330.7 C 1047.2 330.7 1046.8 331.2 1047.1 332.7 M 1115.4 333.0 C 1115.4 336.0 1118.5 335.8 1118.9 332.7 C 1119.1 331.2 1118.7 330.7 1117.3 330.7 C 1115.9 330.7 1115.4 331.3 1115.4 333.0 M 1064.3 345.2 C 1064.3 345.6 1065.3 347.1 1066.6 348.5 C 1068.1 350.1 1068.7 351.6 1068.3 352.5 C 1066.1 358.1 1062.4 368.4 1062.4 369.1 C 1062.4 369.6 1063.2 370.0 1064.2 370.0 C 1065.5 370.0 1066.3 368.8 1067.4 365.5 C 1069.2 360.1 1071.2 358.0 1072.1 360.5 C 1072.5 361.5 1073.5 364.0 1074.4 366.1 C 1075.9 369.6 1076.3 370.0 1079.2 370.0 C 1082.2 370.0 1082.5 369.7 1083.6 366.1 C 1085.1 360.6 1086.0 360.0 1088.0 362.7 C 1088.9 363.9 1089.5 365.2 1089.2 365.6 C 1088.4 367.0 1090.0 370.0 1091.6 370.0 C 1092.8 370.0 1093.6 368.7 1094.5 365.4 C 1095.2 362.8 1096.2 360.8 1096.7 360.8 C 1097.2 360.8 1098.2 362.8 1099.0 365.2 C 1099.9 367.7 1101.1 369.7 1102.0 369.8 C 1104.1 370.2 1103.9 369.1 1100.9 359.5 C 1098.9 353.0 1098.0 351.3 1096.6 351.3 C 1095.4 351.3 1094.5 352.5 1093.5 355.2 C 1092.7 357.4 1091.7 359.3 1091.2 359.3 C 1090.8 359.4 1089.9 357.6 1089.4 355.4 C 1088.6 352.3 1087.9 351.2 1086.5 351.0 C 1084.8 350.7 1084.3 351.7 1082.4 357.8 C 1081.1 362.0 1079.7 365.0 1079.0 365.0 C 1078.3 365.0 1076.5 361.4 1074.8 356.9 C 1070.9 346.7 1069.4 344.4 1066.5 344.4 C 1065.3 344.4 1064.3 344.7 1064.3 345.2 M 993.5 349.1 C 990.7 351.2 988.0 354.4 988.0 355.5 C 988.0 355.9 987.7 356.4 987.3 356.8 C 986.0 358.1 986.5 366.1 988.0 367.2 C 988.7 367.9 989.1 368.7 988.9 369.1 C 988.6 369.5 989.7 370.9 991.2 372.2 C 994.2 374.7 999.4 376.1 1001.9 375.0 C 1002.8 374.6 1003.8 374.3 1004.2 374.4 C 1005.8 374.8 1010.2 370.8 1011.6 367.8 C 1013.2 364.6 1013.6 358.9 1012.4 357.7 C 1012.0 357.4 1011.7 356.8 1011.7 356.4 C 1011.2 349.3 999.5 344.6 993.5 349.1 M 1022.6 352.0 C 1022.4 352.6 1021.9 358.5 1022.0 365.0 L 1023.0 377.0 L 1028.6 377.0 C 1035.4 377.3 1038.4 376.2 1040.5 372.5 C 1041.7 370.2 1041.7 369.7 1040.5 367.5 C 1039.2 365.1 1039.2 364.8 1041.3 361.5 L 1043.6 358.1 L 1045.7 360.1 C 1047.6 361.9 1047.7 362.3 1046.5 363.2 C 1042.8 365.9 1046.8 370.4 1053.0 370.4 C 1058.8 370.4 1060.6 368.0 1060.6 360.5 C 1060.6 357.4 1061.1 354.4 1061.6 353.8 C 1062.2 353.2 1062.4 352.3 1062.0 351.8 C 1061.2 350.5 1058.5 350.5 1057.2 351.8 C 1056.5 352.5 1056.1 352.5 1055.6 351.8 C 1054.6 350.1 1047.4 350.6 1045.7 352.5 C 1044.8 353.4 1044.2 354.6 1044.2 355.2 C 1044.2 357.3 1042.3 357.2 1041.3 355.1 C 1040.8 353.8 1039.3 352.4 1038.1 351.8 C 1034.9 350.3 1023.2 350.5 1022.6 352.0 M 1105.9 352.8 C 1104.0 355.5 1104.1 357.4 1106.3 360.2 C 1108.0 362.3 1108.0 362.6 1106.7 363.4 C 1102.6 365.7 1109.4 371.5 1115.0 370.5 C 1119.2 369.7 1120.4 367.9 1121.0 360.9 C 1121.3 357.6 1121.9 354.0 1122.3 352.9 C 1122.8 351.1 1122.6 350.8 1120.7 350.8 C 1119.5 350.8 1118.1 351.2 1117.5 351.8 C 1116.8 352.5 1116.4 352.5 1115.9 351.8 C 1115.6 351.2 1113.5 350.8 1111.3 350.8 C 1108.2 350.8 1107.0 351.3 1105.9 352.8 M 1126.1 351.4 C 1125.7 351.7 1125.5 355.2 1125.5 359.2 C 1125.5 364.8 1125.1 366.5 1124.1 366.9 C 1123.3 367.2 1122.7 368.0 1122.7 368.6 C 1122.7 369.3 1123.3 370.0 1124.1 370.3 C 1124.8 370.6 1125.5 371.7 1125.5 372.7 C 1125.5 375.3 1128.1 375.0 1129.1 372.3 C 1129.6 371.0 1130.4 370.0 1130.9 370.0 C 1132.4 370.0 1132.0 367.5 1130.5 366.9 C 1128.3 366.1 1128.6 356.1 1130.9 354.0 C 1131.9 353.1 1132.5 352.0 1132.2 351.6 C 1131.7 350.7 1127.0 350.5 1126.1 351.4 M 1136.7 352.2 C 1132.5 355.1 1131.9 362.9 1135.6 367.6 C 1139.1 372.0 1146.9 371.5 1149.1 366.6 C 1150.8 362.8 1148.9 361.8 1145.7 364.8 C 1144.3 366.1 1142.5 367.2 1141.8 367.2 C 1137.3 367.2 1135.4 358.2 1139.2 355.2 C 1141.8 353.0 1142.5 353.1 1145.2 355.9 C 1146.5 357.2 1148.2 358.0 1148.9 357.7 C 1150.6 357.1 1150.5 356.0 1148.2 353.2 C 1146.7 351.3 1145.6 350.8 1142.5 350.8 C 1140.4 350.8 1137.8 351.4 1136.7 352.2 M 1153.1 363.7 C 1153.3 374.7 1153.5 376.8 1154.7 376.8 C 1155.6 376.8 1156.2 375.7 1156.5 373.6 C 1157.0 370.6 1157.1 370.5 1160.4 370.7 C 1163.0 371.0 1164.3 370.5 1166.1 368.7 C 1168.2 366.6 1168.4 365.7 1168.4 358.6 C 1168.4 351.4 1168.3 350.8 1166.6 350.8 C 1164.9 350.8 1164.7 351.4 1164.7 357.9 C 1164.7 365.2 1163.9 367.2 1161.0 367.2 C 1158.1 367.2 1156.6 364.3 1156.3 357.6 C 1156.1 352.4 1155.8 351.2 1154.4 351.0 C 1152.9 350.7 1152.8 351.6 1153.1 363.7 M 1118.9 429.2 C 1117.5 429.4 1115.3 430.8 1113.9 432.4 C 1112.6 434.0 1111.2 435.3 1110.9 435.3 C 1110.6 435.3 1110.2 434.0 1109.9 432.6 C 1109.5 430.3 1109.0 430.2 1106.5 430.0 L 1104.0 429.0 L 1104.0 436.2 C 1104.0 441.6 1103.2 443.3 1102.2 443.7 C 1099.3 444.8 1098.0 442.3 1098.0 435.6 L 1098.0 429.0 L 1095.1 430.0 L 1092.0 430.0 L 1092.0 442.7 L 1092.0 455.0 L 1094.8 455.0 C 1097.2 455.0 1097.7 455.0 1098.0 452.7 C 1098.5 450.2 1098.9 449.9 1102.4 449.7 C 1105.6 449.5 1106.7 448.8 1108.6 446.3 L 1111.0 443.2 L 1114.0 446.3 C 1116.6 449.1 1117.5 449.5 1121.6 449.5 C 1125.2 449.5 1126.6 449.1 1128.4 447.2 L 1130.8 444.9 L 1132.7 448.0 C 1133.7 449.7 1134.6 451.8 1134.6 452.6 C 1134.6 455.9 1140.7 457.0 1143.3 454.1 L 1145.0 452.2 L 1146.9 454.1 C 1148.0 455.1 1150.1 455.9 1151.8 455.9 C 1154.4 455.9 1154.7 455.6 1154.7 453.3 C 1154.7 451.6 1154.1 450.4 1153.1 450.0 C 1151.6 449.4 1151.6 449.3 1153.1 448.2 C 1155.0 446.8 1155.2 444.4 1153.4 443.7 C 1152.4 443.3 1152.2 441.3 1152.0 436.5 L 1152.0 430.0 L 1148.6 430.0 L 1146.0 429.0 L 1145.0 436.4 C 1144.7 443.4 1145.0 443.6 1142.8 443.6 C 1140.6 443.6 1140.3 443.4 1140.0 436.4 L 1140.0 429.0 L 1137.5 430.0 C 1135.1 430.3 1135.0 430.1 1134.6 436.7 C 1134.2 442.0 1133.8 443.6 1132.8 443.6 C 1131.8 443.6 1131.5 442.8 1131.7 440.9 C 1131.9 439.5 1131.3 436.8 1130.5 434.9 C 1128.5 430.4 1124.6 428.5 1118.9 429.2 M 983.0 430.7 C 982.3 431.5 981.8 435.8 982.0 443.7 L 983.0 455.0 L 985.7 455.0 C 988.9 455.0 988.9 455.4 989.3 450.9 C 989.8 446.4 989.8 446.3 993.0 446.3 C 996.2 446.3 996.2 446.4 996.7 450.9 C 997.0 454.8 997.4 455.5 999.2 455.8 C 1002.5 456.2 1004.0 454.3 1004.0 449.6 C 1004.0 447.2 1004.2 445.0 1004.5 444.7 C 1004.9 444.4 1006.3 445.3 1007.6 446.8 C 1009.8 449.1 1010.9 449.5 1014.5 449.5 C 1018.0 449.5 1019.2 449.1 1021.3 446.8 L 1023.8 444.1 L 1026.4 446.8 C 1028.5 449.0 1029.7 449.5 1033.2 449.5 C 1035.5 449.5 1038.3 448.9 1039.4 448.1 C 1041.5 446.6 1042.1 443.2 1040.5 441.6 C 1039.9 441.0 1040.3 440.0 1041.9 438.5 C 1043.5 437.0 1044.5 436.7 1045.2 437.4 C 1045.9 438.1 1045.9 438.5 1045.2 439.0 C 1044.6 439.3 1044.2 441.0 1044.2 442.7 C 1044.2 447.1 1047.0 449.5 1052.2 449.5 C 1057.0 449.5 1059.5 448.3 1060.6 445.3 C 1061.5 443.0 1063.3 443.1 1063.3 445.4 C 1063.3 447.3 1067.6 449.5 1071.3 449.5 C 1075.4 449.5 1078.6 447.5 1079.8 444.3 C 1081.3 440.5 1083.0 442.9 1083.0 449.6 L 1083.0 456.0 L 1085.5 456.0 L 1088.0 455.0 L 1088.0 442.7 L 1088.0 430.0 L 1085.5 430.0 C 1082.7 429.7 1082.5 429.5 1082.5 432.0 C 1082.5 436.0 1081.4 436.1 1078.6 432.5 C 1076.4 429.8 1075.5 429.4 1071.8 429.4 C 1068.8 429.4 1066.8 430.0 1064.7 431.6 L 1061.8 433.9 L 1059.6 431.6 C 1057.9 429.8 1056.7 429.4 1052.4 429.4 C 1048.1 429.4 1046.9 429.8 1045.1 431.7 L 1043.0 433.9 L 1040.7 431.7 C 1038.9 429.8 1037.5 429.4 1033.7 429.4 C 1031.1 429.4 1028.2 430.0 1027.1 430.8 C 1025.4 432.0 1025.0 432.0 1024.0 430.8 C 1022.7 429.2 1019.4 429.0 1018.0 430.4 C 1017.2 431.1 1016.8 431.1 1016.3 430.4 C 1015.5 429.0 1009.2 429.2 1007.1 430.7 C 1005.6 431.8 1005.0 431.8 1002.8 430.5 C 999.1 428.3 997.2 429.8 996.7 435.4 C 996.2 439.9 996.2 439.9 993.0 439.9 C 989.9 439.9 989.8 439.8 989.5 435.8 C 989.4 433.6 988.8 431.2 988.3 430.6 C 987.0 429.0 984.4 429.1 983.0 430.7 M 1166.0 443.0 L 1166.0 456.0 L 1168.9 456.0 C 1171.6 456.0 1172.0 455.6 1172.0 453.8 C 1172.0 452.7 1171.6 451.3 1171.1 450.7 C 1170.3 450.0 1170.3 449.6 1171.1 449.1 C 1171.6 448.8 1172.0 447.5 1172.0 446.3 C 1172.0 443.0 1173.6 442.7 1175.2 445.7 C 1176.8 448.9 1178.2 449.5 1183.5 449.5 C 1186.4 449.5 1188.1 449.0 1189.4 447.7 C 1191.3 445.8 1191.8 442.7 1190.4 441.8 C 1189.9 441.5 1190.1 440.2 1190.8 438.8 C 1192.2 436.1 1191.8 433.5 1189.6 431.0 C 1188.6 429.8 1186.8 429.4 1183.1 429.4 C 1178.9 429.4 1177.7 429.8 1175.6 431.8 L 1173.0 434.3 L 1172.0 431.8 C 1171.3 429.9 1170.6 429.0 1168.4 429.0 L 1166.0 429.0 L 1166.0 443.0 M 1011.9 462.0 C 1010.7 463.2 1011.3 466.9 1012.7 466.9 C 1015.0 466.9 1015.1 469.1 1013.1 474.2 C 1012.0 476.9 1011.4 479.6 1011.6 480.2 C 1011.9 480.8 1011.3 482.0 1010.3 482.9 C 1008.1 484.9 1007.3 484.1 1007.0 475.6 L 1007.0 469.0 L 1004.2 469.0 C 1001.7 468.8 1001.2 468.9 1001.2 470.4 C 1001.2 473.3 999.8 473.5 998.1 470.9 C 996.1 467.9 991.9 468.1 991.2 471.3 C 990.5 474.1 989.0 473.9 988.6 471.0 C 988.3 468.9 987.9 468.8 985.4 469.0 L 983.0 469.0 L 983.0 482.0 L 983.0 495.0 L 986.5 495.0 C 991.1 495.3 991.7 494.8 992.5 489.2 C 993.1 485.5 995.1 482.4 996.0 484.0 C 996.3 484.4 997.0 487.1 997.6 490.0 L 998.8 495.0 L 1003.0 495.0 C 1006.8 494.7 1007.2 494.5 1007.6 492.0 C 1008.0 489.6 1008.5 489.2 1011.7 488.8 C 1014.4 488.5 1015.5 487.9 1015.7 486.5 C 1015.9 485.5 1016.4 483.7 1016.9 482.6 C 1018.0 479.7 1020.0 481.3 1020.8 485.7 C 1021.3 488.5 1021.7 488.8 1024.6 488.8 C 1026.3 488.8 1027.7 488.4 1027.7 487.9 C 1027.7 485.5 1019.9 464.5 1018.4 463.1 C 1016.8 461.4 1013.1 460.8 1011.9 462.0 M 1415.8 462.7 C 1412.5 464.6 1411.8 466.9 1414.0 468.7 C 1415.8 470.1 1415.8 470.1 1413.7 472.8 C 1411.4 475.6 1411.0 475.3 1410.3 471.0 C 1410.1 469.6 1409.3 469.0 1407.3 469.0 L 1405.0 469.0 L 1404.0 475.8 C 1403.8 480.7 1403.6 482.7 1402.7 483.0 C 1399.9 484.1 1399.0 481.5 1399.0 474.9 L 1399.0 469.0 L 1395.6 469.0 L 1393.0 469.0 L 1393.0 478.8 L 1393.0 488.0 L 1398.6 489.0 C 1406.7 489.3 1408.4 488.3 1410.1 485.0 L 1411.6 482.2 L 1414.3 485.5 C 1417.0 488.8 1417.1 489.2 1423.4 489.0 L 1430.0 488.0 L 1430.0 476.7 C 1430.1 467.0 1429.8 464.8 1428.6 463.6 C 1426.5 461.5 1418.9 461.0 1415.8 462.7 M 1039.6 475.5 C 1039.6 480.9 1039.3 482.6 1038.2 483.0 C 1037.5 483.3 1036.8 484.5 1036.8 485.6 C 1036.8 486.7 1037.5 488.2 1038.2 488.8 C 1039.0 489.4 1039.6 490.5 1039.6 491.1 C 1039.6 493.1 1042.9 495.2 1045.9 495.2 C 1048.9 495.2 1049.0 495.2 1048.5 491.6 C 1047.9 487.3 1049.3 485.6 1051.9 487.5 C 1054.2 489.2 1061.5 489.2 1064.0 487.5 C 1065.7 486.3 1066.0 486.3 1067.0 487.5 C 1067.6 488.2 1069.3 488.8 1070.8 488.8 C 1072.9 488.8 1073.6 488.3 1074.3 486.3 C 1076.5 480.3 1077.9 479.9 1079.4 485.0 C 1080.2 488.0 1080.6 488.4 1083.5 488.4 C 1085.7 488.4 1086.6 488.0 1086.4 487.1 C 1086.2 486.4 1086.3 485.2 1086.6 484.5 C 1087.0 483.5 1087.7 483.8 1089.7 486.0 C 1092.0 488.4 1093.0 488.8 1097.1 488.8 C 1102.1 488.8 1104.7 487.2 1106.3 482.7 C 1107.5 479.7 1108.8 480.8 1109.2 485.2 C 1109.4 488.0 1109.7 488.0 1112.2 488.0 L 1115.0 488.0 L 1115.0 481.5 C 1115.4 475.4 1116.1 474.7 1117.7 474.7 C 1119.3 474.7 1119.6 475.4 1120.0 481.5 L 1120.0 488.0 L 1123.4 489.0 L 1126.0 489.0 L 1126.0 479.1 L 1126.0 469.0 L 1119.1 469.0 C 1111.6 468.8 1109.0 470.0 1109.0 473.8 C 1109.0 476.8 1107.3 477.4 1106.3 474.8 C 1104.7 470.6 1101.8 468.7 1096.7 468.7 C 1090.5 468.7 1087.8 471.4 1087.1 477.9 C 1086.8 480.4 1086.3 482.6 1085.8 482.7 C 1085.4 482.8 1084.0 479.8 1082.6 476.0 C 1080.5 470.2 1079.8 469.1 1077.8 468.9 C 1074.8 468.5 1073.5 470.3 1070.6 478.0 C 1069.3 481.5 1067.9 484.2 1067.4 484.1 C 1066.9 483.9 1067.0 480.4 1067.0 476.3 L 1067.0 469.0 L 1059.1 469.0 C 1052.3 469.0 1051.3 469.0 1050.1 470.8 C 1048.4 473.3 1048.3 476.0 1050.1 478.4 C 1051.3 480.2 1051.2 480.5 1049.6 482.0 C 1047.0 484.4 1046.3 482.9 1046.0 475.6 L 1046.0 469.0 L 1042.6 469.0 L 1040.0 469.0 L 1040.0 476.0 M 1130.2 469.8 C 1128.7 471.4 1128.8 485.1 1130.4 487.2 C 1131.4 488.6 1132.7 488.8 1137.7 488.5 C 1143.3 488.1 1145.9 488.8 1143.7 490.2 C 1143.2 490.5 1142.8 491.8 1142.8 493.0 C 1142.8 494.9 1143.2 495.2 1146.0 495.2 C 1148.7 495.2 1149.2 494.9 1149.2 493.1 C 1149.2 492.0 1148.8 490.6 1148.2 490.0 C 1147.5 489.3 1147.7 488.7 1149.1 488.0 C 1150.6 487.1 1151.1 487.3 1151.9 488.7 C 1152.4 489.7 1152.9 491.2 1152.9 492.0 C 1152.9 493.0 1153.8 493.4 1156.1 493.4 C 1158.6 493.4 1159.3 493.0 1159.3 491.7 C 1159.3 490.7 1160.1 488.9 1161.2 487.6 L 1163.1 485.1 L 1165.4 487.0 C 1168.2 489.2 1174.4 489.4 1177.3 487.4 C 1179.6 485.8 1181.6 480.2 1180.7 478.0 C 1180.3 477.2 1180.1 475.7 1180.2 474.8 C 1180.3 473.9 1179.5 472.1 1178.4 470.9 C 1175.6 468.0 1168.9 467.8 1165.3 470.7 L 1163.0 472.6 L 1162.0 470.7 C 1161.6 469.1 1161.1 468.7 1158.3 468.7 C 1153.9 468.7 1152.9 470.4 1152.9 477.2 C 1152.9 480.5 1152.4 482.6 1151.5 483.3 C 1149.7 484.8 1149.3 483.7 1149.0 475.6 L 1149.0 469.0 L 1146.0 469.0 L 1143.0 469.0 L 1143.0 476.0 C 1142.6 482.7 1142.3 482.9 1140.1 482.6 C 1136.2 482.0 1135.5 480.8 1135.5 474.5 C 1135.5 469.1 1135.4 468.7 1133.4 468.7 C 1132.3 468.7 1130.8 469.2 1130.2 469.8 M 1194.2 469.3 C 1193.5 469.6 1192.4 471.0 1191.7 472.4 C 1190.4 474.9 1190.4 475.1 1192.2 476.1 C 1193.7 476.9 1193.9 477.3 1193.0 478.4 C 1192.4 479.1 1192.3 479.7 1192.7 479.7 C 1193.1 479.7 1192.9 480.2 1192.3 480.8 C 1190.7 482.4 1191.0 484.1 1193.5 486.6 C 1196.9 490.0 1203.3 489.8 1206.7 486.1 C 1208.1 484.6 1209.5 483.7 1209.8 484.0 C 1210.2 484.3 1210.4 486.5 1210.4 488.9 C 1210.4 493.5 1211.9 495.6 1214.7 495.1 C 1215.8 494.8 1216.5 493.7 1216.8 491.6 C 1217.3 488.5 1217.4 488.4 1221.1 488.7 C 1225.3 489.0 1228.7 486.6 1228.7 483.4 C 1228.7 480.3 1230.4 480.4 1231.8 483.7 C 1232.5 485.4 1233.9 487.3 1234.9 487.8 C 1238.1 489.5 1244.6 489.0 1247.3 486.9 L 1250.0 484.9 L 1250.0 486.9 C 1250.4 488.4 1251.5 488.8 1253.8 488.8 C 1256.4 488.8 1257.0 488.4 1257.8 485.9 C 1258.9 482.9 1260.2 483.2 1260.8 486.5 C 1261.1 488.0 1261.9 488.4 1264.3 488.4 C 1267.1 488.4 1267.5 488.1 1268.0 485.6 C 1268.6 482.1 1270.1 482.2 1270.7 485.7 C 1271.1 488.0 1271.6 488.4 1274.4 488.4 C 1277.2 488.4 1277.5 488.1 1277.3 486.1 C 1277.1 484.8 1276.4 482.1 1275.8 480.1 C 1275.1 478.1 1274.1 474.7 1273.5 472.6 C 1272.6 469.1 1272.2 468.7 1269.7 468.7 C 1267.4 468.7 1266.7 469.3 1265.6 472.0 C 1264.1 475.5 1262.9 475.3 1262.3 471.5 C 1262.1 469.8 1261.4 469.1 1259.7 468.9 C 1256.8 468.6 1255.5 470.0 1254.0 475.1 C 1252.7 479.6 1251.5 479.6 1250.0 475.1 C 1248.4 470.6 1245.7 468.7 1240.9 468.7 C 1235.6 468.7 1233.4 470.0 1231.7 473.9 C 1230.2 477.7 1229.0 477.1 1228.5 472.4 C 1228.3 469.5 1228.0 469.0 1225.5 469.0 L 1223.0 469.0 L 1222.0 475.8 C 1221.8 480.7 1221.8 482.7 1220.9 483.0 C 1218.3 484.0 1216.9 481.5 1216.6 475.3 C 1216.4 469.8 1216.2 469.1 1214.4 468.9 C 1213.0 468.7 1211.8 469.4 1210.8 471.0 L 1209.3 473.3 L 1207.2 471.0 C 1205.4 469.1 1204.2 468.7 1200.2 468.8 C 1197.5 468.8 1194.8 469.1 1194.2 469.3 M 1289.6 469.3 C 1289.3 469.6 1289.0 472.6 1289.0 475.9 C 1289.0 480.2 1288.6 482.3 1287.5 483.5 C 1286.0 485.1 1286.1 485.4 1288.0 489.1 C 1291.2 494.8 1291.7 495.2 1295.2 495.2 C 1298.3 495.2 1298.4 495.2 1297.9 491.7 C 1297.6 489.8 1297.8 487.5 1298.3 486.7 C 1299.1 485.2 1299.3 485.3 1301.5 487.0 C 1303.1 488.2 1305.2 488.8 1307.9 488.8 C 1311.3 488.8 1312.5 488.3 1314.5 486.1 L 1317.0 483.5 L 1319.4 486.1 C 1321.3 488.4 1322.4 488.8 1326.1 488.8 C 1328.7 488.8 1331.5 488.2 1332.6 487.4 C 1334.4 486.1 1334.7 486.2 1336.5 487.9 C 1337.5 488.9 1338.3 490.6 1338.3 491.6 C 1338.3 493.0 1338.9 493.4 1341.5 493.4 C 1344.0 493.4 1344.7 493.0 1344.7 491.7 C 1344.7 490.8 1345.3 489.3 1346.0 488.3 C 1347.1 486.8 1347.5 486.7 1349.7 487.9 C 1353.7 490.0 1355.1 488.3 1355.7 481.0 C 1356.1 475.4 1356.3 474.7 1358.0 474.7 C 1359.6 474.7 1359.6 475.4 1360.0 481.5 L 1361.0 488.0 L 1363.7 489.0 L 1367.0 489.0 L 1367.0 478.8 C 1367.0 468.9 1366.6 468.7 1364.5 468.7 C 1363.4 468.7 1362.0 469.2 1361.4 469.7 C 1360.7 470.4 1360.3 470.4 1359.8 469.7 C 1358.7 467.9 1352.7 468.6 1350.4 470.7 L 1348.0 472.8 L 1348.0 470.7 C 1347.6 469.1 1346.6 468.7 1343.8 468.7 C 1341.9 468.7 1339.9 469.2 1339.4 469.9 C 1338.8 470.5 1338.3 473.7 1338.1 477.0 C 1337.9 481.5 1337.5 482.9 1336.5 482.9 C 1335.4 482.9 1334.9 481.5 1335.0 475.9 L 1335.0 469.0 L 1327.7 469.0 C 1320.5 469.0 1319.9 469.0 1318.5 471.1 L 1317.0 473.4 L 1314.6 471.0 C 1311.8 468.3 1305.3 467.8 1302.0 470.1 C 1299.7 471.7 1297.9 476.8 1298.3 480.4 C 1298.5 482.1 1298.2 482.9 1297.2 482.9 C 1296.1 482.9 1295.7 481.3 1295.4 476.0 C 1294.9 469.5 1294.8 469.2 1292.6 468.9 C 1291.3 468.7 1290.0 468.9 1289.6 469.3 M 1370.4 470.0 C 1369.7 470.8 1369.8 474.3 1370.0 479.8 L 1370.0 488.0 L 1376.7 488.0 C 1385.4 488.1 1385.5 488.6 1384.2 489.9 C 1383.6 490.5 1383.1 492.0 1383.1 493.1 C 1383.1 494.9 1383.5 495.2 1386.3 495.2 C 1389.0 495.2 1389.5 494.9 1389.5 493.0 C 1389.5 491.8 1388.8 490.6 1387.9 490.2 C 1386.4 489.6 1386.4 489.5 1387.9 488.4 C 1389.3 487.4 1389.2 486.0 1389.0 478.2 L 1389.0 469.0 L 1386.3 469.0 L 1384.0 469.0 L 1383.0 476.0 C 1382.6 482.7 1382.6 482.9 1380.3 482.6 C 1376.5 482.0 1375.8 480.8 1375.8 474.5 C 1375.8 469.0 1375.7 468.7 1373.6 468.7 C 1372.4 468.7 1370.9 469.3 1370.4 470.0 M 1444.7 469.9 C 1444.4 470.6 1443.9 476.4 1444.0 482.9 L 1445.0 495.0 L 1450.9 495.0 C 1458.1 495.3 1462.6 493.7 1464.4 489.9 C 1466.8 485.2 1467.1 485.0 1469.6 487.0 C 1472.4 489.2 1478.3 489.4 1482.0 487.5 C 1484.2 486.3 1484.6 486.3 1485.1 487.5 C 1485.4 488.3 1486.8 488.8 1488.6 488.8 C 1491.4 488.8 1491.7 488.5 1492.9 484.9 C 1493.6 482.8 1494.6 481.1 1495.1 481.1 C 1495.5 481.1 1496.4 482.8 1497.1 484.9 C 1498.2 488.5 1498.6 488.8 1501.5 488.8 C 1505.1 488.8 1505.2 488.3 1502.7 481.5 C 1501.7 478.7 1500.2 474.7 1499.4 472.6 C 1498.2 469.1 1497.7 468.7 1495.0 468.7 C 1492.1 468.7 1492.0 468.9 1489.3 476.1 C 1487.9 480.1 1486.3 483.4 1485.8 483.4 C 1485.3 483.3 1485.0 480.1 1485.0 476.1 L 1485.0 469.0 L 1477.7 469.0 C 1469.9 469.0 1467.1 470.0 1467.1 473.4 C 1467.1 475.8 1465.5 476.3 1464.4 474.2 C 1462.4 470.6 1458.0 468.7 1451.3 468.7 C 1447.1 468.7 1445.0 469.1 1444.7 469.9 M 1507.2 469.3 C 1507.1 469.7 1507.1 470.4 1507.2 470.7 C 1507.2 471.1 1507.0 476.8 1507.0 483.4 L 1507.0 495.0 L 1509.9 495.0 C 1512.8 494.7 1513.7 491.9 1511.4 490.3 C 1510.0 489.3 1510.0 489.1 1511.3 488.0 C 1512.1 487.3 1512.8 486.0 1512.8 485.1 C 1512.8 482.2 1514.5 482.2 1516.0 485.1 C 1517.3 487.8 1518.7 488.5 1523.7 489.0 C 1525.2 489.2 1526.1 490.0 1526.5 491.5 C 1527.2 494.5 1529.7 496.0 1531.7 494.7 C 1533.1 493.8 1533.4 492.0 1533.6 482.5 C 1533.8 475.4 1533.5 470.8 1532.9 470.1 C 1532.2 469.3 1529.5 468.9 1525.4 468.8 C 1519.4 468.8 1518.8 468.9 1516.4 471.5 L 1513.8 474.3 L 1512.6 471.7 C 1511.5 469.4 1507.5 467.6 1507.2 469.3 "></path></clipPath><g clip-path="url(#clip0x608000eadda0)"><image xlink:href="150BD39CCB93A517549716760D87696B.png" width="1272.00" height="584.00" transform="matrix(0.53, 0.00, -0.00, -0.53, 966.5, 514.4)"></image></g></g></g></g></g></svg>