<svg version="1.2" baseProfile="tiny" xmlns="http://www.w3.org/2000/svg" width="500" height="410" viewBox="0 0 500 410"><path fill-rule="evenodd" d="M21.4 217.4c-.5-.4-1.1-1-1.9-1.9-.8-.9-1.7-2-2.6-3.3l-5-7c-.1-.2-.3-.4-.5-.6-.2-.2-.4-.4-.5-.6-.2-.1-.5-.3-.8-.3-.3-.1-.5-.1-.8-.2v-.5c.6-.1 1.1-.3 1.6-.5s.9-.5 1.4-.7l6.1-6.7c.3-.3.4-.6.2-.9-.1-.3-.6-.5-1.3-.7l-1.7-.6v-1.3h10.9v1.3l-2.3.6c-.4.1-.8.3-1.2.6-.4.3-.7.6-.9.8l-7.2 6.7 5.4 7.6c.5.7 1.1 1.4 1.6 2.1.6.7 1.1 1.3 1.6 1.9.5.6 1 1.1 1.5 1.5.5.4.9.8 1.2 1l1.6.4v1.3h-6.4zM.3 216.1l2-.5c.2-.1.4-.1.6-.2.2 0 .4-.1.6-.2.2-.1.3-.2.4-.3.1-.1.2-.3.2-.5v-31.3c0-.4 0-.7-.1-1 0-.3-.1-.5-.2-.7-.1-.2-.3-.3-.5-.5-.2-.1-.5-.3-.8-.4l-1.9-.9v-1.1l7.1-1.4h1.6c-.1.5-.1 1.1-.2 1.8S9 180.3 9 181c0 .7 0 1.5-.1 2.2 0 .7 0 1.4 0 2.1v29c0 .2 0 .4.1.5 0 .1.1.2.2.2.1.1.3.1.5.2s.5.1.8.2l1.9.6v1.3H.3v-1.2zm46-15c.1-.2.2-.4.2-.7 0-.3.1-.6.1-.8 0-2-.4-3.5-1.3-4.6-.8-1-2-1.5-3.5-1.5-1 0-1.9.2-2.7.7-.8.5-1.5 1.1-2.1 1.8-.6.8-1 1.6-1.4 2.6-.3 1-.6 2-.6 3l11.3-.5zm-5.1 16.3c-1.7 0-3.3-.3-4.6-1-1.4-.7-2.5-1.6-3.5-2.7-1-1.2-1.7-2.5-2.2-4.1-.5-1.6-.8-3.3-.8-5.1 0-1.8.3-3.5.9-5.1.6-1.6 1.4-3 2.4-4.1 1.1-1.2 2.3-2.1 3.8-2.7 1.5-.7 3.1-1 4.9-1 1.3 0 2.5.2 3.7.6 1.1.4 2.1 1 2.9 1.7.8.8 1.5 1.7 1.9 2.8.5 1.1.7 2.3.7 3.7 0 .2 0 .4 0 .7 0 .3-.1.5-.1.8 0 .3-.1.6-.1.8 0 .3-.1.5-.1.7l-16.2-.4v1c0 3.7.8 6.4 2.4 8.3 1.6 1.8 3.8 2.8 6.7 2.8 1.4 0 2.7-.3 3.8-1 1.2-.6 2.1-1.5 2.9-2.6l.5.6c-.5 1-1 1.9-1.6 2.6s-1.3 1.3-2.1 1.6c-.8.4-1.7.7-2.7.9-1.1.1-2.2.2-3.5.2zm14.7-1.2l2-.5c.2-.1.5-.1.7-.2.2 0 .4-.1.5-.2.1-.1.3-.2.4-.3.1-.1.1-.3.1-.4v-17.7c0-.3 0-.5-.1-.7 0-.2-.1-.4-.3-.6-.1-.2-.4-.3-.6-.5-.3-.2-.7-.4-1.2-.6L56 194v-1.1l6.8-1.4h1.6v5.9c.3-.8.7-1.6 1.2-2.3.5-.7 1-1.3 1.6-1.9.6-.5 1.2-.9 1.9-1.2.7-.3 1.4-.4 2.1-.4.4 0 .8 0 1.2.1.4.1.7.2 1 .3.3.1.5.3.7.5.2.2.3.4.3.5 0 .3-.1.7-.4 1-.3.3-.6.7-.9 1-.3.3-.6.6-.9.8-.3.2-.4.3-.4.3-.1-.2-.2-.4-.3-.6-.1-.2-.3-.5-.5-.7-.2-.2-.4-.4-.7-.6-.3-.2-.6-.2-1-.2-.5 0-1 .1-1.5.3-.5.2-1 .4-1.5.7-.5.3-.9.7-1.2 1-.3.4-.6.8-.7 1.2v17c0 .4.2.7.5.8.3.2.7.3 1.3.4l3.8.7v1.4H56v-1.3h-.1z"/><path d="M76.4 216.2l2-.5c.6-.1 1-.3 1.3-.4.3-.1.4-.3.4-.7v-17.7c0-.3 0-.5-.1-.7 0-.2-.1-.4-.3-.6-.1-.2-.4-.3-.6-.5-.3-.2-.7-.4-1.2-.6l-1.4-.6v-1.1l6.8-1.4h1.6v5.6c.4-.8.8-1.5 1.3-2.1.5-.7 1.1-1.3 1.8-1.8s1.4-.9 2.3-1.2c.8-.3 1.8-.4 2.8-.4 1.4 0 2.6.2 3.6.6 1 .4 1.9 1 2.6 1.8.7.8 1.2 1.7 1.6 2.8.4 1.1.5 2.3.5 3.7v14.3c0 .4.2.6.5.7.3.1.7.2 1.2.3l2 .5v1.2h-12v-1.3l2-.5c.4-.1.7-.2.9-.2.2-.1.4-.1.5-.2.1-.1.2-.1.2-.3 0-.1.1-.3.1-.4v-13.2c0-1-.1-1.9-.2-2.8-.1-.9-.4-1.7-.8-2.4s-1-1.2-1.7-1.7c-.7-.4-1.7-.6-2.8-.6-.8 0-1.6.1-2.2.4-.7.3-1.3.6-1.8 1s-1 .9-1.4 1.4c-.4.5-.7 1-.9 1.5v16.4c0 .4.2.6.5.7s.7.2 1.2.3l2 .5v1.3H76.4v-1.1z"/><path fill-rule="evenodd" d="M121.5 215c1.2 0 2.3-.3 3.2-.8 1-.5 1.8-1.2 2.5-2.2.7-1 1.2-2.1 1.6-3.5.4-1.4.6-2.9.6-4.7 0-1.5-.1-2.9-.4-4.1-.3-1.2-.7-2.3-1.3-3.1-.6-.9-1.4-1.5-2.3-2s-2-.7-3.3-.7c-.5 0-1 .1-1.6.2-.5.1-1 .3-1.5.6s-.9.6-1.3.9c-.4.4-.8.8-1.1 1.2v16.5c.2.1.5.3.8.5.3.2.7.3 1.1.5.4.2.9.3 1.4.4.4.2 1 .3 1.6.3zM108 229.7l2-.5c.3-.1.6-.1.8-.2.2-.1.4-.1.5-.2.1-.1.2-.2.3-.3.1-.1.1-.3.1-.5v-31c0-.3 0-.5-.1-.7 0-.2-.1-.4-.3-.5-.2-.2-.4-.3-.7-.5-.3-.2-.7-.4-1.2-.6l-1.4-.6V193l6.8-1.5h1.6v4.9c.4-.7.8-1.3 1.4-1.9.6-.6 1.2-1.1 1.9-1.5.7-.4 1.5-.8 2.3-1 .8-.3 1.7-.4 2.6-.4 1.6 0 3 .3 4.3.9 1.3.6 2.3 1.4 3.2 2.5.9 1.1 1.6 2.4 2 3.9.5 1.5.7 3.3.7 5.2 0 1.9-.3 3.7-.9 5.3-.6 1.6-1.4 3.1-2.5 4.3-1.1 1.2-2.4 2.2-3.9 2.8-1.5.7-3.2 1-5 1-.6 0-1.1 0-1.7-.1-.6-.1-1.2-.2-1.7-.3-.6-.1-1.1-.3-1.5-.5-.5-.2-.8-.4-1.1-.6v11.9c0 .2 0 .3.1.4 0 .1.1.2.2.3s.3.1.5.2.5.1.9.2l3.1.7v1.3H108v-1.3z"/><path d="M150.4 217.4c-2.6 0-4.7-.8-6.2-2.4-1.5-1.6-2.2-3.8-2.2-6.8v-12.9c0-.2 0-.4-.1-.5 0-.1-.1-.2-.2-.3-.1-.1-.3-.2-.5-.3-.2-.1-.5-.2-.8-.3l-1.8-.7V192l7.3-.6h1.2c0 .7-.1 1.6-.2 2.8-.1 1.2-.1 2.5-.1 3.9v8.9c0 1.2.1 2.3.2 3.2.2 1 .4 1.8.8 2.5s.9 1.2 1.6 1.6c.7.4 1.5.6 2.6.6.9 0 1.6-.1 2.3-.4.7-.2 1.2-.5 1.7-.9s.9-.8 1.3-1.3.7-1 .9-1.6v-14.1c0-.4 0-.7-.1-.9 0-.2-.1-.4-.3-.5-.1-.1-.3-.2-.5-.3-.2-.1-.5-.2-.9-.4l-2.3-1v-1.1l7.5-1h1.6c-.1.5-.2 1.1-.2 1.7-.1.6-.1 1.3-.1 2s0 1.4-.1 2.1c0 .7 0 1.4 0 2v13.6c0 .4.1.7.3.8.2.2.6.3 1.1.6l1.9.7v1.1l-8.1 1.3v-5.6c-.2.5-.4 1.1-.9 1.8-.4.7-.9 1.3-1.6 1.8-.7.6-1.4 1.1-2.3 1.4-.6.5-1.6.7-2.8.7zm19.9-1.2l2-.5c.6-.1 1-.3 1.3-.4.3-.1.4-.3.4-.7v-17.7c0-.3 0-.5-.1-.7 0-.2-.1-.4-.3-.6-.1-.2-.4-.3-.6-.5-.3-.2-.7-.4-1.2-.6l-1.4-.6v-1.1l6.8-1.4h1.6v5.6c.4-.8.8-1.5 1.3-2.1.5-.7 1.1-1.3 1.8-1.8s1.4-.9 2.3-1.2c.8-.3 1.8-.4 2.8-.4 1.4 0 2.6.2 3.6.6 1 .4 1.9 1 2.6 1.8.7.8 1.2 1.7 1.6 2.8.4 1.1.5 2.3.5 3.7v14.3c0 .4.2.6.5.7.3.1.7.2 1.2.3l2 .5v1.2h-12.1v-1.3l2-.5c.4-.1.7-.2.9-.2.2-.1.4-.1.5-.2.1-.1.2-.1.2-.3 0-.1.1-.3.1-.4v-13.2c0-1-.1-1.9-.2-2.8-.1-.9-.4-1.7-.8-2.4s-1-1.2-1.7-1.7c-.7-.4-1.7-.6-2.8-.6-.8 0-1.6.1-2.2.4-.7.3-1.3.6-1.8 1s-1 .9-1.4 1.4-.7 1-.9 1.5v16.4c0 .4.2.6.5.7.3.1.7.2 1.2.3l2 .5v1.3h-12.1v-1.1h-.1z"/><path fill-rule="evenodd" d="M223 217.4c-.5-.4-1.1-1-1.9-1.9-.8-.9-1.7-2-2.6-3.3l-5-7c-.1-.2-.3-.4-.5-.6-.2-.2-.4-.4-.5-.6-.2-.1-.5-.3-.8-.3-.3-.1-.5-.1-.8-.2v-.5c.6-.1 1.1-.3 1.6-.5s.9-.5 1.4-.7l6.1-6.7c.3-.3.4-.6.2-.9-.1-.3-.6-.5-1.3-.7l-1.7-.6v-1.3h10.9v1.3l-2.3.6c-.4.1-.8.3-1.2.6-.4.3-.7.6-.9.8l-7.2 6.7 5.4 7.6c.5.7 1.1 1.4 1.6 2.1.6.7 1.1 1.3 1.6 1.9.5.6 1 1.1 1.5 1.5.5.4.9.8 1.2 1l1.6.4v1.3H223zm-21-1.3l2-.5c.2-.1.4-.1.6-.2.2 0 .4-.1.6-.2.2-.1.3-.2.4-.3.1-.1.2-.3.2-.5v-31.3c0-.4 0-.7-.1-1 0-.3-.1-.5-.2-.7-.1-.2-.3-.3-.5-.5s-.5-.3-.8-.4l-1.9-.9v-1.1l7.1-1.4h1.6c-.1.5-.1 1.1-.2 1.8s-.1 1.4-.1 2.1c0 .7 0 1.5-.1 2.2 0 .7 0 1.4 0 2.1v29c0 .2 0 .4.1.5 0 .1.1.2.2.2.1.1.3.1.5.2s.5.1.8.2l1.9.6v1.3H202v-1.2z"/><path d="M240.5 217.4c-1 0-1.9-.1-2.7-.4-.8-.3-1.5-.7-2.1-1.3-.6-.6-1-1.3-1.3-2.1-.3-.8-.5-1.8-.5-2.9v-16.8H231v-1.8c.5-.2 1-.4 1.6-.7.6-.3 1.2-.6 1.7-1 .2-.3.4-.7.7-1.3.3-.6.5-1.2.8-1.9.3-.7.5-1.3.7-1.9.2-.6.4-1.1.5-1.5h1.7v7.7h7.5v2.4h-7.5v16c0 .9.1 1.7.2 2.4.2.6.4 1.2.8 1.6.3.4.8.7 1.3.9.6.2 1.2.3 2 .3.5 0 1-.1 1.4-.2.4-.1.8-.3 1.1-.4.3-.2.7-.4.9-.6.3-.2.5-.4.7-.7l.5.7c-.7 1.2-1.7 2.1-2.9 2.7-1.2.5-2.6.8-4.2.8z"/><path fill-rule="evenodd" fill="#939598" d="M272.5 215.4c1 0 2-.2 2.8-.7.9-.5 1.6-1.1 2.2-2.1.6-.9 1.1-2.1 1.4-3.5.3-1.4.5-3 .5-4.9 0-1.4-.2-2.7-.5-4-.3-1.3-.8-2.4-1.3-3.4-.6-1-1.3-1.8-2.2-2.4-.9-.6-1.9-.9-3-.9-1 0-2 .2-2.8.7-.9.5-1.6 1.2-2.2 2.1-.6.9-1.1 2-1.4 3.4-.3 1.3-.5 2.9-.5 4.7 0 1.4.2 2.8.5 4.1.3 1.3.7 2.5 1.3 3.6.6 1 1.3 1.9 2.2 2.5.9.5 1.9.8 3 .8zm.1 2c-1.8 0-3.5-.3-5-.9-1.5-.6-2.9-1.5-4-2.6s-2-2.5-2.6-4.1c-.6-1.6-.9-3.4-.9-5.4 0-1.9.3-3.6.9-5.2.6-1.6 1.5-2.9 2.6-4.1 1.1-1.1 2.4-2 4-2.7 1.5-.6 3.2-1 5-1 1.8 0 3.5.3 5 .9 1.5.6 2.8 1.5 3.9 2.6s2 2.5 2.6 4.1c.6 1.6.9 3.4.9 5.3s-.3 3.6-.9 5.2c-.6 1.6-1.5 3-2.6 4.1-1.1 1.2-2.4 2.1-3.9 2.7-1.6.8-3.2 1.1-5 1.1zm29.3-2.4c1.2 0 2.3-.3 3.2-.8 1-.5 1.8-1.2 2.5-2.2.7-1 1.2-2.1 1.6-3.5.4-1.4.6-2.9.6-4.7 0-1.5-.1-2.9-.4-4.1-.3-1.2-.7-2.3-1.3-3.1-.6-.9-1.4-1.5-2.3-2-.9-.5-2-.7-3.3-.7-.5 0-1 .1-1.6.2-.5.1-1 .3-1.5.6s-.9.6-1.3.9c-.4.4-.8.8-1.1 1.2v16.5c.2.1.5.3.8.5.3.2.7.3 1.1.5.4.2.9.3 1.4.4.4.2 1 .3 1.6.3zm-13.5 14.7l2-.5c.3-.1.6-.1.8-.2.2-.1.4-.1.5-.2.1-.1.2-.2.3-.3.1-.1.1-.3.1-.5v-31c0-.3 0-.5-.1-.7 0-.2-.1-.4-.3-.5-.2-.2-.4-.3-.7-.5-.3-.2-.7-.4-1.2-.6l-1.4-.6V193l6.8-1.5h1.6l-.1 4.9c.4-.7.8-1.3 1.4-1.9.6-.6 1.2-1.1 1.9-1.5.7-.4 1.5-.8 2.3-1 .8-.3 1.7-.4 2.6-.4 1.6 0 3 .3 4.3.9 1.3.6 2.3 1.4 3.2 2.5.9 1.1 1.6 2.4 2 3.9.5 1.5.7 3.3.7 5.2 0 1.9-.3 3.7-.9 5.3-.6 1.6-1.4 3.1-2.5 4.3-1.1 1.2-2.4 2.2-3.9 2.8-1.5.7-3.2 1-5 1-.6 0-1.1 0-1.7-.1-.6-.1-1.2-.2-1.7-.3-.6-.1-1.1-.3-1.5-.5s-.8-.4-1.1-.6v11.9c0 .2 0 .3.1.4 0 .1.1.2.2.3.1.1.3.1.5.2s.5.1.9.2l3.1.7v1.3h-13.3v-1.3h.1z"/><path fill="#939598" d="M328.9 217.4c-1 0-1.9-.1-2.7-.4-.8-.3-1.5-.7-2.1-1.3-.6-.6-1-1.3-1.3-2.1s-.5-1.8-.5-2.9v-16.8h-2.9v-1.8c.5-.2 1-.4 1.6-.7.6-.3 1.2-.6 1.7-1 .2-.3.4-.7.7-1.3.3-.6.5-1.2.8-1.9.3-.7.5-1.3.7-1.9.2-.6.4-1.1.5-1.5h1.7v7.7h7.5v2.4H327v16c0 .9.1 1.7.2 2.4.2.6.4 1.2.8 1.6.3.4.8.7 1.3.9.6.2 1.2.3 2 .3.5 0 1-.1 1.4-.2.4-.1.8-.3 1.1-.4.3-.2.7-.4.9-.6.3-.2.5-.4.7-.7l.5.7c-.7 1.2-1.7 2.1-2.9 2.7-1.1.5-2.5.8-4.1.8z"/><path fill-rule="evenodd" fill="#939598" d="M338.4 216.2l2-.5c.2 0 .4-.1.6-.1.2-.1.4-.1.5-.2.2-.1.3-.2.4-.4.1-.1.2-.3.2-.5V197c0-.3 0-.5-.1-.7 0-.2-.1-.4-.3-.6-.1-.2-.4-.3-.6-.5-.3-.2-.7-.4-1.2-.6l-1.5-.6v-1.1l6.8-1.4h1.6v23c0 .2 0 .4.1.5 0 .1.1.2.2.3.1.1.3.1.5.2s.5.1.8.2l2 .5v1.2h-12.1v-1.2h.1zm5.9-31.9c-.4 0-.7-.1-1.1-.3-.3-.2-.6-.4-.9-.8-.2-.3-.4-.7-.6-1.1-.1-.4-.2-.9-.2-1.4 0-.5.1-.9.2-1.4.1-.4.3-.8.6-1.1.2-.3.5-.6.9-.8.3-.2.7-.3 1.1-.3.4 0 .7.1 1.1.3.3.2.6.4.9.8.3.3.4.7.6 1.1.1.4.2.9.2 1.4 0 .5-.1 1-.2 1.4-.1.4-.4.8-.6 1.1-.3.3-.5.6-.9.8-.3.2-.7.3-1.1.3z"/><path fill="#939598" d="M353.6 216.2l2-.5c.5-.1.9-.2 1.2-.3.3-.1.5-.4.5-.7V197c0-.3 0-.5-.1-.7 0-.2-.1-.4-.3-.6-.1-.2-.4-.3-.6-.5-.3-.2-.7-.4-1.2-.6 0 0-.1-.1-.3-.1-.2-.1-.4-.2-.6-.3-.2-.1-.4-.2-.5-.2v-1.1l6.8-1.4h1.6v5.6c.3-.7.8-1.4 1.3-2.1.5-.7 1.1-1.3 1.8-1.8s1.5-.9 2.3-1.2c.8-.3 1.8-.4 2.8-.4 2.1 0 3.8.5 5.1 1.4 1.3.9 2.1 2.4 2.6 4.5h.3c.4-.8.8-1.6 1.4-2.3.5-.7 1.1-1.3 1.8-1.9.7-.5 1.4-1 2.3-1.3.8-.3 1.7-.5 2.7-.5 1.4 0 2.6.2 3.6.6 1 .4 1.9 1 2.5 1.8.7.8 1.2 1.7 1.5 2.8.3 1.1.5 2.3.5 3.6v14.2c0 .2 0 .3.1.4.1.1.2.2.3.3.1.1.3.1.5.2.2 0 .4.1.7.2l2 .5v1.2h-12.1V216l2-.5c.2-.1.4-.1.6-.1.2 0 .4-.1.6-.2.2-.1.3-.2.4-.3.1-.1.2-.3.2-.4v-13.1c0-1-.1-1.9-.2-2.8-.1-.9-.4-1.7-.8-2.4s-.9-1.2-1.6-1.7c-.7-.4-1.6-.6-2.8-.6-.7 0-1.4.2-2.1.5-.6.3-1.2.7-1.7 1.2s-.9 1-1.3 1.5-.6 1-.8 1.5l-.1 1.2v14.7c0 .2 0 .3.1.4 0 .1.1.2.2.3.1.1.3.1.5.2.2 0 .5.1.8.2l2 .5v1.3h-12.2v-1.3l2-.5c.4-.1.7-.2.9-.2.2 0 .4-.1.5-.2.1-.1.2-.2.2-.3 0-.1.1-.3.1-.4v-13.3c0-1-.1-1.9-.2-2.8-.1-.9-.3-1.7-.7-2.4-.4-.7-.9-1.2-1.6-1.7-.7-.4-1.7-.6-2.8-.6-.6 0-1.2.1-1.7.2-.6.1-1.1.3-1.6.7-.5.3-1 .8-1.5 1.3-.5.6-1 1.3-1.4 2.1v16.4c0 .2 0 .3 0 .4 0 .1 0 .2.1.3.1.1.2.2.3.2.2.1.4.1.6.2l2.4.5v1.4h-12v-1.2h.1z"/><path fill-rule="evenodd" fill="#939598" d="M402.3 216.2l2-.5c.2 0 .4-.1.6-.1.2-.1.4-.1.5-.2.2-.1.3-.2.4-.4.1-.1.2-.3.2-.5V197c0-.3 0-.5-.1-.7 0-.2-.1-.4-.3-.6-.1-.2-.4-.3-.6-.5-.3-.2-.7-.4-1.2-.6l-1.5-.6v-1.1l6.8-1.4h1.6v23c0 .2 0 .4.1.5 0 .1.1.2.2.3.1.1.3.1.5.2s.5.1.8.2l2 .5v1.2h-12.1v-1.2h.1zm5.9-31.9c-.4 0-.7-.1-1.1-.3-.3-.2-.6-.4-.9-.8-.2-.3-.4-.7-.6-1.1-.1-.4-.2-.9-.2-1.4 0-.5.1-.9.2-1.4.1-.4.3-.8.6-1.1.2-.3.5-.6.9-.8.3-.2.7-.3 1.1-.3.4 0 .8.1 1.1.3.3.2.6.4.9.8.2.3.4.7.6 1.1.1.4.2.9.2 1.4 0 .5-.1 1-.2 1.4-.1.4-.3.8-.6 1.1-.3.3-.6.6-.9.8-.3.2-.7.3-1.1.3zm25.8 16.8c.1-.2.2-.4.2-.7 0-.3.1-.6.1-.8 0-2-.4-3.5-1.3-4.6-.8-1-2-1.5-3.5-1.5-1 0-1.9.2-2.7.7-.8.5-1.5 1.1-2.1 1.8-.6.8-1 1.6-1.4 2.6-.3 1-.6 2-.6 3l11.3-.5zm-5.1 16.3c-1.7 0-3.3-.3-4.6-1-1.4-.7-2.5-1.6-3.5-2.7s-1.7-2.5-2.2-4.1-.8-3.3-.8-5.1c0-1.8.3-3.5.9-5.1.6-1.6 1.4-3 2.4-4.1 1.1-1.2 2.3-2.1 3.8-2.7 1.5-.7 3.1-1 4.9-1 1.3 0 2.5.2 3.7.6 1.1.4 2.1 1 2.9 1.7.8.8 1.5 1.7 1.9 2.8.5 1.1.7 2.3.7 3.7 0 .2 0 .4 0 .7 0 .3-.1.5-.1.8 0 .3-.1.6-.1.8 0 .3-.1.5-.1.7l-16.2-.4v1c0 3.7.8 6.4 2.4 8.3 1.6 1.8 3.8 2.8 6.7 2.8 1.4 0 2.7-.3 3.8-1 1.2-.6 2.1-1.5 2.9-2.6l.5.6c-.5 1-1 1.9-1.6 2.6-.6.7-1.3 1.3-2.1 1.6-.8.4-1.7.7-2.7.9-1 .1-2.2.2-3.5.2zm14.8-1.2l2-.5c.2-.1.5-.1.7-.2.2 0 .4-.1.5-.2.1-.1.3-.2.3-.3.1-.1.1-.3.1-.4v-17.7c0-.3 0-.5-.1-.7 0-.2-.1-.4-.3-.6-.1-.2-.4-.3-.6-.5-.3-.2-.7-.4-1.2-.6l-1.4-.6v-1.1l6.8-1.4h1.6v5.9c.3-.8.7-1.6 1.2-2.3.5-.7 1-1.3 1.6-1.9.6-.5 1.2-.9 1.9-1.2.7-.3 1.4-.4 2.1-.4.4 0 .8 0 1.2.1.4.1.7.2 1 .3.3.1.5.3.7.5.2.2.3.4.3.5 0 .3-.1.7-.4 1-.3.3-.6.7-.9 1s-.6.6-.9.8c-.3.2-.4.3-.4.3-.1-.2-.2-.4-.3-.6-.1-.2-.3-.5-.5-.7-.2-.2-.4-.4-.7-.6-.3-.2-.6-.2-1-.2-.5 0-1 .1-1.5.3-.5.2-1 .4-1.5.7-.5.3-.9.7-1.2 1-.3.4-.6.8-.7 1.2v17c0 .4.2.7.5.8.3.2.7.3 1.3.4l3.8.7v1.4h-14v-1.2z"/><path fill="#939598" d="M473.3 217.4c-1 0-1.9-.1-2.7-.4-.8-.3-1.5-.7-2.1-1.3-.6-.6-1-1.3-1.3-2.1-.3-.8-.5-1.8-.5-2.9v-16.8h-2.9v-1.8c.5-.2 1-.4 1.6-.7.6-.3 1.2-.6 1.7-1 .2-.3.4-.7.7-1.3.3-.6.5-1.2.8-1.9.3-.7.5-1.3.7-1.9.2-.6.4-1.1.5-1.5h1.7v7.7h7.5v2.4h-7.5v16c0 .9.1 1.7.2 2.4.2.6.4 1.2.8 1.6.3.4.8.7 1.3.9.6.2 1.2.3 2 .3.5 0 1-.1 1.4-.2.4-.1.8-.3 1.1-.4.3-.2.7-.4.9-.6.3-.2.5-.4.7-.7l.5.7c-.7 1.2-1.7 2.1-2.9 2.7-1.2.5-2.6.8-4.2.8z"/><path fill-rule="evenodd" fill="#939598" d="M492.3 179.1c.2 0 .4 0 .6-.1.1-.1.3-.2.3-.3.1-.1.2-.3.2-.5s.1-.4.1-.7c0-.2 0-.4 0-.6 0-.2-.1-.3-.1-.5-.1-.1-.2-.2-.3-.3-.1-.1-.3-.1-.5-.1h-.1c-.1 0-.2 0-.3 0-.1 0-.2 0-.3.1v3h.4zm-3.4 3l.7-.1c.1 0 .1 0 .2 0 0 0 .1 0 .1 0s0 0 0-.1c0 0 0-.1 0-.1V176c0-.1 0-.1 0-.2 0 0-.1 0-.3-.1l-.8-.2v-.4h3.4c.4 0 .8 0 1.2.1.3.1.7.2.9.4.3.2.4.4.6.6.1.2.2.5.2.9 0 .2-.1.5-.1.7-.1.2-.2.4-.4.6-.2.2-.4.3-.6.5-.2.1-.5.2-.7.3.1 0 .1.1.2.1s.1.1.2.2.1.1.2.2.2.2.3.4l.8 1c.1.2.3.4.4.5.1.1.3.2.4.3l.8.2v.4h-2c-.1-.1-.3-.2-.5-.5-.2-.2-.4-.5-.6-.8l-1-1.7h-.6v2.2c0 .1 0 .1.1.2 0 0 .1 0 .3.1l.8.1v.4h-3.9v-.4h-.3zm3.6 2.6c.8 0 1.5-.2 2.2-.5.7-.3 1.2-.7 1.7-1.3.5-.5.9-1.1 1.1-1.9.3-.7.4-1.5.4-2.2 0-.8-.1-1.5-.4-2.2-.3-.7-.6-1.3-1.1-1.9-.5-.5-1.1-1-1.7-1.3-.7-.3-1.4-.5-2.2-.5-.8 0-1.5.2-2.2.5-.7.3-1.2.7-1.7 1.3-.5.5-.9 1.2-1.1 1.9-.3.7-.4 1.5-.4 2.2 0 .8.1 1.5.4 2.2.3.7.6 1.3 1.1 1.9.5.5 1.1 1 1.7 1.3.7.3 1.4.5 2.2.5zm0 .9c-1 0-1.9-.2-2.8-.5-.9-.4-1.6-.8-2.3-1.4-.7-.6-1.2-1.3-1.6-2.1-.4-.8-.6-1.7-.6-2.6 0-.6.1-1.2.3-1.8.2-.6.4-1.1.7-1.6.3-.5.7-1 1.1-1.4.4-.4.9-.8 1.5-1.1.5-.3 1.1-.5 1.7-.7.6-.2 1.2-.2 1.9-.2s1.3.1 1.9.2c.6.2 1.2.4 1.7.7.5.3 1 .6 1.5 1.1.4.4.8.9 1.1 1.4.3.5.6 1 .7 1.6.2.6.3 1.2.3 1.8 0 .9-.2 1.8-.6 2.6-.4.8-.9 1.5-1.6 2.1-.7.6-1.4 1.1-2.3 1.4-.6.3-1.6.5-2.6.5z"/></svg>