<svg xmlns="http://www.w3.org/2000/svg" viewBox="0 0 1000 1000" enable-background="new 0 0 1000 1000"><g fill="#1D1D1B"><path d="M43.4 718.2v128.5h35.7V772c0-13.8.8-19.2 3.4-23.4 2.1-3.4 5.5-4.9 10.2-4.9 8.9 0 11.2 3.1 11.7 14.8l.3 7v81.2h35.7V772c0-13 .5-18.2 2.3-22.4 1.6-3.9 5.7-6 10.7-6 7 0 10.4 3.1 11.2 10.1.3 3.1.3 8.1.3 12.7v80.1h36V763c0-15.3-.5-21.1-2.3-27.7-1.3-5.3-4.2-9.7-8.1-12.9-5.5-4.5-13-6.8-22.4-6.8-15.9 0-25 5.8-31.8 20.2-4.2-14.7-12-20.2-27.9-20.2-15.1 0-23.7 5.5-31 20.2v-17.6h-34"/><path fill-rule="evenodd" clip-rule="evenodd" d="M288.1 767.7h-33.6c.5-20.1 5.5-28.4 16.7-28.4 10.9 0 16.9 8.9 16.9 24.8 0 .8 0 2.1 0 3.6m33.6 20.6c0-26.9-1.6-35.2-9.4-49.3-7.8-14.6-23.5-23.5-41.7-23.5-33.4 0-53.4 25.6-53.4 68.8 0 41.2 19.6 64.9 53.7 64.9 28.2 0 44.6-14.1 50.8-44.8l-31.8-2.1c-2.1 15.9-7.3 22.2-18.3 22.2-12.3 0-17.5-8.6-17.5-29.7 0-1.3 0-3.6.3-6.5h67.3z"/><path d="M337.6 672.8v173.9h35.7v-81.4c0-15.9 4.2-21.6 15.4-21.6 10.4 0 12.8 3.6 12.8 20.8v82.2h35.7v-82.2c0-16.1-.3-20.8-2.1-27.9-1.3-5-3.7-9.2-7-12.6-5.5-5.8-13-8.4-23.2-8.4-14.9 0-23.7 4.5-31.5 16.3v-59.1h-35.8m119.8 45.4v128.5h35.7v-55.5c0-26.9 8.3-39.6 26.3-39.6 1.6 0 2.9.3 6 .5v-34.9c-2.9-.5-4.2-.8-6.3-.8-7.3 0-14.3 3.4-19.3 9.1-5 6-7.3 10.9-10.9 23.7v-31h-31.5m82.2 0l32.3 128.5h29.2l16.2-87.3 16.4 87.3h30L696 718.2h-28.1l-17.5 78.2-11.5-78.2H604l-14.3 78.2-15.2-78.2h-34.9"/><path fill-rule="evenodd" clip-rule="evenodd" d="M769.5 767.7h-33.6c.5-20.1 5.5-28.4 16.7-28.4 11 0 16.9 8.9 16.9 24.8 0 .8 0 2.1 0 3.6m33.7 20.6c0-26.9-1.6-35.2-9.4-49.3-7.8-14.6-23.5-23.5-41.7-23.5-33.4 0-53.4 25.6-53.4 68.8 0 41.2 19.5 64.9 53.7 64.9 28.2 0 44.6-14.1 50.8-44.8l-31.8-2.1c-2.1 15.9-7.3 22.2-18.2 22.2-12.3 0-17.5-8.6-17.5-29.7 0-1.3 0-3.6.3-6.5h67.2z"/><path d="M820.6 718.2v128.5h35.7v-55.5c0-26.9 8.3-39.6 26.3-39.6 1.6 0 2.9.3 6 .5v-34.9c-2.9-.5-4.2-.8-6.3-.8-7.3 0-14.3 3.4-19.3 9.1-4.9 6-7.3 10.9-10.9 23.7v-31h-31.5m102.9-37.8l-2.9 37.8h-16.2v28.2h14.3v51.1c0 22.4.3 25.3 3.7 33.4 1.6 3.9 3.9 7.3 7 9.9 6.5 5.7 15.9 8.6 27.9 8.6 7.6 0 11.7-.5 21.9-2.6v-27.4c-5.2.3-6.8.5-10.2.5-7.3 0-11.5-1.8-13.6-5.5-1-2.4-1.6-5-1.8-8.1 0-2.6 0-7 0-12.8v-47.2h23.7v-28.2h-23.7v-40.7l-30.1 3"/></g><path fill="#5DB037" d="M408.3 187.7l-91.8 159.1 91.8 159.1h183.4l91.8-159.1-91.8-159.1z"/><path fill="#fff" d="M594.8 324.8c0-27.5-14.5-45.8-39-45.8-17 0-29.1 5.4-44.7 16.4-6.7-10.5-17.5-16.4-31.5-16.4-14.8 0-26.9 4.3-39.3 12.9-2.4-6.7-7-11.6-16.9-11.6-11.8 0-18 6.2-18 17.2v98.9c0 11.3 6.5 18.1 18.6 18.1 12.1 0 18.6-6.7 18.6-18.1V320c8.4-4.3 15.9-7.6 23.7-7.6 11 0 15.4 6.5 15.4 17.3v66.8c0 11.3 6.5 18.1 18.6 18.1 12.1 0 18.6-6.7 18.6-18.1v-76.6c8.3-4.3 15.9-7.5 23.7-7.5 11 0 15.4 6.5 15.4 17.3v66.8c0 11.3 6.5 18.1 18.6 18.1 12.1 0 18.6-6.7 18.6-18.1v-71.7z"/></svg>