<svg version="1.1" id="Ebene_1" xmlns="http://www.w3.org/2000/svg" xmlns:xlink="http://www.w3.org/1999/xlink" x="0px" y="0px" viewBox="0 0 141.73 56.69" style="enable-background=new 0 0 141.73 56.69" xml:space="preserve">
<g>
	<g>
		<rect x="12.001" y="14.654" width="28.346" height="28.346"/>
		<polyline fill="#C32E2B" points="12.049,14.654 34.132,14.654 34.132,17.729 37.301,17.729 37.301,40.01 26.992,40.01 26.992,43
			12,43 12.001,14.654"/>
		<rect x="26.902" y="29.924" width="5.896" height="5.961"/>
		<polygon points="19.442,35.885 19.442,23.98 32.798,23.98 32.798,26.963 22.408,26.963 22.408,35.885"/>
		<g>
			<path d="M52.254,33.419c0-0.364,0.028-0.91,0.098-1.302h-0.028c-0.378,0.854-1.19,1.441-2.268,1.441
				c-1.708,0-2.562-1.26-2.562-3.275c0-2.395,1.386-3.935,3.64-3.935c0.336,0,0.672,0.028,1.05,0.057v-3.206h1.484v10.22H52.254z
				 M52.184,27.665c-0.378-0.084-0.742-0.126-1.106-0.126c-1.19,0-2.002,0.728-2.002,2.604c0,1.4,0.434,2.185,1.386,2.185
				c1.106,0,1.722-1.316,1.722-2.506V27.665z"/>
			<path d="M58.4,33.517c-0.392,0-0.686-0.014-1.05-0.084v3.402h-1.498V26.461h1.414c0,0.364-0.014,0.924-0.084,1.302h0.028
				c0.392-0.882,1.19-1.441,2.254-1.441c1.652,0,2.562,1.176,2.562,3.275C62.026,32.047,60.724,33.517,58.4,33.517z M59.072,27.553
				c-1.12,0-1.722,1.316-1.722,2.506v2.143c0.322,0.098,0.672,0.14,1.092,0.14c1.19,0,2.002-0.728,2.002-2.604
				C60.444,28.337,60.01,27.553,59.072,27.553z"/>
			<path d="M68.074,33.419c0-0.364,0.028-0.966,0.098-1.358l-0.014-0.014c-0.406,0.896-1.246,1.512-2.422,1.512
				c-1.582,0-2.072-0.993-2.072-2.226v-4.872h1.484v4.48c0,0.867,0.238,1.371,1.036,1.371c1.05,0,1.82-1.105,1.82-2.491v-3.36h1.498
				v6.958H68.074z"/>
			<path d="M76.039,33.419v-4.48c0-0.867-0.237-1.371-1.035-1.371c-1.051,0-1.82,1.105-1.82,2.491v3.36h-1.498v-6.958h1.428
				c0,0.364-0.027,0.966-0.098,1.358l0.014,0.014c0.406-0.896,1.246-1.512,2.422-1.512c1.582,0,2.072,0.994,2.072,2.226v4.872
				H76.039z"/>
			<path d="M83.586,33.419l-2.381-3.528v3.528h-1.498v-10.22h1.498v6.244l2.254-2.982h1.834l-2.575,3.178l2.772,3.78H83.586z"/>
			<path d="M89.031,33.545c-1.484,0-1.932-0.574-1.932-2.128v-3.794h-1.33v-1.162h1.33v-2.212l1.484-0.406v2.618h1.834v1.162h-1.82
				v3.332c0,1.036,0.209,1.315,0.91,1.315c0.308,0,0.644-0.042,0.91-0.111v1.231C90.012,33.475,89.493,33.545,89.031,33.545z"/>
			<path d="M94.184,32.565c0,0.546-0.448,0.993-0.994,0.993c-0.547,0-0.994-0.447-0.994-0.993c0-0.532,0.447-0.98,0.994-0.98
				C93.735,31.585,94.184,32.033,94.184,32.565z"/>
		</g>
		<g>
			<path d="M98.621,33.419h-0.924l-2.646-6.958h1.008l1.736,4.858c0.154,0.42,0.267,0.77,0.379,1.161h0.014
				c0.111-0.363,0.238-0.756,0.378-1.119l1.778-4.9h0.979L98.621,33.419z"/>
			<path d="M107.581,29.611h-4.718c-0.084,2.254,0.77,3.178,2.395,3.178c0.728,0,1.512-0.196,2.016-0.448l0.084,0.784
				c-0.631,0.252-1.387,0.406-2.254,0.406c-2.072,0-3.178-1.12-3.178-3.57c0-2.072,1.119-3.612,3.01-3.612
				c1.89,0,2.674,1.303,2.674,2.801C107.609,29.247,107.609,29.415,107.581,29.611z M104.879,27.021
				c-1.035,0-1.764,0.742-1.959,1.904h3.752C106.699,27.805,106.014,27.021,104.879,27.021z"/>
			<path d="M112.887,27.203c-1.582-0.252-2.338,1.021-2.338,3.443v2.772h-0.882v-6.958h0.896c0,0.49-0.056,1.204-0.183,1.82
				l0.028,0.014c0.267-1.036,0.994-2.128,2.521-1.946L112.887,27.203z"/>
			<path d="M114.623,33.419v-10.22h0.883v10.22H114.623z"/>
			<path d="M121.889,33.419c0-0.56,0.015-1.12,0.084-1.526l-0.027-0.014c-0.336,0.91-1.246,1.652-2.465,1.652
				c-1.077,0-1.889-0.546-1.889-1.652c0-1.414,1.483-2.436,4.283-2.436v-0.616c0-1.134-0.406-1.765-1.652-1.765
				c-0.672,0-1.512,0.211-2.127,0.616l-0.099-0.798c0.658-0.308,1.456-0.532,2.394-0.532c1.849,0,2.367,0.952,2.367,2.24v2.674
				c0,0.714,0.014,1.526,0.027,2.156H121.889z M121.875,30.115c-2.786,0-3.388,0.896-3.388,1.582c0,0.686,0.476,1.105,1.204,1.105
				c1.316,0,2.184-1.315,2.184-2.59V30.115z"/>
			<path d="M127.629,37.101c-1.75,0-2.884-0.728-2.884-2.044c0-0.896,0.56-1.54,1.231-1.89c-0.434-0.21-0.699-0.56-0.699-1.008
				c0-0.462,0.266-0.868,0.756-1.092c-0.7-0.421-1.036-1.135-1.036-2.044c0-1.456,1.134-2.675,2.996-2.675
				c0.364,0,0.644,0.042,1.008,0.112h2.366v0.7h-1.316c0.448,0.336,0.729,0.938,0.729,1.666c0,1.47-1.008,2.632-3.023,2.632
				c-0.351,0-0.757-0.056-1.022-0.126c-0.378,0.154-0.546,0.406-0.546,0.672c0,0.434,0.42,0.63,1.287,0.63h1.429
				c1.512,0,2.338,0.742,2.338,1.933C131.241,36.022,129.715,37.101,127.629,37.101z M128.665,33.419h-1.96
				c-0.645,0.336-1.078,0.868-1.078,1.484c0,0.966,0.938,1.456,2.156,1.456c1.609,0,2.563-0.687,2.563-1.681
				C130.346,33.881,129.785,33.419,128.665,33.419z M127.938,27.035c-1.288,0-2.045,0.798-2.045,1.89
				c0,1.204,0.729,1.848,1.988,1.848c1.219,0,2.002-0.657,2.002-1.848C129.883,27.735,129.17,27.035,127.938,27.035z"/>
		</g>
	</g>
</g>
</svg>
