<?xml version="1.0" encoding="utf-8"?>
<!-- Generator: Adobe Illustrator 18.0.0, SVG Export Plug-In . SVG Version: 6.00 Build 0)  -->
<!DOCTYPE svg PUBLIC "-//W3C//DTD SVG 1.1//EN" "http://www.w3.org/Graphics/SVG/1.1/DTD/svg11.dtd">
<svg version="1.1" id="Ebene_1" xmlns="http://www.w3.org/2000/svg" xmlns:xlink="http://www.w3.org/1999/xlink" x="0px" y="0px"
	 viewBox="352 152 256 256" enable-background="new 352 152 256 256" xml:space="preserve">
<rect x="359.5" y="254.8" width="57" height="57"/>
<polyline fill="#C32E2B" points="359.6,254.8 404,254.8 404,261 410.4,261 410.4,305.7 389.7,305.7 389.7,311.8 359.5,311.8 
	359.5,254.8 "/>
<rect x="389.5" y="285.5" width="11.9" height="12"/>
<polygon points="374.5,297.5 374.5,273.5 401.4,273.5 401.4,279.5 380.5,279.5 380.5,297.5 "/>
<path d="M440.5,292.5c0-0.7,0.1-1.8,0.2-2.6h-0.1c-0.8,1.7-2.4,2.9-4.6,2.9c-3.4,0-5.2-2.5-5.2-6.6c0-4.8,2.8-7.9,7.3-7.9
	c0.7,0,1.4,0.1,2.1,0.1v-6.4h3v20.5H440.5L440.5,292.5z M440.3,280.9c-0.8-0.2-1.5-0.3-2.2-0.3c-2.4,0-4,1.5-4,5.2
	c0,2.8,0.9,4.4,2.8,4.4c2.2,0,3.5-2.6,3.5-5V280.9L440.3,280.9z M452.8,292.7c-0.8,0-1.4,0-2.1-0.2v6.8h-3v-20.9h2.8
	c0,0.7,0,1.9-0.2,2.6h0.1c0.8-1.8,2.4-2.9,4.5-2.9c3.3,0,5.2,2.4,5.2,6.6C460.1,289.7,457.5,292.7,452.8,292.7L452.8,292.7z
	 M454.2,280.7c-2.3,0-3.5,2.6-3.5,5v4.3c0.6,0.2,1.4,0.3,2.2,0.3c2.4,0,4-1.5,4-5.2C456.9,282.3,456.1,280.7,454.2,280.7
	L454.2,280.7z M472.3,292.5c0-0.7,0.1-1.9,0.2-2.7l0,0c-0.8,1.8-2.5,3-4.9,3c-3.2,0-4.2-2-4.2-4.5v-9.8h3v9c0,1.7,0.5,2.8,2.1,2.8
	c2.1,0,3.7-2.2,3.7-5v-6.8h3v14H472.3L472.3,292.5z M488.3,292.5v-9c0-1.7-0.5-2.8-2.1-2.8c-2.1,0-3.7,2.2-3.7,5v6.8h-3v-14h2.9
	c0,0.7-0.1,1.9-0.2,2.7l0,0c0.8-1.8,2.5-3,4.9-3c3.2,0,4.2,2,4.2,4.5v9.8H488.3L488.3,292.5z M503.5,292.5l-4.8-7.1v7.1h-3v-20.5h3
	v12.6l4.5-6h3.7l-5.2,6.4l5.6,7.6H503.5L503.5,292.5z M514.4,292.8c-3,0-3.9-1.2-3.9-4.3v-7.6h-2.7v-2.3h2.7v-4.4l3-0.8v5.3h3.7v2.3
	h-3.7v6.7c0,2.1,0.4,2.6,1.8,2.6c0.6,0,1.3-0.1,1.8-0.2v2.5C516.4,292.6,515.4,292.8,514.4,292.8L514.4,292.8z M524.8,290.8
	c0,1.1-0.9,2-2,2c-1.1,0-2-0.9-2-2c0-1.1,0.9-2,2-2C523.9,288.8,524.8,289.7,524.8,290.8z M533.7,292.5h-1.9l-5.3-14h2l3.5,9.8
	c0.3,0.8,0.5,1.5,0.8,2.3h0c0.2-0.7,0.5-1.5,0.8-2.2l3.6-9.9h2L533.7,292.5L533.7,292.5z M551.7,284.8h-9.5
	c-0.2,4.5,1.5,6.4,4.8,6.4c1.5,0,3-0.4,4.1-0.9l0.2,1.6c-1.3,0.5-2.8,0.8-4.5,0.8c-4.2,0-6.4-2.3-6.4-7.2c0-4.2,2.2-7.3,6.1-7.3
	c3.8,0,5.4,2.6,5.4,5.6C551.8,284.1,551.8,284.4,551.7,284.8z M546.3,279.6c-2.1,0-3.5,1.5-3.9,3.8h7.5
	C549.9,281.2,548.6,279.6,546.3,279.6z M562.4,280c-3.2-0.5-4.7,2.1-4.7,6.9v5.6h-1.8v-14h1.8c0,1-0.1,2.4-0.4,3.7l0.1,0
	c0.5-2.1,2-4.3,5.1-3.9L562.4,280z M565.9,292.5v-20.5h1.8v20.5H565.9z M580.5,292.5c0-1.1,0-2.3,0.2-3.1l-0.1,0
	c-0.7,1.8-2.5,3.3-5,3.3c-2.2,0-3.8-1.1-3.8-3.3c0-2.8,3-4.9,8.6-4.9v-1.2c0-2.3-0.8-3.5-3.3-3.5c-1.4,0-3,0.4-4.3,1.2l-0.2-1.6
	c1.3-0.6,2.9-1.1,4.8-1.1c3.7,0,4.8,1.9,4.8,4.5v5.4c0,1.4,0,3.1,0.1,4.3L580.5,292.5L580.5,292.5z M580.5,285.9
	c-5.6,0-6.8,1.8-6.8,3.2s1,2.2,2.4,2.2c2.6,0,4.4-2.6,4.4-5.2V285.9z M592,299.9c-3.5,0-5.8-1.5-5.8-4.1c0-1.8,1.1-3.1,2.5-3.8
	c-0.9-0.4-1.4-1.1-1.4-2c0-0.9,0.5-1.7,1.5-2.2c-1.4-0.8-2.1-2.3-2.1-4.1c0-2.9,2.3-5.4,6-5.4c0.7,0,1.3,0.1,2,0.2h4.8v1.4h-2.6
	c0.9,0.7,1.5,1.9,1.5,3.3c0,3-2,5.3-6.1,5.3c-0.7,0-1.5-0.1-2.1-0.3c-0.8,0.3-1.1,0.8-1.1,1.4c0,0.9,0.8,1.3,2.6,1.3h2.9
	c3,0,4.7,1.5,4.7,3.9C599.3,297.7,596.2,299.9,592,299.9L592,299.9z M594.1,292.5h-3.9c-1.3,0.7-2.2,1.7-2.2,3
	c0,1.9,1.9,2.9,4.3,2.9c3.2,0,5.2-1.4,5.2-3.4C597.5,293.4,596.4,292.5,594.1,292.5L594.1,292.5z M592.6,279.7
	c-2.6,0-4.1,1.6-4.1,3.8c0,2.4,1.5,3.7,4,3.7c2.5,0,4-1.3,4-3.7C596.6,281.1,595.1,279.7,592.6,279.7z"/>
</svg>
