<?xml version="1.0" encoding="utf-8"?>
<!DOCTYPE svg PUBLIC "-//W3C//DTD SVG 1.1//EN" "http://www.w3.org/Graphics/SVG/1.1/DTD/svg11.dtd" [
	<!ENTITY st0 "fill:#100E0F;">
]>
<svg version="1.1" id="Layer_1" xmlns="http://www.w3.org/2000/svg" xmlns:xlink="http://www.w3.org/1999/xlink" x="0px" y="0px"
	 viewBox="226.841 30 500 500" style="enable-background:new 226.841 30 500 500;" xml:space="preserve">
<g>
	<path style="&st0;" d="M336.476,270.91h-39.235c-1.012,0-1.834,0.822-1.834,1.835v19.182c0,1.012,0.822,1.837,1.834,1.837h15.306
		v23.833c0,0-3.437,1.172-12.938,1.172c-11.21,0-26.869-4.096-26.869-38.53c0-34.441,16.305-38.973,31.615-38.973
		c13.251,0,18.96,2.332,22.593,3.457c1.141,0.349,2.197-0.787,2.197-1.8l4.377-18.534c0-0.474-0.16-1.045-0.701-1.432
		c-1.476-1.052-10.476-6.088-33.211-6.088c-26.193,0-53.06,11.144-53.06,64.713c0,53.571,30.761,61.553,56.683,61.553
		c21.463,0,34.484-9.172,34.484-9.172c0.537-0.297,0.594-1.046,0.594-1.39v-59.828C338.308,271.732,337.488,270.91,336.476,270.91z"
		/>
	<path style="&st0;" d="M538.676,223.285c0-1.021-0.809-1.844-1.821-1.844h-22.092c-1.009,0-1.83,0.823-1.83,1.844
		c0,0.005,0.006,42.693,0.006,42.693h-34.435v-42.693c0-1.021-0.813-1.844-1.823-1.844H454.59c-1.005,0-1.825,0.823-1.825,1.844
		v115.6c0,1.02,0.82,1.849,1.825,1.849h22.091c1.01,0,1.823-0.83,1.823-1.849v-49.446h34.435c0,0-0.06,49.442-0.06,49.446
		c0,1.02,0.82,1.849,1.83,1.849h22.143c1.012,0,1.821-0.83,1.823-1.849L538.676,223.285L538.676,223.285z"/>
	<g>
		<g>
			<path style="&st0;" d="M378.164,238.455c0-7.955-6.378-14.382-14.246-14.382c-7.86,0-14.242,6.428-14.242,14.382
				c0,7.947,6.382,14.393,14.242,14.393C371.786,252.847,378.164,246.401,378.164,238.455z"/>
			<path style="&st0;" d="M376.584,314.5c0-2.962,0-53.361,0-53.361c0-1.013-0.818-1.841-1.828-1.841h-22.022
				c-1.01,0-1.914,1.042-1.914,2.055c0,0,0,64.21,0,76.451c0,2.246,1.4,2.915,3.212,2.915c0,0,9.399,0,19.841,0
				c2.177,0,2.711-1.069,2.711-2.951C376.584,333.67,376.584,317.616,376.584,314.5z"/>
		</g>
	</g>
	<path style="&st0;" d="M622.635,259.472h-21.923c-1.005,0-1.824,0.829-1.824,1.848v56.682c0,0-5.57,4.075-13.474,4.075
		s-10.002-3.587-10.002-11.326c0-7.75,0-49.431,0-49.431c0-1.02-0.817-1.848-1.823-1.848H551.34c-1.004,0-1.827,0.829-1.827,1.848
		c0,0,0,30.186,0,53.173c0,22.99,12.813,28.614,30.439,28.614c14.46,0,26.119-7.989,26.119-7.989s0.555,4.21,0.806,4.709
		c0.252,0.498,0.906,1,1.613,1l14.155-0.062c1.004,0,1.827-0.83,1.827-1.846l-0.007-77.6
		C624.464,260.3,623.645,259.472,622.635,259.472z"/>
	<path style="&st0;" d="M682.552,256.875c-12.451,0-20.92,5.555-20.92,5.555v-39.145c0-1.021-0.816-1.844-1.823-1.844h-22.154
		c-1.007,0-1.826,0.823-1.826,1.844v115.6c0,1.02,0.819,1.849,1.829,1.849c0.002,0,15.366,0,15.371,0
		c0.692,0,1.216-0.357,1.603-0.982c0.382-0.621,0.933-5.33,0.933-5.33s9.058,8.585,26.208,8.585
		c20.133,0,31.679-10.212,31.679-45.844C713.452,261.531,695.012,256.875,682.552,256.875z M673.905,322.007
		c-7.604-0.231-12.761-3.682-12.761-3.682v-36.608c0,0,5.088-3.118,11.33-3.676c7.894-0.707,15.501,1.678,15.501,20.51
		C687.976,318.409,684.543,322.328,673.905,322.007z"/>
	<path style="&st0;" d="M440.077,259.287h-16.572c0,0-0.024-21.888-0.024-21.893c0-0.828-0.427-1.242-1.385-1.242h-22.583
		c-0.878,0-1.349,0.387-1.349,1.23v22.624c0,0-11.318,2.732-12.083,2.953c-0.761,0.222-1.322,0.924-1.322,1.762v14.217
		c0,1.023,0.817,1.847,1.827,1.847h11.578c0,0,0,14.869,0,34.202c0,25.403,17.819,27.898,29.842,27.898
		c5.494,0,12.066-1.764,13.151-2.165c0.656-0.241,1.037-0.921,1.037-1.658l0.018-15.639c0-1.02-0.861-1.845-1.832-1.845
		c-0.965,0-3.436,0.393-5.979,0.393c-8.139,0-10.898-3.785-10.898-8.684c0-4.895-0.001-32.502-0.001-32.502h16.573
		c1.01,0,1.829-0.824,1.829-1.847v-17.806C441.904,260.108,441.087,259.287,440.077,259.287z"/>
</g>
</svg>
