<?xml version="1.0" encoding="UTF-8" standalone="no"?><svg xmlns="http://www.w3.org/2000/svg" xmlns:xlink="http://www.w3.org/1999/xlink" clip-rule="evenodd" stroke-miterlimit="10" viewBox="0 0 1600 900"><desc>SVG generated by Keynote</desc><defs></defs><g transform="matrix(1.00, 0.00, -0.00, -1.00, 0.0, 900.0)"><path d="M 0.0 900.0 L 1600.0 900.0 L 1600.0 0.0 L 0.0 0.0 Z M 0.0 900.0 " fill="#EAEAEA"></path><text xml:space="preserve" font-family=".LucidaGrandeUI,.Lucida Grande UI" font-size="18.0" fill="#989898" transform="matrix(1.00, 0.00, -0.00, -1.00, 1487.2, 27.8)">7</text><text xml:space="preserve" font-family=".LucidaGrandeUI,.Lucida Grande UI" font-size="18.0" fill="#989898" transform="matrix(1.00, 0.00, -0.00, -1.00, 1498.6, 27.8)">2</text><text xml:space="preserve" font-family="Helvetica-Light,Helvetica" font-size="60.0" fill="#000000" transform="matrix(1.00, 0.00, -0.00, -1.00, 221.4, 713.7)">F</text><text xml:space="preserve" font-family="Helvetica-Light,Helvetica" font-size="60.0" fill="#000000" transform="matrix(1.00, 0.00, -0.00, -1.00, 254.8, 713.7)">o</text><text xml:space="preserve" font-family="Helvetica-Light,Helvetica" font-size="60.0" fill="#000000" transform="matrix(1.00, 0.00, -0.00, -1.00, 288.1, 713.7)">r</text><text xml:space="preserve" font-family="Helvetica-Light,Helvetica" font-size="60.0" fill="#000000" transform="matrix(1.00, 0.00, -0.00, -1.00, 308.1, 713.7)"> </text><text xml:space="preserve" font-family="Helvetica-Light,Helvetica" font-size="60.0" fill="#000000" transform="matrix(1.00, 0.00, -0.00, -1.00, 324.8, 713.7)">c</text><text xml:space="preserve" font-family="Helvetica-Light,Helvetica" font-size="60.0" fill="#000000" transform="matrix(1.00, 0.00, -0.00, -1.00, 358.1, 713.7)">o</text><text xml:space="preserve" font-family="Helvetica-Light,Helvetica" font-size="60.0" fill="#000000" transform="matrix(1.00, 0.00, -0.00, -1.00, 391.5, 713.7)">n</text><text xml:space="preserve" font-family="Helvetica-Light,Helvetica" font-size="60.0" fill="#000000" transform="matrix(1.00, 0.00, -0.00, -1.00, 424.9, 713.7)">t</text><text xml:space="preserve" font-family="Helvetica-Light,Helvetica" font-size="60.0" fill="#000000" transform="matrix(1.00, 0.00, -0.00, -1.00, 441.5, 713.7)">i</text><text xml:space="preserve" font-family="Helvetica-Light,Helvetica" font-size="60.0" fill="#000000" transform="matrix(1.00, 0.00, -0.00, -1.00, 454.9, 713.7)">n</text><text xml:space="preserve" font-family="Helvetica-Light,Helvetica" font-size="60.0" fill="#000000" transform="matrix(1.00, 0.00, -0.00, -1.00, 488.2, 713.7)">u</text><text xml:space="preserve" font-family="Helvetica-Light,Helvetica" font-size="60.0" fill="#000000" transform="matrix(1.00, 0.00, -0.00, -1.00, 521.6, 713.7)">o</text><text xml:space="preserve" font-family="Helvetica-Light,Helvetica" font-size="60.0" fill="#000000" transform="matrix(1.00, 0.00, -0.00, -1.00, 554.9, 713.7)">u</text><text xml:space="preserve" font-family="Helvetica-Light,Helvetica" font-size="60.0" fill="#000000" transform="matrix(1.00, 0.00, -0.00, -1.00, 588.3, 713.7)">s</text><text xml:space="preserve" font-family="Helvetica-Light,Helvetica" font-size="60.0" fill="#000000" transform="matrix(1.00, 0.00, -0.00, -1.00, 618.3, 713.7)"> </text><text xml:space="preserve" font-family="Helvetica-Light,Helvetica" font-size="60.0" fill="#000000" transform="matrix(1.00, 0.00, -0.00, -1.00, 635.0, 713.7)">d</text><text xml:space="preserve" font-family="Helvetica-Light,Helvetica" font-size="60.0" fill="#000000" transform="matrix(1.00, 0.00, -0.00, -1.00, 671.6, 713.7)">a</text><text xml:space="preserve" font-family="Helvetica-Light,Helvetica" font-size="60.0" fill="#000000" transform="matrix(1.00, 0.00, -0.00, -1.00, 705.0, 713.7)">t</text><text xml:space="preserve" font-family="Helvetica-Light,Helvetica" font-size="60.0" fill="#000000" transform="matrix(1.00, 0.00, -0.00, -1.00, 721.7, 713.7)">a</text><text xml:space="preserve" font-family="Helvetica-Light,Helvetica" font-size="60.0" fill="#000000" transform="matrix(1.00, 0.00, -0.00, -1.00, 755.0, 713.7)">,</text><text xml:space="preserve" font-family="Helvetica-Light,Helvetica" font-size="60.0" fill="#000000" transform="matrix(1.00, 0.00, -0.00, -1.00, 771.7, 713.7)"> </text><text xml:space="preserve" font-family="Helvetica-Light,Helvetica" font-size="60.0" fill="#000000" transform="matrix(1.00, 0.00, -0.00, -1.00, 788.4, 713.7)">y</text><text xml:space="preserve" font-family="Helvetica-Light,Helvetica" font-size="60.0" fill="#000000" transform="matrix(1.00, 0.00, -0.00, -1.00, 818.4, 713.7)">o</text><text xml:space="preserve" font-family="Helvetica-Light,Helvetica" font-size="60.0" fill="#000000" transform="matrix(1.00, 0.00, -0.00, -1.00, 851.8, 713.7)">u</text><text xml:space="preserve" font-family="Helvetica-Light,Helvetica" font-size="60.0" fill="#000000" transform="matrix(1.00, 0.00, -0.00, -1.00, 885.1, 713.7)"> </text><text xml:space="preserve" font-family="Helvetica-Light,Helvetica" font-size="60.0" fill="#000000" transform="matrix(1.00, 0.00, -0.00, -1.00, 901.8, 713.7)">c</text><text xml:space="preserve" font-family="Helvetica-Light,Helvetica" font-size="60.0" fill="#000000" transform="matrix(1.00, 0.00, -0.00, -1.00, 935.1, 713.7)">o</text><text xml:space="preserve" font-family="Helvetica-Light,Helvetica" font-size="60.0" fill="#000000" transform="matrix(1.00, 0.00, -0.00, -1.00, 968.5, 713.7)">u</text><text xml:space="preserve" font-family="Helvetica-Light,Helvetica" font-size="60.0" fill="#000000" transform="matrix(1.00, 0.00, -0.00, -1.00, 1001.9, 713.7)">l</text><text xml:space="preserve" font-family="Helvetica-Light,Helvetica" font-size="60.0" fill="#000000" transform="matrix(1.00, 0.00, -0.00, -1.00, 1015.2, 713.7)">d</text><text xml:space="preserve" font-family="Helvetica-Light,Helvetica" font-size="60.0" fill="#000000" transform="matrix(1.00, 0.00, -0.00, -1.00, 1051.9, 713.7)"> </text><text xml:space="preserve" font-family="Helvetica-Light,Helvetica" font-size="60.0" fill="#000000" transform="matrix(1.00, 0.00, -0.00, -1.00, 1068.5, 713.7)">u</text><text xml:space="preserve" font-family="Helvetica-Light,Helvetica" font-size="60.0" fill="#000000" transform="matrix(1.00, 0.00, -0.00, -1.00, 1101.9, 713.7)">s</text><text xml:space="preserve" font-family="Helvetica-Light,Helvetica" font-size="60.0" fill="#000000" transform="matrix(1.00, 0.00, -0.00, -1.00, 1131.9, 713.7)">e</text><text xml:space="preserve" font-family="Helvetica-Light,Helvetica" font-size="60.0" fill="#000000" transform="matrix(1.00, 0.00, -0.00, -1.00, 1165.2, 713.7)"> </text><text xml:space="preserve" font-family="Helvetica-Light,Helvetica" font-size="60.0" fill="#000000" transform="matrix(1.00, 0.00, -0.00, -1.00, 1181.9, 713.7)">a</text><text xml:space="preserve" font-family="Helvetica-Light,Helvetica" font-size="60.0" fill="#000000" transform="matrix(1.00, 0.00, -0.00, -1.00, 1215.3, 713.7)"> </text><text xml:space="preserve" font-family="Helvetica-Light,Helvetica" font-size="60.0" fill="#000000" transform="matrix(1.00, 0.00, -0.00, -1.00, 1232.0, 713.7)">s</text><text xml:space="preserve" font-family="Helvetica-Light,Helvetica" font-size="60.0" fill="#000000" transform="matrix(1.00, 0.00, -0.00, -1.00, 1262.0, 713.7)">l</text><text xml:space="preserve" font-family="Helvetica-Light,Helvetica" font-size="60.0" fill="#000000" transform="matrix(1.00, 0.00, -0.00, -1.00, 1275.3, 713.7)">i</text><text xml:space="preserve" font-family="Helvetica-Light,Helvetica" font-size="60.0" fill="#000000" transform="matrix(1.00, 0.00, -0.00, -1.00, 1288.6, 713.7)">d</text><text xml:space="preserve" font-family="Helvetica-Light,Helvetica" font-size="60.0" fill="#000000" transform="matrix(1.00, 0.00, -0.00, -1.00, 1325.3, 713.7)">e</text><text xml:space="preserve" font-family="Helvetica-Light,Helvetica" font-size="60.0" fill="#000000" transform="matrix(1.00, 0.00, -0.00, -1.00, 1358.6, 713.7)">r</text><path d="M 0.0 90.0 L 1600.0 90.0 L 1600.0 0.0 L 0.0 0.0 Z M 0.0 90.0 " fill="#008ACB"></path><text xml:space="preserve" font-family="Helvetica,Helvetica" font-size="42.0" fill="#FEFFFF" transform="matrix(1.00, 0.00, -0.00, -1.00, 1419.0, 33.7)">G</text><text xml:space="preserve" font-family="Helvetica,Helvetica" font-size="42.0" fill="#FEFFFF" transform="matrix(1.00, 0.00, -0.00, -1.00, 1451.6, 33.7)">D</text><text xml:space="preserve" font-family="Helvetica,Helvetica" font-size="42.0" fill="#FEFFFF" transform="matrix(1.00, 0.00, -0.00, -1.00, 1482.0, 33.7)">S</text><g><clipPath id="clip0x608001abd820"><path d="M 1000.0 460.0 L 1521.0 460.0 L 1521.0 322.0 L 1000.0 322.0 Z M 999.7 459.8 "></path></clipPath><g clip-path="url(#clip0x608001abd820)"><g><clipPath id="clip0x608001abd9a0"><path d="M 1248.0 324.9 C 1241.3 328.5 1233.4 336.9 1231.0 343.1 L 1229.5 347.0 L 1119.7 347.0 C 1012.3 347.0 1009.9 347.2 1006.6 350.5 C 1002.3 354.8 1002.1 362.7 1006.3 366.5 C 1009.1 369.0 1019.5 369.0 1120.9 369.0 L 1232.4 369.0 L 1236.8 375.9 C 1241.8 383.5 1253.3 389.8 1262.2 389.8 C 1269.8 389.8 1282.8 383.2 1285.3 378.2 C 1289.8 369.0 1285.2 369.4 1404.6 369.3 C 1527.3 369.3 1520.8 369.9 1520.8 358.3 C 1520.8 346.5 1526.8 347.0 1404.6 347.0 L 1294.6 347.0 L 1292.2 341.4 C 1285.3 325.0 1263.4 316.8 1248.0 324.9 M 1080.3 412.4 C 1074.2 415.6 1070.9 426.2 1073.4 434.6 C 1075.9 443.1 1081.2 447.8 1088.4 447.8 C 1096.2 447.8 1100.2 445.4 1103.6 438.8 C 1106.3 433.7 1106.6 433.6 1108.4 436.6 C 1112.5 443.8 1118.4 447.8 1124.7 447.8 C 1135.5 447.7 1140.8 440.6 1139.7 427.7 C 1138.9 417.0 1136.3 412.5 1130.0 411.1 C 1121.2 409.2 1114.6 411.7 1110.6 418.4 C 1107.4 423.8 1106.8 424.1 1105.2 421.4 C 1100.7 413.9 1097.9 411.7 1091.4 410.9 C 1087.5 410.5 1082.7 411.1 1080.3 412.4 M 1000.0 436.0 L 1000.0 460.0 L 1013.0 460.0 C 1028.2 459.9 1031.9 457.7 1033.9 449.1 C 1036.4 437.9 1032.1 433.4 1016.5 431.1 L 1007.0 429.8 L 1007.0 420.9 C 1006.6 413.4 1005.9 412.0 1003.0 412.0 C 999.9 412.0 999.7 413.3 999.7 435.9 M 1038.8 428.2 C 1038.5 437.9 1039.0 445.2 1040.0 445.8 C 1040.9 446.3 1044.9 447.0 1048.8 447.2 C 1057.1 447.7 1060.6 443.6 1054.0 441.1 C 1047.7 438.7 1046.2 435.5 1045.6 423.9 C 1045.2 415.2 1044.5 412.7 1042.2 412.3 C 1039.7 411.8 1039.3 413.9 1038.8 428.2 M 1060.8 413.3 C 1058.7 416.6 1059.3 442.7 1061.4 445.3 C 1063.2 447.4 1063.2 448.7 1061.5 452.0 C 1059.1 456.4 1060.2 459.8 1064.1 459.8 C 1067.3 459.8 1069.0 455.6 1067.2 452.6 C 1066.4 451.4 1066.0 441.7 1066.3 431.2 C 1066.8 414.8 1066.5 412.0 1064.2 412.0 C 1062.8 412.0 1061.2 412.6 1060.8 413.3 "></path></clipPath><g clip-path="url(#clip0x608001abd9a0)"><image xlink:href="B54A7370ED91AB4ADCB4827334541757.png" width="624.00" height="239.00" transform="matrix(1.00, 0.00, -0.00, -1.00, 967.1, 538.3)"></image></g></g></g></g><path d="M 854.0 375.0 L 854.0 340.8 L 917.7 390.8 L 854.0 440.8 L 854.0 407.0 L 682.0 407.0 L 682.0 375.0 Z M 853.7 374.8 " fill="#060200"></path><path d="M 171.7 65.8 L 171.7 100.0 L 235.5 50.0 L 171.7 0.0 L 171.7 33.8 L -0.3 33.8 L -0.3 65.8 Z M 171.5 66.0 " fill="none" stroke="#000000" stroke-width="2.00" stroke-linejoin="round" transform="matrix(1.00, 0.00, 0.00, -1.00, 682.3, 440.8)"></path><g><clipPath id="clip0x608001abdd00"><path d="M 157.0 496.0 L 559.0 496.0 L 559.0 316.0 L 157.0 316.0 Z M 156.7 496.4 "></path></clipPath><g clip-path="url(#clip0x608001abdd00)"><g><clipPath id="clip0x608001abde80"><path d="M 358.8 317.0 C 352.7 319.1 352.0 322.8 352.0 352.5 C 352.0 368.5 352.5 382.2 353.2 382.9 C 353.9 383.6 354.5 385.1 354.5 386.2 C 354.5 387.3 355.4 388.2 356.5 388.2 C 357.6 388.2 359.1 388.8 359.8 389.5 C 361.8 391.5 550.2 391.1 551.5 389.0 C 552.1 388.1 553.3 387.7 554.1 388.2 C 554.9 388.7 556.4 387.6 557.4 385.8 C 559.8 381.4 559.8 324.9 557.5 323.4 C 556.5 322.8 556.2 321.6 556.7 320.8 C 559.4 316.5 544.9 315.8 455.0 315.9 C 403.5 316.0 360.2 316.5 358.8 317.0 M 211.9 338.9 C 207.5 342.0 206.6 351.6 210.5 354.8 C 212.4 356.4 212.5 357.8 210.9 362.0 C 209.2 366.6 209.4 367.5 213.0 370.5 C 215.5 372.5 219.7 373.7 224.3 373.7 C 234.5 373.7 237.2 370.2 237.2 356.9 C 237.2 351.0 238.0 344.7 239.1 342.7 C 241.7 337.8 238.4 334.6 233.7 337.6 C 231.3 339.1 229.3 339.2 227.0 338.0 C 222.3 335.5 216.3 335.8 211.9 338.9 M 157.0 362.0 L 157.0 386.0 L 161.2 385.0 C 165.1 384.5 166.3 382.9 171.4 369.6 C 178.1 351.9 179.9 349.3 182.1 355.1 C 182.9 357.4 185.7 365.2 188.4 372.5 C 192.8 384.8 193.5 385.5 197.6 385.0 L 202.0 385.0 L 202.0 361.8 C 202.0 339.9 201.9 338.8 198.7 338.8 C 195.8 338.8 195.1 340.2 194.4 348.2 C 193.9 353.3 192.8 357.5 191.8 357.5 C 190.9 357.5 188.5 353.3 186.4 348.2 C 183.8 341.8 181.6 338.6 179.3 338.3 C 176.0 337.8 174.6 340.2 167.8 359.8 C 165.9 365.1 163.6 359.0 163.6 348.9 C 163.6 339.1 163.2 337.9 160.1 337.9 C 156.9 337.9 156.7 339.1 156.7 361.9 M 242.3 339.3 C 242.3 340.1 244.6 343.7 247.4 347.4 C 250.2 351.1 252.5 354.9 252.5 355.8 C 252.5 356.8 250.2 360.5 247.4 364.2 C 244.6 367.9 242.3 371.5 242.3 372.3 C 242.3 375.7 248.8 373.3 253.0 368.2 L 257.8 362.6 L 262.5 368.2 C 266.8 373.3 273.2 375.7 273.2 372.2 C 273.2 371.4 270.6 367.4 267.4 363.3 L 261.7 355.9 L 267.4 348.0 C 274.1 338.8 274.3 337.9 269.9 337.9 C 268.1 337.9 264.6 340.4 262.1 343.5 L 257.7 349.0 L 253.0 343.5 C 248.8 338.4 242.3 335.9 242.3 339.3 M 246.0 449.7 C 243.9 451.2 241.4 454.4 240.5 456.8 C 238.6 461.7 236.1 460.3 235.2 453.8 C 234.8 450.4 233.5 449.4 229.1 449.0 L 224.0 448.0 L 224.0 461.3 C 224.0 468.3 222.9 474.4 222.2 474.8 C 221.5 475.3 218.4 474.6 215.4 473.3 C 209.9 471.0 210.0 470.8 210.0 459.8 L 210.0 449.0 L 203.8 449.0 L 198.0 449.0 L 198.0 461.2 C 198.0 468.1 197.3 474.2 196.7 474.8 C 196.0 475.5 193.5 473.6 191.1 470.7 C 187.7 466.7 184.7 465.3 178.1 464.3 L 170.0 463.1 L 169.0 455.9 C 168.5 448.9 168.3 449.0 162.6 449.0 L 157.0 449.0 L 157.0 472.5 L 157.0 496.0 L 170.9 496.0 C 186.0 496.0 189.6 495.0 193.2 488.0 C 195.0 484.5 196.4 483.9 204.0 484.0 C 214.9 484.1 222.5 487.5 223.2 492.6 C 223.6 495.6 224.9 496.4 228.8 496.4 C 234.6 496.4 237.0 492.4 234.1 487.7 C 232.8 485.8 232.7 484.3 233.8 483.6 C 234.7 483.0 235.5 480.8 235.5 478.7 C 235.5 472.2 237.5 472.3 243.3 479.0 C 248.2 484.6 249.7 485.3 256.7 485.3 C 263.0 485.3 265.5 484.4 269.2 480.7 L 273.9 476.0 L 278.8 480.7 C 285.8 487.4 297.4 487.3 303.3 480.6 C 308.4 474.6 310.2 467.8 307.7 463.8 C 306.6 462.1 306.2 459.7 306.7 458.4 C 308.2 454.5 301.9 448.7 295.0 447.6 C 287.6 446.4 279.0 449.4 276.4 454.1 C 274.8 457.2 274.4 457.1 268.7 452.2 C 261.9 446.2 252.5 445.2 246.0 449.7 "></path></clipPath><g clip-path="url(#clip0x608001abde80)"><image xlink:href="AA8B7527979565001C9A3585A8E7FB5A.png" width="471.00" height="259.00" transform="matrix(1.00, 0.00, -0.00, -1.00, 129.3, 520.3)"></image></g></g></g></g></g></svg>