<?xml version="1.0" encoding="UTF-8" standalone="no"?><svg xmlns="http://www.w3.org/2000/svg" xmlns:xlink="http://www.w3.org/1999/xlink" clip-rule="evenodd" stroke-miterlimit="10" viewBox="0 0 1600 900"><desc>SVG generated by Keynote</desc><defs></defs><g transform="matrix(1.00, 0.00, -0.00, -1.00, 0.0, 900.0)"><path d="M 0.0 900.0 L 1600.0 900.0 L 1600.0 0.0 L 0.0 0.0 Z M 0.0 900.0 " fill="#EAEAEA"></path><image xlink:href="../../F5476999-037D-43A3-88ED-EBD61E4C12D7/assets/66963F74DD6A1927EC67546C6A05E463.png" width="778.00" height="4096.00" transform="matrix(0.90, 0.00, -0.00, -0.90, 801.0, 924.0)"></image><g><clipPath id="clip0x608000caf0c0"><path d="M 801.0 932.0 L 1504.0 932.0 L 1504.0 868.0 L 801.0 868.0 Z M 801.0 932.0 "></path></clipPath><g clip-path="url(#clip0x608000caf0c0)"><image xlink:href="../../F5476999-037D-43A3-88ED-EBD61E4C12D7/assets/66963F74DD6A1927EC67546C6A05E463.png" width="778.00" height="4096.00" transform="matrix(0.90, 0.00, -0.00, -0.90, 801.0, 899.8)"></image></g></g><path d="M 0.0 90.0 L 1600.0 90.0 L 1600.0 0.0 L 0.0 0.0 Z M 0.0 90.0 " fill="#008ACB"></path><text xml:space="preserve" font-family="Helvetica,Helvetica" font-size="42.0" fill="#FEFFFF" transform="matrix(1.00, 0.00, -0.00, -1.00, 1419.0, 33.7)">G</text><text xml:space="preserve" font-family="Helvetica,Helvetica" font-size="42.0" fill="#FEFFFF" transform="matrix(1.00, 0.00, -0.00, -1.00, 1451.6, 33.7)">D</text><text xml:space="preserve" font-family="Helvetica,Helvetica" font-size="42.0" fill="#FEFFFF" transform="matrix(1.00, 0.00, -0.00, -1.00, 1482.0, 33.7)">S</text><text xml:space="preserve" font-family="Helvetica-Light,Helvetica" font-size="70.0" fill="#000000" transform="matrix(1.00, 0.00, -0.00, -1.00, 106.0, 582.5)">2</text><text xml:space="preserve" font-family="Helvetica-Light,Helvetica" font-size="70.0" fill="#000000" transform="matrix(1.00, 0.00, -0.00, -1.00, 144.9, 582.5)">5</text><text xml:space="preserve" font-family="Helvetica-Light,Helvetica" font-size="70.0" fill="#000000" transform="matrix(1.00, 0.00, -0.00, -1.00, 183.8, 582.5)"> </text><text xml:space="preserve" font-family="Helvetica-Light,Helvetica" font-size="70.0" fill="#000000" transform="matrix(1.00, 0.00, -0.00, -1.00, 203.3, 582.5)">o</text><text xml:space="preserve" font-family="Helvetica-Light,Helvetica" font-size="70.0" fill="#000000" transform="matrix(1.00, 0.00, -0.00, -1.00, 242.2, 582.5)">f</text><text xml:space="preserve" font-family="Helvetica-Light,Helvetica" font-size="70.0" fill="#000000" transform="matrix(1.00, 0.00, -0.00, -1.00, 261.7, 582.5)"> </text><text xml:space="preserve" font-family="Helvetica-Light,Helvetica" font-size="70.0" fill="#000000" transform="matrix(1.00, 0.00, -0.00, -1.00, 281.1, 582.5)">g</text><text xml:space="preserve" font-family="Helvetica-Light,Helvetica" font-size="70.0" fill="#000000" transform="matrix(1.00, 0.00, -0.00, -1.00, 323.9, 582.5)">o</text><text xml:space="preserve" font-family="Helvetica-Light,Helvetica" font-size="70.0" fill="#000000" transform="matrix(1.00, 0.00, -0.00, -1.00, 362.8, 582.5)">v</text><text xml:space="preserve" font-family="Helvetica-Light,Helvetica" font-size="70.0" fill="#000000" transform="matrix(1.00, 0.00, -0.00, -1.00, 397.8, 582.5)">e</text><text xml:space="preserve" font-family="Helvetica-Light,Helvetica" font-size="70.0" fill="#000000" transform="matrix(1.00, 0.00, -0.00, -1.00, 436.8, 582.5)">r</text><text xml:space="preserve" font-family="Helvetica-Light,Helvetica" font-size="70.0" fill="#000000" transform="matrix(1.00, 0.00, -0.00, -1.00, 461.3, 582.5)">n</text><text xml:space="preserve" font-family="Helvetica-Light,Helvetica" font-size="70.0" fill="#000000" transform="matrix(1.00, 0.00, -0.00, -1.00, 500.2, 582.5)">m</text><text xml:space="preserve" font-family="Helvetica-Light,Helvetica" font-size="70.0" fill="#000000" transform="matrix(1.00, 0.00, -0.00, -1.00, 558.6, 582.5)">e</text><text xml:space="preserve" font-family="Helvetica-Light,Helvetica" font-size="70.0" fill="#000000" transform="matrix(1.00, 0.00, -0.00, -1.00, 597.5, 582.5)">n</text><text xml:space="preserve" font-family="Helvetica-Light,Helvetica" font-size="70.0" fill="#000000" transform="matrix(1.00, 0.00, -0.00, -1.00, 636.4, 582.5)">t</text><text xml:space="preserve" font-family="Helvetica-Light,Helvetica" font-size="70.0" fill="#000000" transform="matrix(1.00, 0.00, -0.00, -1.00, 655.9, 582.5)">’</text><text xml:space="preserve" font-family="Helvetica-Light,Helvetica" font-size="70.0" fill="#000000" transform="matrix(1.00, 0.00, -0.00, -1.00, 666.2, 582.5)">s</text><text xml:space="preserve" font-family="Helvetica-Light,Helvetica" font-size="70.0" fill="#000000" transform="matrix(1.00, 0.00, -0.00, -1.00, 701.2, 582.5)"> </text><text xml:space="preserve" font-family="Helvetica-Light,Helvetica" font-size="70.0" fill="#000000" transform="matrix(1.00, 0.00, -0.00, -1.00, 106.0, 502.7)">b</text><text xml:space="preserve" font-family="Helvetica-Light,Helvetica" font-size="70.0" fill="#000000" transform="matrix(1.00, 0.00, -0.00, -1.00, 148.8, 502.7)">i</text><text xml:space="preserve" font-family="Helvetica-Light,Helvetica" font-size="70.0" fill="#000000" transform="matrix(1.00, 0.00, -0.00, -1.00, 164.3, 502.7)">g</text><text xml:space="preserve" font-family="Helvetica-Light,Helvetica" font-size="70.0" fill="#000000" transform="matrix(1.00, 0.00, -0.00, -1.00, 207.1, 502.7)">g</text><text xml:space="preserve" font-family="Helvetica-Light,Helvetica" font-size="70.0" fill="#000000" transform="matrix(1.00, 0.00, -0.00, -1.00, 249.8, 502.7)">e</text><text xml:space="preserve" font-family="Helvetica-Light,Helvetica" font-size="70.0" fill="#000000" transform="matrix(1.00, 0.00, -0.00, -1.00, 288.8, 502.7)">s</text><text xml:space="preserve" font-family="Helvetica-Light,Helvetica" font-size="70.0" fill="#000000" transform="matrix(1.00, 0.00, -0.00, -1.00, 323.8, 502.7)">t</text><text xml:space="preserve" font-family="Helvetica-Light,Helvetica" font-size="70.0" fill="#000000" transform="matrix(1.00, 0.00, -0.00, -1.00, 343.2, 502.7)"> </text><text xml:space="preserve" font-family="Helvetica-Light,Helvetica" font-size="70.0" fill="#000000" transform="matrix(1.00, 0.00, -0.00, -1.00, 362.7, 502.7)">s</text><text xml:space="preserve" font-family="Helvetica-Light,Helvetica" font-size="70.0" fill="#000000" transform="matrix(1.00, 0.00, -0.00, -1.00, 397.7, 502.7)">e</text><text xml:space="preserve" font-family="Helvetica-Light,Helvetica" font-size="70.0" fill="#000000" transform="matrix(1.00, 0.00, -0.00, -1.00, 436.6, 502.7)">r</text><text xml:space="preserve" font-family="Helvetica-Light,Helvetica" font-size="70.0" fill="#000000" transform="matrix(1.00, 0.00, -0.00, -1.00, 459.9, 502.7)">v</text><text xml:space="preserve" font-family="Helvetica-Light,Helvetica" font-size="70.0" fill="#000000" transform="matrix(1.00, 0.00, -0.00, -1.00, 494.9, 502.7)">i</text><text xml:space="preserve" font-family="Helvetica-Light,Helvetica" font-size="70.0" fill="#000000" transform="matrix(1.00, 0.00, -0.00, -1.00, 510.5, 502.7)">c</text><text xml:space="preserve" font-family="Helvetica-Light,Helvetica" font-size="70.0" fill="#000000" transform="matrix(1.00, 0.00, -0.00, -1.00, 549.4, 502.7)">e</text><text xml:space="preserve" font-family="Helvetica-Light,Helvetica" font-size="70.0" fill="#000000" transform="matrix(1.00, 0.00, -0.00, -1.00, 588.3, 502.7)">s</text><text xml:space="preserve" font-family="Helvetica-Light,Helvetica" font-size="70.0" fill="#000000" transform="matrix(1.00, 0.00, -0.00, -1.00, 623.3, 502.7)"> </text><text xml:space="preserve" font-family="Helvetica-Light,Helvetica" font-size="70.0" fill="#000000" transform="matrix(1.00, 0.00, -0.00, -1.00, 106.0, 422.9)">r</text><text xml:space="preserve" font-family="Helvetica-Light,Helvetica" font-size="70.0" fill="#000000" transform="matrix(1.00, 0.00, -0.00, -1.00, 128.1, 422.9)">e</text><text xml:space="preserve" font-family="Helvetica-Light,Helvetica" font-size="70.0" fill="#000000" transform="matrix(1.00, 0.00, -0.00, -1.00, 167.0, 422.9)">d</text><text xml:space="preserve" font-family="Helvetica-Light,Helvetica" font-size="70.0" fill="#000000" transform="matrix(1.00, 0.00, -0.00, -1.00, 209.7, 422.9)">e</text><text xml:space="preserve" font-family="Helvetica-Light,Helvetica" font-size="70.0" fill="#000000" transform="matrix(1.00, 0.00, -0.00, -1.00, 248.7, 422.9)">s</text><text xml:space="preserve" font-family="Helvetica-Light,Helvetica" font-size="70.0" fill="#000000" transform="matrix(1.00, 0.00, -0.00, -1.00, 283.7, 422.9)">i</text><text xml:space="preserve" font-family="Helvetica-Light,Helvetica" font-size="70.0" fill="#000000" transform="matrix(1.00, 0.00, -0.00, -1.00, 299.2, 422.9)">g</text><text xml:space="preserve" font-family="Helvetica-Light,Helvetica" font-size="70.0" fill="#000000" transform="matrix(1.00, 0.00, -0.00, -1.00, 342.0, 422.9)">n</text><text xml:space="preserve" font-family="Helvetica-Light,Helvetica" font-size="70.0" fill="#000000" transform="matrix(1.00, 0.00, -0.00, -1.00, 380.9, 422.9)">e</text><text xml:space="preserve" font-family="Helvetica-Light,Helvetica" font-size="70.0" fill="#000000" transform="matrix(1.00, 0.00, -0.00, -1.00, 419.8, 422.9)">d</text><text xml:space="preserve" font-family="Helvetica-Light,Helvetica" font-size="70.0" fill="#000000" transform="matrix(1.00, 0.00, -0.00, -1.00, 462.6, 422.9)"> </text><text xml:space="preserve" font-family="Helvetica-Light,Helvetica" font-size="70.0" fill="#000000" transform="matrix(1.00, 0.00, -0.00, -1.00, 482.0, 422.9)">t</text><text xml:space="preserve" font-family="Helvetica-Light,Helvetica" font-size="70.0" fill="#000000" transform="matrix(1.00, 0.00, -0.00, -1.00, 501.5, 422.9)">o</text><text xml:space="preserve" font-family="Helvetica-Light,Helvetica" font-size="70.0" fill="#000000" transform="matrix(1.00, 0.00, -0.00, -1.00, 540.4, 422.9)"> </text><text xml:space="preserve" font-family="Helvetica-Light,Helvetica" font-size="70.0" fill="#000000" transform="matrix(1.00, 0.00, -0.00, -1.00, 559.9, 422.9)">m</text><text xml:space="preserve" font-family="Helvetica-Light,Helvetica" font-size="70.0" fill="#000000" transform="matrix(1.00, 0.00, -0.00, -1.00, 618.2, 422.9)">e</text><text xml:space="preserve" font-family="Helvetica-Light,Helvetica" font-size="70.0" fill="#000000" transform="matrix(1.00, 0.00, -0.00, -1.00, 657.1, 422.9)">e</text><text xml:space="preserve" font-family="Helvetica-Light,Helvetica" font-size="70.0" fill="#000000" transform="matrix(1.00, 0.00, -0.00, -1.00, 696.0, 422.9)">t</text><text xml:space="preserve" font-family="Helvetica-Light,Helvetica" font-size="70.0" fill="#000000" transform="matrix(1.00, 0.00, -0.00, -1.00, 715.5, 422.9)"> </text><text xml:space="preserve" font-family="Helvetica-Light,Helvetica" font-size="70.0" fill="#000000" transform="matrix(1.00, 0.00, -0.00, -1.00, 106.0, 343.1)">t</text><text xml:space="preserve" font-family="Helvetica-Light,Helvetica" font-size="70.0" fill="#000000" transform="matrix(1.00, 0.00, -0.00, -1.00, 125.5, 343.1)">h</text><text xml:space="preserve" font-family="Helvetica-Light,Helvetica" font-size="70.0" fill="#000000" transform="matrix(1.00, 0.00, -0.00, -1.00, 164.4, 343.1)">e</text><text xml:space="preserve" font-family="Helvetica-Light,Helvetica" font-size="70.0" fill="#000000" transform="matrix(1.00, 0.00, -0.00, -1.00, 203.3, 343.1)"> </text><text xml:space="preserve" font-family="Helvetica-Light,Helvetica" font-size="70.0" fill="#000000" transform="matrix(1.00, 0.00, -0.00, -1.00, 222.8, 343.1)">n</text><text xml:space="preserve" font-family="Helvetica-Light,Helvetica" font-size="70.0" fill="#000000" transform="matrix(1.00, 0.00, -0.00, -1.00, 261.7, 343.1)">e</text><text xml:space="preserve" font-family="Helvetica-Light,Helvetica" font-size="70.0" fill="#000000" transform="matrix(1.00, 0.00, -0.00, -1.00, 300.6, 343.1)">e</text><text xml:space="preserve" font-family="Helvetica-Light,Helvetica" font-size="70.0" fill="#000000" transform="matrix(1.00, 0.00, -0.00, -1.00, 339.5, 343.1)">d</text><text xml:space="preserve" font-family="Helvetica-Light,Helvetica" font-size="70.0" fill="#000000" transform="matrix(1.00, 0.00, -0.00, -1.00, 382.3, 343.1)">s</text><text xml:space="preserve" font-family="Helvetica-Light,Helvetica" font-size="70.0" fill="#000000" transform="matrix(1.00, 0.00, -0.00, -1.00, 417.3, 343.1)"> </text><text xml:space="preserve" font-family="Helvetica-Light,Helvetica" font-size="70.0" fill="#000000" transform="matrix(1.00, 0.00, -0.00, -1.00, 436.8, 343.1)">o</text><text xml:space="preserve" font-family="Helvetica-Light,Helvetica" font-size="70.0" fill="#000000" transform="matrix(1.00, 0.00, -0.00, -1.00, 475.7, 343.1)">f</text><text xml:space="preserve" font-family="Helvetica-Light,Helvetica" font-size="70.0" fill="#000000" transform="matrix(1.00, 0.00, -0.00, -1.00, 495.1, 343.1)"> </text><text xml:space="preserve" font-family="Helvetica-Light,Helvetica" font-size="70.0" fill="#000000" transform="matrix(1.00, 0.00, -0.00, -1.00, 514.6, 343.1)">u</text><text xml:space="preserve" font-family="Helvetica-Light,Helvetica" font-size="70.0" fill="#000000" transform="matrix(1.00, 0.00, -0.00, -1.00, 553.5, 343.1)">s</text><text xml:space="preserve" font-family="Helvetica-Light,Helvetica" font-size="70.0" fill="#000000" transform="matrix(1.00, 0.00, -0.00, -1.00, 588.5, 343.1)">e</text><text xml:space="preserve" font-family="Helvetica-Light,Helvetica" font-size="70.0" fill="#000000" transform="matrix(1.00, 0.00, -0.00, -1.00, 627.4, 343.1)">r</text><text xml:space="preserve" font-family="Helvetica-Light,Helvetica" font-size="70.0" fill="#000000" transform="matrix(1.00, 0.00, -0.00, -1.00, 650.7, 343.1)">s</text></g></svg>