<?xml version="1.0" encoding="UTF-8" standalone="no"?><svg xmlns="http://www.w3.org/2000/svg" xmlns:xlink="http://www.w3.org/1999/xlink" clip-rule="evenodd" stroke-miterlimit="10" viewBox="0 0 1600 900"><desc>SVG generated by Keynote</desc><defs></defs><g transform="matrix(1.00, 0.00, -0.00, -1.00, 0.0, 900.0)"><path d="M 0.0 900.0 L 1600.0 900.0 L 1600.0 0.0 L 0.0 0.0 Z M 0.0 900.0 " fill="#EAEAEA"></path><image xlink:href="D88F9FB1A8B4CCAC379D53527A9BE49F.png" width="928.00" height="183.00" transform="matrix(1.03, 0.00, -0.00, -1.03, 86.0, 771.0)"></image><text xml:space="preserve" font-family="Helvetica-Light,Helvetica" font-size="72.0" fill="#000000" transform="matrix(1.00, 0.00, -0.00, -1.00, 93.0, 444.6)">A</text><text xml:space="preserve" font-family="Helvetica-Light,Helvetica" font-size="72.0" fill="#000000" transform="matrix(1.00, 0.00, -0.00, -1.00, 141.0, 444.6)">l</text><text xml:space="preserve" font-family="Helvetica-Light,Helvetica" font-size="72.0" fill="#000000" transform="matrix(1.00, 0.00, -0.00, -1.00, 157.0, 444.6)">i</text><text xml:space="preserve" font-family="Helvetica-Light,Helvetica" font-size="72.0" fill="#000000" transform="matrix(1.00, 0.00, -0.00, -1.00, 173.0, 444.6)">c</text><text xml:space="preserve" font-family="Helvetica-Light,Helvetica" font-size="72.0" fill="#000000" transform="matrix(1.00, 0.00, -0.00, -1.00, 213.0, 444.6)">e</text><text xml:space="preserve" font-family="Helvetica-Light,Helvetica" font-size="72.0" fill="#000000" transform="matrix(1.00, 0.00, -0.00, -1.00, 253.1, 444.6)"> </text><text xml:space="preserve" font-family="Helvetica-Light,Helvetica" font-size="72.0" fill="#000000" transform="matrix(1.00, 0.00, -0.00, -1.00, 273.1, 444.6)">B</text><text xml:space="preserve" font-family="Helvetica-Light,Helvetica" font-size="72.0" fill="#000000" transform="matrix(1.00, 0.00, -0.00, -1.00, 321.1, 444.6)">a</text><text xml:space="preserve" font-family="Helvetica-Light,Helvetica" font-size="72.0" fill="#000000" transform="matrix(1.00, 0.00, -0.00, -1.00, 361.1, 444.6)">r</text><text xml:space="preserve" font-family="Helvetica-Light,Helvetica" font-size="72.0" fill="#000000" transform="matrix(1.00, 0.00, -0.00, -1.00, 386.4, 444.6)">t</text><text xml:space="preserve" font-family="Helvetica-Light,Helvetica" font-size="72.0" fill="#000000" transform="matrix(1.00, 0.00, -0.00, -1.00, 406.4, 444.6)">l</text><text xml:space="preserve" font-family="Helvetica-Light,Helvetica" font-size="72.0" fill="#000000" transform="matrix(1.00, 0.00, -0.00, -1.00, 422.4, 444.6)">e</text><text xml:space="preserve" font-family="Helvetica-Light,Helvetica" font-size="72.0" fill="#000000" transform="matrix(1.00, 0.00, -0.00, -1.00, 462.4, 444.6)">t</text><text xml:space="preserve" font-family="Helvetica-Light,Helvetica" font-size="72.0" fill="#000000" transform="matrix(1.00, 0.00, -0.00, -1.00, 482.4, 444.6)">t</text><text xml:space="preserve" font-family="LucidaGrande,Lucida Grande" font-size="72.0" fill="#000000" transform="matrix(1.00, 0.00, -0.00, -1.00, 502.5, 444.6)"> </text><text xml:space="preserve" font-family="Helvetica-Light,Helvetica" font-size="72.0" fill="#000000" transform="matrix(1.00, 0.00, -0.00, -1.00, 93.0, 358.6)">F</text><text xml:space="preserve" font-family="Helvetica-Light,Helvetica" font-size="72.0" fill="#000000" transform="matrix(1.00, 0.00, -0.00, -1.00, 133.0, 358.6)">r</text><text xml:space="preserve" font-family="Helvetica-Light,Helvetica" font-size="72.0" fill="#000000" transform="matrix(1.00, 0.00, -0.00, -1.00, 155.7, 358.6)">o</text><text xml:space="preserve" font-family="Helvetica-Light,Helvetica" font-size="72.0" fill="#000000" transform="matrix(1.00, 0.00, -0.00, -1.00, 195.7, 358.6)">n</text><text xml:space="preserve" font-family="Helvetica-Light,Helvetica" font-size="72.0" fill="#000000" transform="matrix(1.00, 0.00, -0.00, -1.00, 235.8, 358.6)">t</text><text xml:space="preserve" font-family="Helvetica-Light,Helvetica" font-size="72.0" fill="#000000" transform="matrix(1.00, 0.00, -0.00, -1.00, 255.8, 358.6)">-</text><text xml:space="preserve" font-family="Helvetica-Light,Helvetica" font-size="72.0" fill="#000000" transform="matrix(1.00, 0.00, -0.00, -1.00, 279.8, 358.6)">e</text><text xml:space="preserve" font-family="Helvetica-Light,Helvetica" font-size="72.0" fill="#000000" transform="matrix(1.00, 0.00, -0.00, -1.00, 319.8, 358.6)">n</text><text xml:space="preserve" font-family="Helvetica-Light,Helvetica" font-size="72.0" fill="#000000" transform="matrix(1.00, 0.00, -0.00, -1.00, 359.8, 358.6)">d</text><text xml:space="preserve" font-family="Helvetica-Light,Helvetica" font-size="72.0" fill="#000000" transform="matrix(1.00, 0.00, -0.00, -1.00, 403.8, 358.6)"> </text><text xml:space="preserve" font-family="Helvetica-Light,Helvetica" font-size="72.0" fill="#000000" transform="matrix(1.00, 0.00, -0.00, -1.00, 423.8, 358.6)">d</text><text xml:space="preserve" font-family="Helvetica-Light,Helvetica" font-size="72.0" fill="#000000" transform="matrix(1.00, 0.00, -0.00, -1.00, 467.8, 358.6)">e</text><text xml:space="preserve" font-family="Helvetica-Light,Helvetica" font-size="72.0" fill="#000000" transform="matrix(1.00, 0.00, -0.00, -1.00, 507.9, 358.6)">v</text><text xml:space="preserve" font-family="Helvetica-Light,Helvetica" font-size="72.0" fill="#000000" transform="matrix(1.00, 0.00, -0.00, -1.00, 543.9, 358.6)">e</text><text xml:space="preserve" font-family="Helvetica-Light,Helvetica" font-size="72.0" fill="#000000" transform="matrix(1.00, 0.00, -0.00, -1.00, 583.9, 358.6)">l</text><text xml:space="preserve" font-family="Helvetica-Light,Helvetica" font-size="72.0" fill="#000000" transform="matrix(1.00, 0.00, -0.00, -1.00, 599.9, 358.6)">o</text><text xml:space="preserve" font-family="Helvetica-Light,Helvetica" font-size="72.0" fill="#000000" transform="matrix(1.00, 0.00, -0.00, -1.00, 639.9, 358.6)">p</text><text xml:space="preserve" font-family="Helvetica-Light,Helvetica" font-size="72.0" fill="#000000" transform="matrix(1.00, 0.00, -0.00, -1.00, 683.9, 358.6)">e</text><text xml:space="preserve" font-family="Helvetica-Light,Helvetica" font-size="72.0" fill="#000000" transform="matrix(1.00, 0.00, -0.00, -1.00, 723.9, 358.6)">r</text><text xml:space="preserve" font-family="LucidaGrande,Lucida Grande" font-size="72.0" fill="#000000" transform="matrix(1.00, 0.00, -0.00, -1.00, 747.9, 358.6)"> </text><text xml:space="preserve" font-family="Helvetica-Light,Helvetica" font-size="72.0" fill="#000000" transform="matrix(1.00, 0.00, -0.00, -1.00, 93.0, 272.6)">G</text><text xml:space="preserve" font-family="Helvetica-Light,Helvetica" font-size="72.0" fill="#000000" transform="matrix(1.00, 0.00, -0.00, -1.00, 149.0, 272.6)">o</text><text xml:space="preserve" font-family="Helvetica-Light,Helvetica" font-size="72.0" fill="#000000" transform="matrix(1.00, 0.00, -0.00, -1.00, 189.0, 272.6)">v</text><text xml:space="preserve" font-family="Helvetica-Light,Helvetica" font-size="72.0" fill="#000000" transform="matrix(1.00, 0.00, -0.00, -1.00, 225.0, 272.6)">e</text><text xml:space="preserve" font-family="Helvetica-Light,Helvetica" font-size="72.0" fill="#000000" transform="matrix(1.00, 0.00, -0.00, -1.00, 265.1, 272.6)">r</text><text xml:space="preserve" font-family="Helvetica-Light,Helvetica" font-size="72.0" fill="#000000" transform="matrix(1.00, 0.00, -0.00, -1.00, 290.4, 272.6)">n</text><text xml:space="preserve" font-family="Helvetica-Light,Helvetica" font-size="72.0" fill="#000000" transform="matrix(1.00, 0.00, -0.00, -1.00, 330.4, 272.6)">m</text><text xml:space="preserve" font-family="Helvetica-Light,Helvetica" font-size="72.0" fill="#000000" transform="matrix(1.00, 0.00, -0.00, -1.00, 390.4, 272.6)">e</text><text xml:space="preserve" font-family="Helvetica-Light,Helvetica" font-size="72.0" fill="#000000" transform="matrix(1.00, 0.00, -0.00, -1.00, 430.4, 272.6)">n</text><text xml:space="preserve" font-family="Helvetica-Light,Helvetica" font-size="72.0" fill="#000000" transform="matrix(1.00, 0.00, -0.00, -1.00, 470.4, 272.6)">t</text><text xml:space="preserve" font-family="Helvetica-Light,Helvetica" font-size="72.0" fill="#000000" transform="matrix(1.00, 0.00, -0.00, -1.00, 490.4, 272.6)"> </text><text xml:space="preserve" font-family="Helvetica-Light,Helvetica" font-size="72.0" fill="#000000" transform="matrix(1.00, 0.00, -0.00, -1.00, 510.5, 272.6)">D</text><text xml:space="preserve" font-family="Helvetica-Light,Helvetica" font-size="72.0" fill="#000000" transform="matrix(1.00, 0.00, -0.00, -1.00, 562.4, 272.6)">i</text><text xml:space="preserve" font-family="Helvetica-Light,Helvetica" font-size="72.0" fill="#000000" transform="matrix(1.00, 0.00, -0.00, -1.00, 578.4, 272.6)">g</text><text xml:space="preserve" font-family="Helvetica-Light,Helvetica" font-size="72.0" fill="#000000" transform="matrix(1.00, 0.00, -0.00, -1.00, 622.4, 272.6)">i</text><text xml:space="preserve" font-family="Helvetica-Light,Helvetica" font-size="72.0" fill="#000000" transform="matrix(1.00, 0.00, -0.00, -1.00, 638.4, 272.6)">t</text><text xml:space="preserve" font-family="Helvetica-Light,Helvetica" font-size="72.0" fill="#000000" transform="matrix(1.00, 0.00, -0.00, -1.00, 658.4, 272.6)">a</text><text xml:space="preserve" font-family="Helvetica-Light,Helvetica" font-size="72.0" fill="#000000" transform="matrix(1.00, 0.00, -0.00, -1.00, 698.4, 272.6)">l</text><text xml:space="preserve" font-family="Helvetica-Light,Helvetica" font-size="72.0" fill="#000000" transform="matrix(1.00, 0.00, -0.00, -1.00, 714.4, 272.6)"> </text><text xml:space="preserve" font-family="Helvetica-Light,Helvetica" font-size="72.0" fill="#000000" transform="matrix(1.00, 0.00, -0.00, -1.00, 734.4, 272.6)">S</text><text xml:space="preserve" font-family="Helvetica-Light,Helvetica" font-size="72.0" fill="#000000" transform="matrix(1.00, 0.00, -0.00, -1.00, 778.4, 272.6)">e</text><text xml:space="preserve" font-family="Helvetica-Light,Helvetica" font-size="72.0" fill="#000000" transform="matrix(1.00, 0.00, -0.00, -1.00, 818.5, 272.6)">r</text><text xml:space="preserve" font-family="Helvetica-Light,Helvetica" font-size="72.0" fill="#000000" transform="matrix(1.00, 0.00, -0.00, -1.00, 842.4, 272.6)">v</text><text xml:space="preserve" font-family="Helvetica-Light,Helvetica" font-size="72.0" fill="#000000" transform="matrix(1.00, 0.00, -0.00, -1.00, 878.4, 272.6)">i</text><text xml:space="preserve" font-family="Helvetica-Light,Helvetica" font-size="72.0" fill="#000000" transform="matrix(1.00, 0.00, -0.00, -1.00, 894.4, 272.6)">c</text><text xml:space="preserve" font-family="Helvetica-Light,Helvetica" font-size="72.0" fill="#000000" transform="matrix(1.00, 0.00, -0.00, -1.00, 934.5, 272.6)">e</text><text xml:space="preserve" font-family="LucidaGrande,Lucida Grande" font-size="72.0" fill="#000000" transform="matrix(1.00, 0.00, -0.00, -1.00, 974.5, 272.6)"> </text><text xml:space="preserve" font-family="Helvetica-Light,Helvetica" font-size="72.0" fill="#000000" transform="matrix(1.00, 0.00, -0.00, -1.00, 93.0, 186.6)">@</text><text xml:space="preserve" font-family="Helvetica-Light,Helvetica" font-size="72.0" fill="#000000" transform="matrix(1.00, 0.00, -0.00, -1.00, 150.6, 186.6)">a</text><text xml:space="preserve" font-family="Helvetica-Light,Helvetica" font-size="72.0" fill="#000000" transform="matrix(1.00, 0.00, -0.00, -1.00, 190.6, 186.6)">l</text><text xml:space="preserve" font-family="Helvetica-Light,Helvetica" font-size="72.0" fill="#000000" transform="matrix(1.00, 0.00, -0.00, -1.00, 206.6, 186.6)">i</text><text xml:space="preserve" font-family="Helvetica-Light,Helvetica" font-size="72.0" fill="#000000" transform="matrix(1.00, 0.00, -0.00, -1.00, 222.6, 186.6)">c</text><text xml:space="preserve" font-family="Helvetica-Light,Helvetica" font-size="72.0" fill="#000000" transform="matrix(1.00, 0.00, -0.00, -1.00, 262.6, 186.6)">e</text><text xml:space="preserve" font-family="Helvetica-Light,Helvetica" font-size="72.0" fill="#000000" transform="matrix(1.00, 0.00, -0.00, -1.00, 302.7, 186.6)">b</text><text xml:space="preserve" font-family="Helvetica-Light,Helvetica" font-size="72.0" fill="#000000" transform="matrix(1.00, 0.00, -0.00, -1.00, 346.7, 186.6)">a</text><text xml:space="preserve" font-family="Helvetica-Light,Helvetica" font-size="72.0" fill="#000000" transform="matrix(1.00, 0.00, -0.00, -1.00, 386.7, 186.6)">r</text><text xml:space="preserve" font-family="Helvetica-Light,Helvetica" font-size="72.0" fill="#000000" transform="matrix(1.00, 0.00, -0.00, -1.00, 412.0, 186.6)">t</text><text xml:space="preserve" font-family="Helvetica-Light,Helvetica" font-size="72.0" fill="#000000" transform="matrix(1.00, 0.00, -0.00, -1.00, 432.0, 186.6)">l</text><text xml:space="preserve" font-family="Helvetica-Light,Helvetica" font-size="72.0" fill="#000000" transform="matrix(1.00, 0.00, -0.00, -1.00, 448.0, 186.6)">e</text><text xml:space="preserve" font-family="Helvetica-Light,Helvetica" font-size="72.0" fill="#000000" transform="matrix(1.00, 0.00, -0.00, -1.00, 488.0, 186.6)">t</text><text xml:space="preserve" font-family="Helvetica-Light,Helvetica" font-size="72.0" fill="#000000" transform="matrix(1.00, 0.00, -0.00, -1.00, 508.0, 186.6)">t</text></g></svg>