<?xml version="1.0" encoding="UTF-8" standalone="no"?><svg xmlns="http://www.w3.org/2000/svg" xmlns:xlink="http://www.w3.org/1999/xlink" clip-rule="evenodd" stroke-miterlimit="10" viewBox="0 0 1600 900"><desc>SVG generated by Keynote</desc><defs></defs><g transform="matrix(1.00, 0.00, -0.00, -1.00, 0.0, 900.0)"><path d="M 0.0 900.0 L 1600.0 900.0 L 1600.0 0.0 L 0.0 0.0 Z M 0.0 900.0 " fill="#EAEAEA"></path><image xlink:href="E7D77907DF97DFEE8920582F1FE04D51.jpeg" width="1600.00" height="1066.00" transform="matrix(1.07, 0.00, -0.00, -1.07, -42.0, 959.9)"></image><image xlink:href="5B42BE75B4291DDD7A8493ED72913DB9.png" width="1082.00" height="128.00" transform="matrix(1.00, 0.00, -0.00, -1.00, 96.0, 718.0)"></image><text xml:space="preserve" font-family="Helvetica-Bold,Helvetica" font-weight="bold" font-size="144.0" fill="#FFFFFF" transform="matrix(1.00, 0.00, -0.00, -1.00, 93.0, 607.1)">I</text><text xml:space="preserve" font-family="Helvetica-Bold,Helvetica" font-weight="bold" font-size="144.0" fill="#FFFFFF" transform="matrix(1.00, 0.00, -0.00, -1.00, 133.0, 607.1)">’</text><text xml:space="preserve" font-family="Helvetica-Bold,Helvetica" font-weight="bold" font-size="144.0" fill="#FFFFFF" transform="matrix(1.00, 0.00, -0.00, -1.00, 173.0, 607.1)">m</text><text xml:space="preserve" font-family="Helvetica-Bold,Helvetica" font-weight="bold" font-size="144.0" fill="#FFFFFF" transform="matrix(1.00, 0.00, -0.00, -1.00, 301.0, 607.1)"> </text><text xml:space="preserve" font-family="Helvetica-Bold,Helvetica" font-weight="bold" font-size="144.0" fill="#FFFFFF" transform="matrix(1.00, 0.00, -0.00, -1.00, 341.0, 607.1)">f</text><text xml:space="preserve" font-family="Helvetica-Bold,Helvetica" font-weight="bold" font-size="144.0" fill="#FFFFFF" transform="matrix(1.00, 0.00, -0.00, -1.00, 389.0, 607.1)">r</text><text xml:space="preserve" font-family="Helvetica-Bold,Helvetica" font-weight="bold" font-size="144.0" fill="#FFFFFF" transform="matrix(1.00, 0.00, -0.00, -1.00, 445.0, 607.1)">o</text><text xml:space="preserve" font-family="Helvetica-Bold,Helvetica" font-weight="bold" font-size="144.0" fill="#FFFFFF" transform="matrix(1.00, 0.00, -0.00, -1.00, 533.0, 607.1)">m</text><text xml:space="preserve" font-family="Helvetica-Bold,Helvetica" font-weight="bold" font-size="144.0" fill="#FFFFFF" transform="matrix(1.00, 0.00, -0.00, -1.00, 661.0, 607.1)"> </text><text xml:space="preserve" font-family="Helvetica-Bold,Helvetica" font-weight="bold" font-size="144.0" fill="#FFFFFF" transform="matrix(1.00, 0.00, -0.00, -1.00, 701.0, 607.1)">t</text><text xml:space="preserve" font-family="Helvetica-Bold,Helvetica" font-weight="bold" font-size="144.0" fill="#FFFFFF" transform="matrix(1.00, 0.00, -0.00, -1.00, 749.0, 607.1)">h</text><text xml:space="preserve" font-family="Helvetica-Bold,Helvetica" font-weight="bold" font-size="144.0" fill="#FFFFFF" transform="matrix(1.00, 0.00, -0.00, -1.00, 836.9, 607.1)">e</text><text xml:space="preserve" font-family="Helvetica-Bold,Helvetica" font-weight="bold" font-size="144.0" fill="#FFFFFF" transform="matrix(1.00, 0.00, -0.00, -1.00, 917.0, 607.1)"> </text><text xml:space="preserve" font-family="Helvetica-Bold,Helvetica" font-weight="bold" font-size="144.0" fill="#FFFFFF" transform="matrix(1.00, 0.00, -0.00, -1.00, 957.0, 607.1)">U</text><text xml:space="preserve" font-family="Helvetica-Bold,Helvetica" font-weight="bold" font-size="144.0" fill="#FFFFFF" transform="matrix(1.00, 0.00, -0.00, -1.00, 1061.0, 607.1)">K</text><text xml:space="preserve" font-family="Helvetica-Bold,Helvetica" font-weight="bold" font-size="144.0" fill="#FFFFFF" transform="matrix(1.00, 0.00, -0.00, -1.00, 1165.0, 607.1)"> </text><image xlink:href="673323E01FD233AB1C3D40E937473871.png" width="1334.00" height="159.00" transform="matrix(1.00, 0.00, -0.00, -1.00, 92.0, 547.0)"></image><text xml:space="preserve" font-family="Helvetica-Bold,Helvetica" font-weight="bold" font-size="144.0" fill="#FFFFFF" transform="matrix(1.00, 0.00, -0.00, -1.00, 93.0, 434.1)">G</text><text xml:space="preserve" font-family="Helvetica-Bold,Helvetica" font-weight="bold" font-size="144.0" fill="#FFFFFF" transform="matrix(1.00, 0.00, -0.00, -1.00, 205.0, 434.1)">o</text><text xml:space="preserve" font-family="Helvetica-Bold,Helvetica" font-weight="bold" font-size="144.0" fill="#FFFFFF" transform="matrix(1.00, 0.00, -0.00, -1.00, 292.9, 434.1)">v</text><text xml:space="preserve" font-family="Helvetica-Bold,Helvetica" font-weight="bold" font-size="144.0" fill="#FFFFFF" transform="matrix(1.00, 0.00, -0.00, -1.00, 373.0, 434.1)">e</text><text xml:space="preserve" font-family="Helvetica-Bold,Helvetica" font-weight="bold" font-size="144.0" fill="#FFFFFF" transform="matrix(1.00, 0.00, -0.00, -1.00, 453.1, 434.1)">r</text><text xml:space="preserve" font-family="Helvetica-Bold,Helvetica" font-weight="bold" font-size="144.0" fill="#FFFFFF" transform="matrix(1.00, 0.00, -0.00, -1.00, 509.2, 434.1)">n</text><text xml:space="preserve" font-family="Helvetica-Bold,Helvetica" font-weight="bold" font-size="144.0" fill="#FFFFFF" transform="matrix(1.00, 0.00, -0.00, -1.00, 597.1, 434.1)">m</text><text xml:space="preserve" font-family="Helvetica-Bold,Helvetica" font-weight="bold" font-size="144.0" fill="#FFFFFF" transform="matrix(1.00, 0.00, -0.00, -1.00, 725.2, 434.1)">e</text><text xml:space="preserve" font-family="Helvetica-Bold,Helvetica" font-weight="bold" font-size="144.0" fill="#FFFFFF" transform="matrix(1.00, 0.00, -0.00, -1.00, 805.3, 434.1)">n</text><text xml:space="preserve" font-family="Helvetica-Bold,Helvetica" font-weight="bold" font-size="144.0" fill="#FFFFFF" transform="matrix(1.00, 0.00, -0.00, -1.00, 893.3, 434.1)">t</text><text xml:space="preserve" font-family="Helvetica-Bold,Helvetica" font-weight="bold" font-size="144.0" fill="#FFFFFF" transform="matrix(1.00, 0.00, -0.00, -1.00, 941.2, 434.1)"> </text><text xml:space="preserve" font-family="Helvetica-Bold,Helvetica" font-weight="bold" font-size="144.0" fill="#FFFFFF" transform="matrix(1.00, 0.00, -0.00, -1.00, 981.2, 434.1)">D</text><text xml:space="preserve" font-family="Helvetica-Bold,Helvetica" font-weight="bold" font-size="144.0" fill="#FFFFFF" transform="matrix(1.00, 0.00, -0.00, -1.00, 1085.2, 434.1)">i</text><text xml:space="preserve" font-family="Helvetica-Bold,Helvetica" font-weight="bold" font-size="144.0" fill="#FFFFFF" transform="matrix(1.00, 0.00, -0.00, -1.00, 1125.2, 434.1)">g</text><text xml:space="preserve" font-family="Helvetica-Bold,Helvetica" font-weight="bold" font-size="144.0" fill="#FFFFFF" transform="matrix(1.00, 0.00, -0.00, -1.00, 1213.1, 434.1)">i</text><text xml:space="preserve" font-family="Helvetica-Bold,Helvetica" font-weight="bold" font-size="144.0" fill="#FFFFFF" transform="matrix(1.00, 0.00, -0.00, -1.00, 1253.1, 434.1)">t</text><text xml:space="preserve" font-family="Helvetica-Bold,Helvetica" font-weight="bold" font-size="144.0" fill="#FFFFFF" transform="matrix(1.00, 0.00, -0.00, -1.00, 1301.1, 434.1)">a</text><text xml:space="preserve" font-family="Helvetica-Bold,Helvetica" font-weight="bold" font-size="144.0" fill="#FFFFFF" transform="matrix(1.00, 0.00, -0.00, -1.00, 1381.2, 434.1)">l</text><text xml:space="preserve" font-family="Helvetica-Bold,Helvetica" font-weight="bold" font-size="144.0" fill="#FFFFFF" transform="matrix(1.00, 0.00, -0.00, -1.00, 1421.1, 434.1)"> </text><image xlink:href="D64A0A10144932D8009F07930168E56A.png" width="524.00" height="130.00" transform="matrix(1.00, 0.00, -0.00, -1.00, 92.0, 374.0)"></image><text xml:space="preserve" font-family="Helvetica-Bold,Helvetica" font-weight="bold" font-size="144.0" fill="#FFFFFF" transform="matrix(1.00, 0.00, -0.00, -1.00, 93.0, 261.1)">S</text><text xml:space="preserve" font-family="Helvetica-Bold,Helvetica" font-weight="bold" font-size="144.0" fill="#FFFFFF" transform="matrix(1.00, 0.00, -0.00, -1.00, 189.0, 261.1)">e</text><text xml:space="preserve" font-family="Helvetica-Bold,Helvetica" font-weight="bold" font-size="144.0" fill="#FFFFFF" transform="matrix(1.00, 0.00, -0.00, -1.00, 269.2, 261.1)">r</text><text xml:space="preserve" font-family="Helvetica-Bold,Helvetica" font-weight="bold" font-size="144.0" fill="#FFFFFF" transform="matrix(1.00, 0.00, -0.00, -1.00, 325.2, 261.1)">v</text><text xml:space="preserve" font-family="Helvetica-Bold,Helvetica" font-weight="bold" font-size="144.0" fill="#FFFFFF" transform="matrix(1.00, 0.00, -0.00, -1.00, 405.3, 261.1)">i</text><text xml:space="preserve" font-family="Helvetica-Bold,Helvetica" font-weight="bold" font-size="144.0" fill="#FFFFFF" transform="matrix(1.00, 0.00, -0.00, -1.00, 445.3, 261.1)">c</text><text xml:space="preserve" font-family="Helvetica-Bold,Helvetica" font-weight="bold" font-size="144.0" fill="#FFFFFF" transform="matrix(1.00, 0.00, -0.00, -1.00, 525.4, 261.1)">e</text><path d="M 0.0 90.0 L 1600.0 90.0 L 1600.0 0.0 L 0.0 0.0 Z M 0.0 90.0 " fill="#008ACB"></path><text xml:space="preserve" font-family="Helvetica,Helvetica" font-size="42.0" fill="#FEFFFF" transform="matrix(1.00, 0.00, -0.00, -1.00, 1419.0, 33.7)">G</text><text xml:space="preserve" font-family="Helvetica,Helvetica" font-size="42.0" fill="#FEFFFF" transform="matrix(1.00, 0.00, -0.00, -1.00, 1451.6, 33.7)">D</text><text xml:space="preserve" font-family="Helvetica,Helvetica" font-size="42.0" fill="#FEFFFF" transform="matrix(1.00, 0.00, -0.00, -1.00, 1482.0, 33.7)">S</text></g></svg>