<?xml version="1.0" encoding="UTF-8" standalone="no"?><svg xmlns="http://www.w3.org/2000/svg" xmlns:xlink="http://www.w3.org/1999/xlink" clip-rule="evenodd" stroke-miterlimit="10" viewBox="0 0 1600 900"><desc>SVG generated by Keynote</desc><defs></defs><g transform="matrix(1.00, 0.00, -0.00, -1.00, 0.0, 900.0)"><path d="M 0.0 900.0 L 1600.0 900.0 L 1600.0 0.0 L 0.0 0.0 Z M 0.0 900.0 " fill="#EAEAEA"></path><image xlink:href="66963F74DD6A1927EC67546C6A05E463.png" width="778.00" height="4096.00" transform="matrix(0.90, 0.00, -0.00, -0.90, 801.0, 924.0)"></image><g><clipPath id="clip0x608000cadc20"><path d="M 801.0 932.0 L 1504.0 932.0 L 1504.0 868.0 L 801.0 868.0 Z M 801.0 932.0 "></path></clipPath><g clip-path="url(#clip0x608000cadc20)"><image xlink:href="../../F5476999-037D-43A3-88ED-EBD61E4C12D7/assets/66963F74DD6A1927EC67546C6A05E463.png" width="778.00" height="4096.00" transform="matrix(0.90, 0.00, -0.00, -0.90, 801.0, 899.8)"></image></g></g><path d="M 0.0 90.0 L 1600.0 90.0 L 1600.0 0.0 L 0.0 0.0 Z M 0.0 90.0 " fill="#008ACB"></path><text xml:space="preserve" font-family="Helvetica,Helvetica" font-size="42.0" fill="#FEFFFF" transform="matrix(1.00, 0.00, -0.00, -1.00, 1419.0, 33.7)">G</text><text xml:space="preserve" font-family="Helvetica,Helvetica" font-size="42.0" fill="#FEFFFF" transform="matrix(1.00, 0.00, -0.00, -1.00, 1451.6, 33.7)">D</text><text xml:space="preserve" font-family="Helvetica,Helvetica" font-size="42.0" fill="#FEFFFF" transform="matrix(1.00, 0.00, -0.00, -1.00, 1482.0, 33.7)">S</text><image xlink:href="90BA507C99C5CB80AF3880845D9D9529.png" width="200.00" height="200.00" transform="matrix(3.04, 0.00, -0.00, -3.04, 102.0, 803.0)"></image></g></svg>