<?xml version="1.0" encoding="UTF-8" standalone="no"?><svg xmlns="http://www.w3.org/2000/svg" xmlns:xlink="http://www.w3.org/1999/xlink" clip-rule="evenodd" stroke-miterlimit="10" viewBox="0 0 1600 900"><desc>SVG generated by Keynote</desc><defs></defs><g transform="matrix(1.00, 0.00, -0.00, -1.00, 0.0, 900.0)"><path d="M 0.0 900.0 L 1600.0 900.0 L 1600.0 0.0 L 0.0 0.0 Z M 0.0 900.0 " fill="#EAEAEA"></path><image xlink:href="2A7D9267A3EC90F65CFFEE4E31E05FF9.jpeg" width="1600.00" height="1175.00" transform="matrix(1.15, 0.00, -0.00, -1.15, 0.0, 1110.5)"></image><g opacity="0.10"><g><clipPath id="clip0x6080008ae0a0"><path d="M 0.0 0.0 L 1600.0 0.0 L 1600.0 900.0 L 0.0 900.0 Z M 0.0 0.0 "></path></clipPath><g clip-path="url(#clip0x6080008ae0a0)"><path d="M 0.0 904.0 L 1620.0 904.0 L 1620.0 -9.0 L 0.0 -9.0 Z M 0.0 904.0 " fill="#060200"></path></g></g></g><image xlink:href="1028DF48BE8A2689443E67B57CB901A3.png" width="607.00" height="105.00" transform="matrix(1.00, 0.00, -0.00, -1.00, 91.0, 597.0)"></image><text xml:space="preserve" font-family="Helvetica-Bold,Helvetica" font-weight="bold" font-size="90.0" fill="#FFFFFF" transform="matrix(1.00, 0.00, -0.00, -1.00, 96.0, 525.7)">W</text><text xml:space="preserve" font-family="Helvetica-Bold,Helvetica" font-weight="bold" font-size="90.0" fill="#FFFFFF" transform="matrix(1.00, 0.00, -0.00, -1.00, 179.4, 525.7)">e</text><text xml:space="preserve" font-family="Helvetica-Bold,Helvetica" font-weight="bold" font-size="90.0" fill="#FFFFFF" transform="matrix(1.00, 0.00, -0.00, -1.00, 229.4, 525.7)"> </text><text xml:space="preserve" font-family="Helvetica-Bold,Helvetica" font-weight="bold" font-size="90.0" fill="#FFFFFF" transform="matrix(1.00, 0.00, -0.00, -1.00, 254.4, 525.7)">s</text><text xml:space="preserve" font-family="Helvetica-Bold,Helvetica" font-weight="bold" font-size="90.0" fill="#FFFFFF" transform="matrix(1.00, 0.00, -0.00, -1.00, 304.5, 525.7)">t</text><text xml:space="preserve" font-family="Helvetica-Bold,Helvetica" font-weight="bold" font-size="90.0" fill="#FFFFFF" transform="matrix(1.00, 0.00, -0.00, -1.00, 334.5, 525.7)">a</text><text xml:space="preserve" font-family="Helvetica-Bold,Helvetica" font-weight="bold" font-size="90.0" fill="#FFFFFF" transform="matrix(1.00, 0.00, -0.00, -1.00, 384.5, 525.7)">r</text><text xml:space="preserve" font-family="Helvetica-Bold,Helvetica" font-weight="bold" font-size="90.0" fill="#FFFFFF" transform="matrix(1.00, 0.00, -0.00, -1.00, 419.6, 525.7)">t</text><text xml:space="preserve" font-family="Helvetica-Bold,Helvetica" font-weight="bold" font-size="90.0" fill="#FFFFFF" transform="matrix(1.00, 0.00, -0.00, -1.00, 449.5, 525.7)">e</text><text xml:space="preserve" font-family="Helvetica-Bold,Helvetica" font-weight="bold" font-size="90.0" fill="#FFFFFF" transform="matrix(1.00, 0.00, -0.00, -1.00, 499.6, 525.7)">d</text><text xml:space="preserve" font-family="Helvetica-Bold,Helvetica" font-weight="bold" font-size="90.0" fill="#FFFFFF" transform="matrix(1.00, 0.00, -0.00, -1.00, 554.6, 525.7)"> </text><text xml:space="preserve" font-family="Helvetica-Bold,Helvetica" font-weight="bold" font-size="90.0" fill="#FFFFFF" transform="matrix(1.00, 0.00, -0.00, -1.00, 579.6, 525.7)">b</text><text xml:space="preserve" font-family="Helvetica-Bold,Helvetica" font-weight="bold" font-size="90.0" fill="#FFFFFF" transform="matrix(1.00, 0.00, -0.00, -1.00, 634.5, 525.7)">y</text><text xml:space="preserve" font-family="Helvetica-Bold,Helvetica" font-weight="bold" font-size="90.0" fill="#FFFFFF" transform="matrix(1.00, 0.00, -0.00, -1.00, 684.6, 525.7)"> </text><image xlink:href="3C6690B6FA2FE9DF67F705ED470496A6.png" width="736.00" height="107.00" transform="matrix(1.00, 0.00, -0.00, -1.00, 95.0, 491.0)"></image><text xml:space="preserve" font-family="Helvetica-Bold,Helvetica" font-weight="bold" font-size="90.0" fill="#FFFFFF" transform="matrix(1.00, 0.00, -0.00, -1.00, 96.0, 417.7)">b</text><text xml:space="preserve" font-family="Helvetica-Bold,Helvetica" font-weight="bold" font-size="90.0" fill="#FFFFFF" transform="matrix(1.00, 0.00, -0.00, -1.00, 151.0, 417.7)">u</text><text xml:space="preserve" font-family="Helvetica-Bold,Helvetica" font-weight="bold" font-size="90.0" fill="#FFFFFF" transform="matrix(1.00, 0.00, -0.00, -1.00, 205.9, 417.7)">i</text><text xml:space="preserve" font-family="Helvetica-Bold,Helvetica" font-weight="bold" font-size="90.0" fill="#FFFFFF" transform="matrix(1.00, 0.00, -0.00, -1.00, 230.9, 417.7)">l</text><text xml:space="preserve" font-family="Helvetica-Bold,Helvetica" font-weight="bold" font-size="90.0" fill="#FFFFFF" transform="matrix(1.00, 0.00, -0.00, -1.00, 255.9, 417.7)">d</text><text xml:space="preserve" font-family="Helvetica-Bold,Helvetica" font-weight="bold" font-size="90.0" fill="#FFFFFF" transform="matrix(1.00, 0.00, -0.00, -1.00, 310.8, 417.7)">i</text><text xml:space="preserve" font-family="Helvetica-Bold,Helvetica" font-weight="bold" font-size="90.0" fill="#FFFFFF" transform="matrix(1.00, 0.00, -0.00, -1.00, 335.8, 417.7)">n</text><text xml:space="preserve" font-family="Helvetica-Bold,Helvetica" font-weight="bold" font-size="90.0" fill="#FFFFFF" transform="matrix(1.00, 0.00, -0.00, -1.00, 390.8, 417.7)">g</text><text xml:space="preserve" font-family="Helvetica-Bold,Helvetica" font-weight="bold" font-size="90.0" fill="#FFFFFF" transform="matrix(1.00, 0.00, -0.00, -1.00, 445.7, 417.7)"> </text><text xml:space="preserve" font-family="Helvetica-Bold,Helvetica" font-weight="bold" font-size="90.0" fill="#FFFFFF" transform="matrix(1.00, 0.00, -0.00, -1.00, 470.7, 417.7)">G</text><text xml:space="preserve" font-family="Helvetica-Bold,Helvetica" font-weight="bold" font-size="90.0" fill="#FFFFFF" transform="matrix(1.00, 0.00, -0.00, -1.00, 540.7, 417.7)">O</text><text xml:space="preserve" font-family="Helvetica-Bold,Helvetica" font-weight="bold" font-size="90.0" fill="#FFFFFF" transform="matrix(1.00, 0.00, -0.00, -1.00, 610.7, 417.7)">V</text><text xml:space="preserve" font-family="Helvetica-Bold,Helvetica" font-weight="bold" font-size="90.0" fill="#FFFFFF" transform="matrix(1.00, 0.00, -0.00, -1.00, 662.4, 417.7)">.</text><text xml:space="preserve" font-family="Helvetica-Bold,Helvetica" font-weight="bold" font-size="90.0" fill="#FFFFFF" transform="matrix(1.00, 0.00, -0.00, -1.00, 687.4, 417.7)">U</text><text xml:space="preserve" font-family="Helvetica-Bold,Helvetica" font-weight="bold" font-size="90.0" fill="#FFFFFF" transform="matrix(1.00, 0.00, -0.00, -1.00, 752.4, 417.7)">K</text><path d="M 0.0 90.0 L 1600.0 90.0 L 1600.0 0.0 L 0.0 0.0 Z M 0.0 90.0 " fill="#008ACB"></path><text xml:space="preserve" font-family="Helvetica,Helvetica" font-size="42.0" fill="#FEFFFF" transform="matrix(1.00, 0.00, -0.00, -1.00, 1419.0, 33.7)">G</text><text xml:space="preserve" font-family="Helvetica,Helvetica" font-size="42.0" fill="#FEFFFF" transform="matrix(1.00, 0.00, -0.00, -1.00, 1451.6, 33.7)">D</text><text xml:space="preserve" font-family="Helvetica,Helvetica" font-size="42.0" fill="#FEFFFF" transform="matrix(1.00, 0.00, -0.00, -1.00, 1482.0, 33.7)">S</text></g></svg>