<?xml version="1.0" encoding="UTF-8" standalone="no"?><svg xmlns="http://www.w3.org/2000/svg" xmlns:xlink="http://www.w3.org/1999/xlink" clip-rule="evenodd" stroke-miterlimit="10" viewBox="0 0 1600 900"><desc>SVG generated by Keynote</desc><defs></defs><g transform="matrix(1.00, 0.00, -0.00, -1.00, 0.0, 900.0)"><path d="M 0.0 900.0 L 1600.0 900.0 L 1600.0 0.0 L 0.0 0.0 Z M 0.0 900.0 " fill="#EAEAEA"></path><image xlink:href="../../BDDA7FD9-5D07-412E-8255-9E08ABD288AC/assets/2A7D9267A3EC90F65CFFEE4E31E05FF9.jpeg" width="1600.00" height="1175.00" transform="matrix(1.15, 0.00, -0.00, -1.15, 0.0, 1110.5)"></image><g opacity="0.10"><g><clipPath id="clip0x600000aa86a0"><path d="M 0.0 0.0 L 1600.0 0.0 L 1600.0 900.0 L 0.0 900.0 Z M 0.0 0.0 "></path></clipPath><g clip-path="url(#clip0x600000aa86a0)"><path d="M 0.0 904.0 L 1620.0 904.0 L 1620.0 -9.0 L 0.0 -9.0 Z M 0.0 904.0 " fill="#060200"></path></g></g></g><image xlink:href="8BC84F415423A816CC3AED7CE5B030EC.png" width="939.00" height="106.00" transform="matrix(1.00, 0.00, -0.00, -1.00, 91.0, 652.0)"></image><text xml:space="preserve" font-family="Helvetica-Bold,Helvetica" font-weight="bold" font-size="90.0" fill="#FFFFFF" transform="matrix(1.00, 0.00, -0.00, -1.00, 96.0, 579.7)">T</text><text xml:space="preserve" font-family="Helvetica-Bold,Helvetica" font-weight="bold" font-size="90.0" fill="#FFFFFF" transform="matrix(1.00, 0.00, -0.00, -1.00, 151.0, 579.7)">h</text><text xml:space="preserve" font-family="Helvetica-Bold,Helvetica" font-weight="bold" font-size="90.0" fill="#FFFFFF" transform="matrix(1.00, 0.00, -0.00, -1.00, 205.9, 579.7)">e</text><text xml:space="preserve" font-family="Helvetica-Bold,Helvetica" font-weight="bold" font-size="90.0" fill="#FFFFFF" transform="matrix(1.00, 0.00, -0.00, -1.00, 256.0, 579.7)"> </text><text xml:space="preserve" font-family="Helvetica-Bold,Helvetica" font-weight="bold" font-size="90.0" fill="#FFFFFF" transform="matrix(1.00, 0.00, -0.00, -1.00, 281.0, 579.7)">b</text><text xml:space="preserve" font-family="Helvetica-Bold,Helvetica" font-weight="bold" font-size="90.0" fill="#FFFFFF" transform="matrix(1.00, 0.00, -0.00, -1.00, 335.9, 579.7)">e</text><text xml:space="preserve" font-family="Helvetica-Bold,Helvetica" font-weight="bold" font-size="90.0" fill="#FFFFFF" transform="matrix(1.00, 0.00, -0.00, -1.00, 386.0, 579.7)">s</text><text xml:space="preserve" font-family="Helvetica-Bold,Helvetica" font-weight="bold" font-size="90.0" fill="#FFFFFF" transform="matrix(1.00, 0.00, -0.00, -1.00, 436.1, 579.7)">t</text><text xml:space="preserve" font-family="Helvetica-Bold,Helvetica" font-weight="bold" font-size="90.0" fill="#FFFFFF" transform="matrix(1.00, 0.00, -0.00, -1.00, 466.0, 579.7)"> </text><text xml:space="preserve" font-family="Helvetica-Bold,Helvetica" font-weight="bold" font-size="90.0" fill="#FFFFFF" transform="matrix(1.00, 0.00, -0.00, -1.00, 491.0, 579.7)">p</text><text xml:space="preserve" font-family="Helvetica-Bold,Helvetica" font-weight="bold" font-size="90.0" fill="#FFFFFF" transform="matrix(1.00, 0.00, -0.00, -1.00, 546.0, 579.7)">l</text><text xml:space="preserve" font-family="Helvetica-Bold,Helvetica" font-weight="bold" font-size="90.0" fill="#FFFFFF" transform="matrix(1.00, 0.00, -0.00, -1.00, 571.0, 579.7)">a</text><text xml:space="preserve" font-family="Helvetica-Bold,Helvetica" font-weight="bold" font-size="90.0" fill="#FFFFFF" transform="matrix(1.00, 0.00, -0.00, -1.00, 621.0, 579.7)">c</text><text xml:space="preserve" font-family="Helvetica-Bold,Helvetica" font-weight="bold" font-size="90.0" fill="#FFFFFF" transform="matrix(1.00, 0.00, -0.00, -1.00, 671.1, 579.7)">e</text><text xml:space="preserve" font-family="Helvetica-Bold,Helvetica" font-weight="bold" font-size="90.0" fill="#FFFFFF" transform="matrix(1.00, 0.00, -0.00, -1.00, 721.2, 579.7)"> </text><text xml:space="preserve" font-family="Helvetica-Bold,Helvetica" font-weight="bold" font-size="90.0" fill="#FFFFFF" transform="matrix(1.00, 0.00, -0.00, -1.00, 746.2, 579.7)">t</text><text xml:space="preserve" font-family="Helvetica-Bold,Helvetica" font-weight="bold" font-size="90.0" fill="#FFFFFF" transform="matrix(1.00, 0.00, -0.00, -1.00, 776.1, 579.7)">o</text><text xml:space="preserve" font-family="Helvetica-Bold,Helvetica" font-weight="bold" font-size="90.0" fill="#FFFFFF" transform="matrix(1.00, 0.00, -0.00, -1.00, 831.1, 579.7)"> </text><text xml:space="preserve" font-family="Helvetica-Bold,Helvetica" font-weight="bold" font-size="90.0" fill="#FFFFFF" transform="matrix(1.00, 0.00, -0.00, -1.00, 856.1, 579.7)">ï¬</text><text xml:space="preserve" font-family="Helvetica-Bold,Helvetica" font-weight="bold" font-size="90.0" fill="#FFFFFF" transform="matrix(1.00, 0.00, -0.00, -1.00, 911.1, 579.7)">n</text><text xml:space="preserve" font-family="Helvetica-Bold,Helvetica" font-weight="bold" font-size="90.0" fill="#FFFFFF" transform="matrix(1.00, 0.00, -0.00, -1.00, 966.0, 579.7)">d</text><text xml:space="preserve" font-family="Helvetica-Bold,Helvetica" font-weight="bold" font-size="90.0" fill="#FFFFFF" transform="matrix(1.00, 0.00, -0.00, -1.00, 1021.0, 579.7)"> </text><image xlink:href="BC5BFEB8852DC5A38DB91F7C124227D4.png" width="916.00" height="105.00" transform="matrix(1.00, 0.00, -0.00, -1.00, 92.0, 543.0)"></image><text xml:space="preserve" font-family="Helvetica-Bold,Helvetica" font-weight="bold" font-size="90.0" fill="#FFFFFF" transform="matrix(1.00, 0.00, -0.00, -1.00, 96.0, 471.7)">g</text><text xml:space="preserve" font-family="Helvetica-Bold,Helvetica" font-weight="bold" font-size="90.0" fill="#FFFFFF" transform="matrix(1.00, 0.00, -0.00, -1.00, 151.0, 471.7)">o</text><text xml:space="preserve" font-family="Helvetica-Bold,Helvetica" font-weight="bold" font-size="90.0" fill="#FFFFFF" transform="matrix(1.00, 0.00, -0.00, -1.00, 205.9, 471.7)">v</text><text xml:space="preserve" font-family="Helvetica-Bold,Helvetica" font-weight="bold" font-size="90.0" fill="#FFFFFF" transform="matrix(1.00, 0.00, -0.00, -1.00, 256.0, 471.7)">e</text><text xml:space="preserve" font-family="Helvetica-Bold,Helvetica" font-weight="bold" font-size="90.0" fill="#FFFFFF" transform="matrix(1.00, 0.00, -0.00, -1.00, 306.1, 471.7)">r</text><text xml:space="preserve" font-family="Helvetica-Bold,Helvetica" font-weight="bold" font-size="90.0" fill="#FFFFFF" transform="matrix(1.00, 0.00, -0.00, -1.00, 341.1, 471.7)">n</text><text xml:space="preserve" font-family="Helvetica-Bold,Helvetica" font-weight="bold" font-size="90.0" fill="#FFFFFF" transform="matrix(1.00, 0.00, -0.00, -1.00, 396.1, 471.7)">m</text><text xml:space="preserve" font-family="Helvetica-Bold,Helvetica" font-weight="bold" font-size="90.0" fill="#FFFFFF" transform="matrix(1.00, 0.00, -0.00, -1.00, 476.1, 471.7)">e</text><text xml:space="preserve" font-family="Helvetica-Bold,Helvetica" font-weight="bold" font-size="90.0" fill="#FFFFFF" transform="matrix(1.00, 0.00, -0.00, -1.00, 526.2, 471.7)">n</text><text xml:space="preserve" font-family="Helvetica-Bold,Helvetica" font-weight="bold" font-size="90.0" fill="#FFFFFF" transform="matrix(1.00, 0.00, -0.00, -1.00, 581.1, 471.7)">t</text><text xml:space="preserve" font-family="Helvetica-Bold,Helvetica" font-weight="bold" font-size="90.0" fill="#FFFFFF" transform="matrix(1.00, 0.00, -0.00, -1.00, 611.1, 471.7)"> </text><text xml:space="preserve" font-family="Helvetica-Bold,Helvetica" font-weight="bold" font-size="90.0" fill="#FFFFFF" transform="matrix(1.00, 0.00, -0.00, -1.00, 636.1, 471.7)">s</text><text xml:space="preserve" font-family="Helvetica-Bold,Helvetica" font-weight="bold" font-size="90.0" fill="#FFFFFF" transform="matrix(1.00, 0.00, -0.00, -1.00, 686.2, 471.7)">e</text><text xml:space="preserve" font-family="Helvetica-Bold,Helvetica" font-weight="bold" font-size="90.0" fill="#FFFFFF" transform="matrix(1.00, 0.00, -0.00, -1.00, 736.2, 471.7)">r</text><text xml:space="preserve" font-family="Helvetica-Bold,Helvetica" font-weight="bold" font-size="90.0" fill="#FFFFFF" transform="matrix(1.00, 0.00, -0.00, -1.00, 771.3, 471.7)">v</text><text xml:space="preserve" font-family="Helvetica-Bold,Helvetica" font-weight="bold" font-size="90.0" fill="#FFFFFF" transform="matrix(1.00, 0.00, -0.00, -1.00, 821.3, 471.7)">i</text><text xml:space="preserve" font-family="Helvetica-Bold,Helvetica" font-weight="bold" font-size="90.0" fill="#FFFFFF" transform="matrix(1.00, 0.00, -0.00, -1.00, 846.3, 471.7)">c</text><text xml:space="preserve" font-family="Helvetica-Bold,Helvetica" font-weight="bold" font-size="90.0" fill="#FFFFFF" transform="matrix(1.00, 0.00, -0.00, -1.00, 896.4, 471.7)">e</text><text xml:space="preserve" font-family="Helvetica-Bold,Helvetica" font-weight="bold" font-size="90.0" fill="#FFFFFF" transform="matrix(1.00, 0.00, -0.00, -1.00, 946.5, 471.7)">s</text><text xml:space="preserve" font-family="Helvetica-Bold,Helvetica" font-weight="bold" font-size="90.0" fill="#FFFFFF" transform="matrix(1.00, 0.00, -0.00, -1.00, 996.5, 471.7)"> </text><image xlink:href="0A857AE917749E73ECFEE0C16D32F06E.png" width="693.00" height="88.00" transform="matrix(1.00, 0.00, -0.00, -1.00, 92.0, 436.0)"></image><text xml:space="preserve" font-family="Helvetica-Bold,Helvetica" font-weight="bold" font-size="90.0" fill="#FFFFFF" transform="matrix(1.00, 0.00, -0.00, -1.00, 96.0, 363.7)">a</text><text xml:space="preserve" font-family="Helvetica-Bold,Helvetica" font-weight="bold" font-size="90.0" fill="#FFFFFF" transform="matrix(1.00, 0.00, -0.00, -1.00, 146.1, 363.7)">n</text><text xml:space="preserve" font-family="Helvetica-Bold,Helvetica" font-weight="bold" font-size="90.0" fill="#FFFFFF" transform="matrix(1.00, 0.00, -0.00, -1.00, 201.0, 363.7)">d</text><text xml:space="preserve" font-family="Helvetica-Bold,Helvetica" font-weight="bold" font-size="90.0" fill="#FFFFFF" transform="matrix(1.00, 0.00, -0.00, -1.00, 256.0, 363.7)"> </text><text xml:space="preserve" font-family="Helvetica-Bold,Helvetica" font-weight="bold" font-size="90.0" fill="#FFFFFF" transform="matrix(1.00, 0.00, -0.00, -1.00, 281.0, 363.7)">i</text><text xml:space="preserve" font-family="Helvetica-Bold,Helvetica" font-weight="bold" font-size="90.0" fill="#FFFFFF" transform="matrix(1.00, 0.00, -0.00, -1.00, 306.0, 363.7)">n</text><text xml:space="preserve" font-family="Helvetica-Bold,Helvetica" font-weight="bold" font-size="90.0" fill="#FFFFFF" transform="matrix(1.00, 0.00, -0.00, -1.00, 360.9, 363.7)">f</text><text xml:space="preserve" font-family="Helvetica-Bold,Helvetica" font-weight="bold" font-size="90.0" fill="#FFFFFF" transform="matrix(1.00, 0.00, -0.00, -1.00, 390.9, 363.7)">o</text><text xml:space="preserve" font-family="Helvetica-Bold,Helvetica" font-weight="bold" font-size="90.0" fill="#FFFFFF" transform="matrix(1.00, 0.00, -0.00, -1.00, 445.8, 363.7)">r</text><text xml:space="preserve" font-family="Helvetica-Bold,Helvetica" font-weight="bold" font-size="90.0" fill="#FFFFFF" transform="matrix(1.00, 0.00, -0.00, -1.00, 480.9, 363.7)">m</text><text xml:space="preserve" font-family="Helvetica-Bold,Helvetica" font-weight="bold" font-size="90.0" fill="#FFFFFF" transform="matrix(1.00, 0.00, -0.00, -1.00, 560.9, 363.7)">a</text><text xml:space="preserve" font-family="Helvetica-Bold,Helvetica" font-weight="bold" font-size="90.0" fill="#FFFFFF" transform="matrix(1.00, 0.00, -0.00, -1.00, 611.0, 363.7)">t</text><text xml:space="preserve" font-family="Helvetica-Bold,Helvetica" font-weight="bold" font-size="90.0" fill="#FFFFFF" transform="matrix(1.00, 0.00, -0.00, -1.00, 641.0, 363.7)">i</text><text xml:space="preserve" font-family="Helvetica-Bold,Helvetica" font-weight="bold" font-size="90.0" fill="#FFFFFF" transform="matrix(1.00, 0.00, -0.00, -1.00, 666.0, 363.7)">o</text><text xml:space="preserve" font-family="Helvetica-Bold,Helvetica" font-weight="bold" font-size="90.0" fill="#FFFFFF" transform="matrix(1.00, 0.00, -0.00, -1.00, 720.9, 363.7)">n</text><path d="M 0.0 90.0 L 1600.0 90.0 L 1600.0 0.0 L 0.0 0.0 Z M 0.0 90.0 " fill="#008ACB"></path><text xml:space="preserve" font-family="Helvetica,Helvetica" font-size="42.0" fill="#FEFFFF" transform="matrix(1.00, 0.00, -0.00, -1.00, 1419.0, 33.7)">G</text><text xml:space="preserve" font-family="Helvetica,Helvetica" font-size="42.0" fill="#FEFFFF" transform="matrix(1.00, 0.00, -0.00, -1.00, 1451.6, 33.7)">D</text><text xml:space="preserve" font-family="Helvetica,Helvetica" font-size="42.0" fill="#FEFFFF" transform="matrix(1.00, 0.00, -0.00, -1.00, 1482.0, 33.7)">S</text></g></svg>