<?xml version="1.0" encoding="UTF-8" standalone="no"?><svg xmlns="http://www.w3.org/2000/svg" xmlns:xlink="http://www.w3.org/1999/xlink" clip-rule="evenodd" stroke-miterlimit="10" viewBox="0 0 1600 900"><desc>SVG generated by Keynote</desc><defs></defs><g transform="matrix(1.00, 0.00, -0.00, -1.00, 0.0, 900.0)"><path d="M 0.0 900.0 L 1600.0 900.0 L 1600.0 0.0 L 0.0 0.0 Z M 0.0 900.0 " fill="#EAEAEA"></path><image xlink:href="../../B21B1836-4CD4-4927-A8CB-08528EB92201/assets/FFA849824FC2CA0F85F5F394CC4F993C.png" width="269.00" height="250.00" transform="matrix(2.50, 0.00, -0.00, -2.50, 812.0, 813.5)"></image><text xml:space="preserve" font-family="Helvetica-Light,Helvetica" font-size="60.0" fill="#000000" transform="matrix(1.00, 0.00, -0.00, -1.00, 125.0, 513.8)">I</text><text xml:space="preserve" font-family="Helvetica-Light,Helvetica" font-size="60.0" fill="#000000" transform="matrix(1.00, 0.00, -0.00, -1.00, 141.7, 513.8)">t</text><text xml:space="preserve" font-family="Helvetica-Light,Helvetica" font-size="60.0" fill="#000000" transform="matrix(1.00, 0.00, -0.00, -1.00, 158.4, 513.8)"> </text><text xml:space="preserve" font-family="Helvetica-Light,Helvetica" font-size="60.0" fill="#000000" transform="matrix(1.00, 0.00, -0.00, -1.00, 175.0, 513.8)">l</text><text xml:space="preserve" font-family="Helvetica-Light,Helvetica" font-size="60.0" fill="#000000" transform="matrix(1.00, 0.00, -0.00, -1.00, 188.4, 513.8)">o</text><text xml:space="preserve" font-family="Helvetica-Light,Helvetica" font-size="60.0" fill="#000000" transform="matrix(1.00, 0.00, -0.00, -1.00, 221.7, 513.8)">o</text><text xml:space="preserve" font-family="Helvetica-Light,Helvetica" font-size="60.0" fill="#000000" transform="matrix(1.00, 0.00, -0.00, -1.00, 255.1, 513.8)">k</text><text xml:space="preserve" font-family="Helvetica-Light,Helvetica" font-size="60.0" fill="#000000" transform="matrix(1.00, 0.00, -0.00, -1.00, 285.1, 513.8)">s</text><text xml:space="preserve" font-family="Helvetica-Light,Helvetica" font-size="60.0" fill="#000000" transform="matrix(1.00, 0.00, -0.00, -1.00, 315.1, 513.8)"> </text><text xml:space="preserve" font-family="Helvetica-Light,Helvetica" font-size="60.0" fill="#000000" transform="matrix(1.00, 0.00, -0.00, -1.00, 331.8, 513.8)">l</text><text xml:space="preserve" font-family="Helvetica-Light,Helvetica" font-size="60.0" fill="#000000" transform="matrix(1.00, 0.00, -0.00, -1.00, 345.1, 513.8)">i</text><text xml:space="preserve" font-family="Helvetica-Light,Helvetica" font-size="60.0" fill="#000000" transform="matrix(1.00, 0.00, -0.00, -1.00, 358.4, 513.8)">k</text><text xml:space="preserve" font-family="Helvetica-Light,Helvetica" font-size="60.0" fill="#000000" transform="matrix(1.00, 0.00, -0.00, -1.00, 388.4, 513.8)">e</text><text xml:space="preserve" font-family="Helvetica-Light,Helvetica" font-size="60.0" fill="#000000" transform="matrix(1.00, 0.00, -0.00, -1.00, 421.8, 513.8)"> </text><text xml:space="preserve" font-family="Helvetica-Light,Helvetica" font-size="60.0" fill="#000000" transform="matrix(1.00, 0.00, -0.00, -1.00, 438.4, 513.8)">t</text><text xml:space="preserve" font-family="Helvetica-Light,Helvetica" font-size="60.0" fill="#000000" transform="matrix(1.00, 0.00, -0.00, -1.00, 455.1, 513.8)">h</text><text xml:space="preserve" font-family="Helvetica-Light,Helvetica" font-size="60.0" fill="#000000" transform="matrix(1.00, 0.00, -0.00, -1.00, 488.5, 513.8)">i</text><text xml:space="preserve" font-family="Helvetica-Light,Helvetica" font-size="60.0" fill="#000000" transform="matrix(1.00, 0.00, -0.00, -1.00, 501.8, 513.8)">s</text><text xml:space="preserve" font-family="Helvetica-Light,Helvetica" font-size="60.0" fill="#000000" transform="matrix(1.00, 0.00, -0.00, -1.00, 531.8, 513.8)"> </text><text xml:space="preserve" font-family="Helvetica-Light,Helvetica" font-size="60.0" fill="#000000" transform="matrix(1.00, 0.00, -0.00, -1.00, 548.5, 513.8)">i</text><text xml:space="preserve" font-family="Helvetica-Light,Helvetica" font-size="60.0" fill="#000000" transform="matrix(1.00, 0.00, -0.00, -1.00, 561.8, 513.8)">n</text><text xml:space="preserve" font-family="Helvetica-Light,Helvetica" font-size="60.0" fill="#000000" transform="matrix(1.00, 0.00, -0.00, -1.00, 595.2, 513.8)"> </text><text xml:space="preserve" font-family="Helvetica-Bold,Helvetica" font-weight="bold" font-size="60.0" fill="#000000" transform="matrix(1.00, 0.00, -0.00, -1.00, 125.0, 441.8)">I</text><text xml:space="preserve" font-family="Helvetica-Bold,Helvetica" font-weight="bold" font-size="60.0" fill="#000000" transform="matrix(1.00, 0.00, -0.00, -1.00, 141.7, 441.8)">E</text><text xml:space="preserve" font-family="Helvetica-Bold,Helvetica" font-weight="bold" font-size="60.0" fill="#000000" transform="matrix(1.00, 0.00, -0.00, -1.00, 181.7, 441.8)">6</text><text xml:space="preserve" font-family=".LucidaGrandeUI,.Lucida Grande UI" font-size="18.0" fill="#989898" transform="matrix(1.00, 0.00, -0.00, -1.00, 1481.5, 27.8)">1</text><text xml:space="preserve" font-family=".LucidaGrandeUI,.Lucida Grande UI" font-size="18.0" fill="#989898" transform="matrix(1.00, 0.00, -0.00, -1.00, 1492.9, 27.8)">0</text><text xml:space="preserve" font-family=".LucidaGrandeUI,.Lucida Grande UI" font-size="18.0" fill="#989898" transform="matrix(1.00, 0.00, -0.00, -1.00, 1504.3, 27.8)">2</text><text xml:space="preserve" font-family=".LucidaGrandeUI,.Lucida Grande UI" font-size="18.0" fill="#989898" transform="matrix(1.00, 0.00, -0.00, -1.00, 1487.2, 27.8)">3</text><text xml:space="preserve" font-family=".LucidaGrandeUI,.Lucida Grande UI" font-size="18.0" fill="#989898" transform="matrix(1.00, 0.00, -0.00, -1.00, 1498.6, 27.8)">6</text><path d="M 0.0 90.0 L 1600.0 90.0 L 1600.0 0.0 L 0.0 0.0 Z M 0.0 90.0 " fill="#008ACB"></path><text xml:space="preserve" font-family="Helvetica,Helvetica" font-size="42.0" fill="#FEFFFF" transform="matrix(1.00, 0.00, -0.00, -1.00, 1419.0, 33.7)">G</text><text xml:space="preserve" font-family="Helvetica,Helvetica" font-size="42.0" fill="#FEFFFF" transform="matrix(1.00, 0.00, -0.00, -1.00, 1451.6, 33.7)">D</text><text xml:space="preserve" font-family="Helvetica,Helvetica" font-size="42.0" fill="#FEFFFF" transform="matrix(1.00, 0.00, -0.00, -1.00, 1482.0, 33.7)">S</text></g></svg>