<svg xmlns="http://www.w3.org/2000/svg" width="500" height="410" viewBox="0 0 500 410"><path d="M124.9 205.8c1.9-1.3 3.3-1.8 5-1.8 4.3 0 6.9 3.9 6.9 10.4 0 3.9-.7 6.5-2.4 8.6-1.5 1.9-3.6 3-5.9 3-1.8 0-2.8-.5-4.3-1.8-.6 1.4-.8 1.7-1.2 1.7-.1 0-.3 0-.6-.1l-3.4-.8c-.3-.1-.4-.2-.4-.4l.1-.3c.7-1.3.9-2.2.9-4.4v-23.2c0-.6 0-.6.6-.8l3.9-.8c.2 0 .3 0 .3 0 .3 0 .4.2.4.7v10m.1 15.2c.8.6 1.6.9 2.4.9 2.6 0 4.2-2.7 4.2-7.3 0-4.2-1.2-6.5-3.4-6.5-1 0-1.8.3-3.2 1.4V221m52.5-12.7h-3.2c-.6 0-.7-.1-.7-.7v-2.4c0-.6.1-.7.7-.7h7.8c.6 0 .7.1.7.7v19.2c0 .6-.1.7-.7.7h-3.9c-.6 0-.7-.1-.7-.7v-16.1m5.9-10c0 1.9-1.5 3.4-3.4 3.4-1.8 0-3.4-1.5-3.4-3.4 0-1.8 1.5-3.4 3.4-3.4 1.8 0 3.4 1.5 3.4 3.4m-25.8-3.2h.5c.3 0 .4.2.4.7V219c0 1.7.2 2.2 1.1 2.2.4 0 .9-.1 1.4-.3h.3c.1 0 .3.1.3.3l.9 3.4v.4c0 .1-.2.3-.4.4-1.1.5-2.5.8-3.8.8-1.6 0-3.1-.6-3.9-1.5-.9-1.1-1.2-2.2-1.2-4.9v-23c0-.4.2-.7.6-.8l3.8-.9m11.5 0h.5c.3 0 .4.2.4.7V219c0 1.7.2 2.2 1.1 2.2.4 0 .9-.1 1.4-.3h.3c.1 0 .3.1.3.3l.9 3.4v.4c0 .1-.2.3-.4.4-1.1.5-2.5.8-3.8.8-1.6 0-3-.6-3.9-1.5-.9-1.1-1.2-2.2-1.2-4.9v-23c0-.4.2-.7.6-.8l3.8-.9m-26 13.4h-3.2c-.6 0-.7-.1-.7-.7v-2.4c0-.6.1-.7.7-.7h7.8c.6 0 .7.1.7.7v19.2c0 .6-.1.7-.7.7h-3.9c-.6 0-.7-.1-.7-.7v-16.1m5.9-10c0 1.9-1.5 3.4-3.4 3.4-1.8 0-3.4-1.5-3.4-3.4 0-1.8 1.5-3.3 3.4-3.3 1.9-.1 3.4 1.4 3.4 3.3m49.8 25c-1.5 1.1-3.1 1.5-4.9 1.5-4.2 0-6.8-3.9-6.8-10.1 0-6.8 2.9-11 7.6-11 1.9 0 3.1.5 4.8 1.9.5-1.3 1.1-2.1 1.5-2.1l.4.1 3.3 1.2c.3.1.4.2.4.4l-.1.3-.2.4c-.7 1.6-.9 2.8-.9 4.7v6.2c0 2.2 0 4.6.1 6.8 0 1.2 0 2.1 0 2.5 0 4.9-2.8 7.5-7.9 7.5-2.5 0-5.8-.7-7.8-1.6-.4-.2-.6-.4-.6-.7l.1-.4.9-2.9c.1-.3.3-.4.5-.4.1 0 .2 0 .4.1 2.1 1 4.3 1.5 6.2 1.5 2.3 0 3.2-.9 3.2-3.5 0-.4 0-1.2-.2-2.4m0-14c-1.2-.9-1.9-1.2-2.9-1.2-2.2 0-3.5 2.2-3.5 6.4 0 4 1.1 6.2 3.1 6.2 1.2 0 2.4-.5 3.3-1.5v-9.9m14.4 6.9c.1 3.6 1.5 5.3 4.6 5.3 1.6 0 3.2-.4 4.8-1.3.2-.1.4-.2.5-.2.2 0 .4.1.5.4l1.1 2.5c.1.3.1.3.1.5 0 .5-.6.9-2.3 1.5-1.7.6-3.4.9-5.2.9-6.1 0-9.3-3.8-9.3-10.9 0-6.7 3.6-11.2 9.1-11.2s8.3 3.8 8.3 11.4c0 .9-.2 1.1-.9 1.1h-11.3m.1-3.9h6.5c-.1-3.5-.9-4.8-3-4.8-2.2 0-3.1 1.4-3.5 4.8m20.9-5.3l.4-.5c1.8-2.1 3-2.8 4.8-2.8 1.2 0 2.4.5 2.4.9l-.1.4-1.2 3.4c-.1.3-.2.4-.4.4h-.3c-.5-.3-1.2-.4-1.7-.4-.9 0-1.9.6-3.2 2v13.9c0 .6-.1.7-.7.7h-3.9c-.6 0-.7-.1-.7-.7v-12.7c0-2.1-.3-3.6-1-5.2l-.3-.6-.1-.3c0-.2.1-.4.4-.5l3.4-1.2c.2 0 .3-.1.5-.1.6.1 1.3 1.3 1.7 3.3m9.5 4.9h10.5c.8 0 .9.1.9.9v3.3c0 .8-.1.9-.9.9h-10.5c-.8 0-.9-.1-.9-.9V213c0-.8.1-.9.9-.9m21.2-2.1v14.6c0 .6-.1.7-.7.7h-3.8c-.6 0-.7-.1-.7-.7v-14c0-2.1-.1-2.9-.8-4.5-.1-.2-.1-.3-.1-.5s.1-.3.5-.5l3.4-1.1c.2-.1.3-.1.4-.1.4 0 .9 1.2 1.3 3 2.3-2.1 3.9-2.9 6.2-2.9 2.2 0 3.7.9 4.6 2.9 2.4-2.2 4.1-2.9 6.4-2.9 1.9 0 3.3.8 4 2.1.6 1.2.8 2.2.8 4.8v13.7c0 .6-.1.7-.7.7h-3.8c-.6 0-.7-.1-.7-.7v-13.2c0-2.4-.5-3.3-1.9-3.3-1.2 0-2.1.5-3.6 1.9v14.6c0 .6-.1.7-.7.7H271c-.6 0-.7-.1-.7-.7v-12.8c0-2.8-.4-3.5-1.9-3.5-1.1-.1-2.2.4-3.6 1.7m28-1.5h-3.2c-.6 0-.7-.1-.7-.7v-2.4c0-.6.1-.7.7-.7h7.8c.6 0 .7.1.7.7v19.2c0 .6-.1.7-.7.7h-3.9c-.6 0-.7-.1-.7-.7v-16.1m5.9-10c0 1.9-1.5 3.4-3.4 3.4-1.8 0-3.4-1.5-3.4-3.4 0-1.8 1.5-3.3 3.4-3.3 1.9-.1 3.4 1.4 3.4 3.3m9.1 17.9c.1 3.6 1.5 5.3 4.6 5.3 1.6 0 3.2-.4 4.8-1.3.2-.1.4-.2.5-.2.2 0 .4.1.5.4l1.1 2.5c.1.3.1.3.1.5 0 .5-.6.9-2.3 1.5-1.7.6-3.4.9-5.2.9-6.1 0-9.3-3.8-9.3-10.9 0-6.7 3.6-11.2 9.1-11.2s8.3 3.8 8.3 11.4c0 .9-.2 1.1-.9 1.1h-11.3m.1-3.9h6.5c-.1-3.5-.9-4.8-3-4.8-2.2 0-3.2 1.4-3.5 4.8m17.4-7.9v-5.3c0-.6.1-.6.7-.7l3.9-.6h.3c.3 0 .4.2.4.7v5.9h4.8c.6 0 .7.1.7.4v.4l-.6 2.4c-.1.5-.3.6-.7.6h-4.1v10.2c0 2.2.3 2.7 1.5 2.7.8 0 1.2-.1 2.7-.7l.3-.1c.2 0 .3.1.4.4l.7 2.9v.4c0 .3-.2.5-.6.7-1.5.6-3.3 1-4.9 1-2.4 0-4.2-1-5.1-2.7-.5-1-.6-1.8-.6-3.8v-11h-2.8c-.6 0-.7-.1-.7-.7v-2.4c0-.6.1-.7.7-.7h3m25.3 5.1l-.1 1.1-.2 1.4-.2 1.4-.2.8-2.5 10.6c-.1.6-.2.6-.7.6h-3.4c-.6 0-.6 0-.8-.6l-5-19.2v-.4c0-.3.2-.3.6-.4l3.7-.6c.2 0 .3 0 .3 0 .3 0 .4.1.5.6l2 9.6c.2.9.3 2.3.7 5.1l.2 1.5c.3-3.2.5-5 .7-6l2.1-9.8c.1-.6.2-.6.7-.6h3.8c.6 0 .6.1.7.6l1.9 9.4c.3 1.3.6 3.8.8 6.4l.2-1.8c.3-2.4.5-4.1.7-5.1l2.1-9.2c.1-.5.2-.6.4-.6h.4l3.4.6c.5 0 .6.2.6.5v.4l-5.8 19.2c-.2.6-.2.6-.8.6H354c-.6 0-.7 0-.8-.6l-2-10.6-.2-1.2-.1-1.3-.1-1.1-.2-1.3m26 2.8v-1.3c0-2.4-.6-3.1-2.8-3.1-1.2 0-2.7.3-4.6 1.1l-.4.1c-.2 0-.3-.1-.4-.4l-.9-2.5c0-.2-.1-.3-.1-.4 0-.4.3-.6 1.2-.9 1.8-.6 3.9-1 5.9-1 3.7 0 6.1 1.4 6.9 4 .2.8.3 1.5.3 2.7v8.5c0 1.8.3 3.1 1 4.5.1.2.1.3.1.4 0 .2-.1.3-.3.4l-3.3 1.3c-.2.1-.4.1-.5.1-.4 0-.8-.8-1.3-2.5-1.7 1.7-3.2 2.4-5.3 2.4-3.8 0-6.3-2.4-6.3-6.3 0-2.9 1.2-4.8 3.5-5.9 1.9-.9 3.6-1.2 7-1.2h.3m0 3.4h-.4c-3.7 0-5.4 1-5.4 3.4 0 1.6 1.2 2.9 2.7 2.9 1.1 0 2.2-.5 3.2-1.6v-4.7m20.7 7.6c-1.5 1.1-3 1.5-4.9 1.5-4.2 0-6.8-3.9-6.8-10.1 0-6.8 2.9-11 7.7-11 1.9 0 3.1.5 4.8 1.9.5-1.3 1.1-2.1 1.5-2.1l.4.1 3.3 1.2c.3.1.4.2.4.4l-.1.3-.2.4c-.7 1.6-.9 2.8-.9 4.7v6.2c0 2.2 0 4.6.1 6.8 0 1.2 0 2.1 0 2.5 0 4.9-2.8 7.5-7.9 7.5-2.5 0-5.8-.7-7.8-1.6-.4-.2-.6-.4-.6-.7l.1-.4.9-2.9c.1-.3.3-.4.5-.4.1 0 .2 0 .4.1 2.1 1 4.3 1.5 6.2 1.5 2.3 0 3.2-.9 3.2-3.5-.1-.4-.1-1.2-.3-2.4m0-14c-1.2-.9-1.9-1.2-2.9-1.2-2.2 0-3.5 2.2-3.5 6.4 0 4 1.1 6.2 3.1 6.2 1.2 0 2.4-.5 3.3-1.5v-9.9m14.3 6.9c.1 3.6 1.5 5.3 4.6 5.3 1.6 0 3.2-.4 4.8-1.3.2-.1.4-.2.5-.2.2 0 .4.1.5.4l1.1 2.5c.1.3.1.3.1.5 0 .5-.6.9-2.3 1.5-1.7.6-3.4.9-5.2.9-6.1 0-9.3-3.8-9.3-10.9 0-6.7 3.6-11.2 9.1-11.2s8.3 3.8 8.3 11.4c0 .9-.2 1.1-.9 1.1h-11.3m.1-3.9h6.5c-.1-3.5-.9-4.8-3-4.8s-3.1 1.4-3.5 4.8m21.4-5.9c2.1-1.9 3.9-2.7 6.3-2.7 3.7 0 5.4 2.1 5.4 6.6v14c0 .6-.1.7-.7.7h-3.9c-.6 0-.7-.1-.7-.7v-12.8c0-2.4-.7-3.5-2.4-3.5-1.2 0-2.2.5-3.7 1.7v14.6c0 .6-.1.7-.7.7h-3.9c-.6 0-.7-.1-.7-.7v-14c0-1.8-.3-3.3-.9-4.6-.1-.2-.1-.3-.1-.4 0-.2.1-.3.4-.4l3.7-1.4.2-.1h.2c.5.1 1 1.2 1.5 3m24.4 15.4c0 2.2-1.8 3.9-4 3.9s-4-1.8-4-3.9c0-2.2 1.8-4 4-4 2.3 0 4 1.8 4 4m16.2 1.7c-1.8 1.5-3.8 2.3-5.8 2.3-4.3 0-6.8-3.9-6.8-10.3 0-4.5.7-7.2 2.5-9.3 1.4-1.7 3.2-2.5 5.3-2.5 1.5 0 2.6.3 4.1 1.2v-8.5c0-.6 0-.6.6-.8l3.9-.8c.2 0 .3 0 .4 0 .3 0 .4.2.4.7v24.4c0 1.8.1 2.1.8 3.6l.1.3c0 .2-.1.3-.4.4l-3.4 1.4c-.2 0-.3.1-.4.1-.6-.1-1.1-.9-1.3-2.2m-.7-14.8c-1-.5-2-.7-3-.7-2.6 0-3.6 1.8-3.6 6.9 0 4.9.9 6.8 3.3 6.8 1.2 0 2.4-.5 3.3-1.5v-11.5m14.9 7.5c.1 3.6 1.5 5.3 4.6 5.3 1.6 0 3.2-.4 4.8-1.3.2-.1.4-.2.5-.2.2 0 .4.1.5.4l1.1 2.5c.1.3.1.3.1.5 0 .5-.6.9-2.3 1.5-1.7.6-3.4.9-5.2.9-6.1 0-9.3-3.8-9.3-10.9 0-6.7 3.6-11.2 9.1-11.2s8.3 3.8 8.3 11.4c0 .9-.2 1.1-.9 1.1H488m0-3.9h6.5c-.1-3.5-.9-4.8-3-4.8s-3.1 1.4-3.5 4.8M113.6 204.1L86.3 185c-.3-.3-.7-.6-1.2-.8-.8-.4-1.8-.6-2.8-.4L46.5 190l-42 7.4c-2.5.4-4.1 2.8-3.7 5.3l8.4 47.5c.4 2.5 2.8 4.1 5.3 3.7l42-7.4 35.9-6.3c1-.2 1.9-.7 2.6-1.4.3-.3.5-.6.7-.9l19.2-27.4c1.3-2.2.7-5-1.3-6.4" fill="#005F34"/><path fill="#005F34" d="M113.1 204.7l-27.3-19.1.9-1.3 27.3 19.1-.9 1.3m-27.4-19.2c-.3-.3-.6-.5-1-.7l.7-1.4c.5.2 1 .6 1.4 1l-1.1 1.1m.1.1l.4-.6-.4.6m-1-.8c-.7-.3-1.5-.5-2.3-.3l-.3-1.5c1.1-.2 2.3 0 3.3.5l-.7 1.3m.6-1.4l-.3.7.3-.7m-2.9 1.1l-35.8 6.3-.3-1.5 35.8-6.3.3 1.5m-.3-1.5l.1.8-.1-.8m-35.6 7.8l-42 7.4-.3-1.5 42-7.4.3 1.5m0 0l-.1-.8.1.8m-42 7.4c-1 .2-1.9.8-2.4 1.6-.6.8-.8 1.8-.6 2.8l-1.6.3c-.5-2.9 1.4-5.7 4.3-6.2l.3 1.5m0 0l-.1-.8.1.8m-3 4.4l8.4 47.5-1.5.3L0 202.9l1.6-.3m0 0l-.8.1.8-.1m8.3 47.5c.2 1 .8 1.9 1.6 2.4.8.6 1.8.8 2.8.6l.3 1.5c-2.9.5-5.7-1.4-6.2-4.3l1.5-.2m-1.5.2l.8-.1-.8.1m5.9 2.8l42-7.4.3 1.5-42 7.4-.3-1.5m0 0l.1.8-.1-.8m42-7.4l35.9-6.3.3 1.5-35.9 6.3-.3-1.5m.3 1.6l-.1-.8.1.8m35.5-7.9c.9-.2 1.6-.6 2.1-1.2l1.1 1c-.8.8-1.8 1.4-3 1.7l-.2-1.5m.3 1.5l-.1-.8.1.8m1.9-2.7c.2-.2.4-.5.6-.8l1.4.7c-.2.4-.5.8-.8 1.1l-1.2-1m1.1 1.1l-.6-.5.6.5m-.5-1.9l19.2-27.4 1.3.9-19.2 27.4-1.3-.9m-.1 0l.7.4-.7-.4m19.3-27.4c.6-.9.8-1.9.6-2.8-.2-1-.7-1.8-1.6-2.4l.9-1.3c1.2.8 2 2.1 2.2 3.4.2 1.3 0 2.8-.9 4l-1.2-.9m0 0l.6.4-.6-.4m-1-5.3l.4-.6-.4.6z"/><path fill="#fff" d="M81 186.4l-73.4 13c-1.3.2-2.4.9-3.1 2-.7 1.1-1 2.3-.8 3.6l7.4 42.1c.2 1.3.9 2.4 2 3.1 1.1.7 2.3 1 3.6.8l73.4-12.9c1.1-.2 2-.7 2.7-1.5.3-.3.5-.6.7-1l-.1.1 17-24.3c1.5-2.2 1-5.2-1.2-6.7l-24.2-17 .1.1c-.4-.4-.8-.6-1.2-.9-.9-.5-1.9-.7-2.9-.5m-67 62.5c-.7-.5-1.2-1.2-1.3-2.1l-7.4-42.1c-.2-.9 0-1.7.5-2.4s1.2-1.2 2.1-1.3l73.4-13c.7-.1 1.4 0 2 .3.3.2.6.3.8.6l24.3 17c.8.6 1.3 1.5 1.4 2.4.1.7-.1 1.5-.6 2.1l-17.1 24.4c-.1.2-.3.5-.5.7-.5.5-1.1.9-1.8 1l-73.4 12.9c-.8.2-1.7 0-2.4-.5m67-62.6L7.6 199.2c-1.3.2-2.5 1-3.2 2-.6.8-.9 1.8-.9 2.8 0 .3 0 .6.1.9L11 247c.2 1.3 1 2.5 2 3.2 1.1.8 2.4 1.1 3.7.8l73.4-12.9c1.1-.2 2.1-.7 2.8-1.6l.7-1 17-24.2c.8-1.1 1-2.4.8-3.7-.2-1.3-1-2.5-2-3.2l-24.2-17c-.4-.3-.7-.6-1.2-.8-.9-.3-2-.5-3-.3m-67.9 63.8c-1-.7-1.7-1.8-1.9-3L3.8 205c-.2-1.2.1-2.5.8-3.5.7-1 1.8-1.7 3-1.9l73.4-13c1-.2 2 0 2.9.4.4.2.9.5 1.2.8.2.1 24.1 16.9 24.1 16.9 1 .7 1.7 1.8 1.9 3 0 .3.1.6.1.8 0 1-.3 1.9-.9 2.7l-17 24.3-.6.9c-.7.8-1.6 1.3-2.7 1.5l-73.4 12.9c-1.2.3-2.4 0-3.5-.7M81 186.3m.3 1.6L7.8 200.8c-.9.2-1.7.6-2.2 1.4-.4.6-.6 1.2-.6 1.9 0 .2 0 .4.1.6l7.4 42.1c.2.9.7 1.7 1.4 2.2.7.5 1.6.7 2.5.6l73.4-12.9c.7-.1 1.4-.5 1.9-1.1l.5-.7 17.1-24.4c.5-.7.7-1.4.6-2.2-.1-1-.6-1.9-1.4-2.5l-24.3-17-.9-.6c-.6-.3-1.3-.4-2-.3m-67.2 60.9c-.7-.5-1.1-1.2-1.3-2l-7.4-42.1c-.1-.8 0-1.6.5-2.3.5-.7 1.2-1.1 2-1.3l73.4-12.9c.6-.1 1.3 0 1.9.3l.8.5 24.3 17.1c.8.5 1.2 1.4 1.3 2.3.1.7-.1 1.5-.6 2.1l-17 24.3-.5.7c-.5.5-1.1.8-1.8 1l-73.4 12.9c-.7.1-1.6-.1-2.2-.6m-.2.2"/><path fill="#005F34" d="M19.7 231.9c-3.2-8.6-1.2-24.8 11.3-20.4 0-9.7.9-22.4 11.3-26.7 13.2-5.4 21.1 5.6 23.9 17 11.4-12.3 19.8 7.6 22 15.6-1.8 1.3-4.4 2.7-6.6 3.2m-61.9 11.3"/><path fill="#fff" d="M41.7 183.4c-11.2 4.6-12.1 18.1-12.2 26.1-4.4-.9-7.2.7-8.8 2.4-4.5 4.6-4.8 14.3-2.4 20.6l2.8-1.1c-2-5.3-1.8-13.8 1.7-17.4 1.8-1.9 4.4-2.2 7.6-1.1l2 .7v-2.1c0-10.9 1.3-21.6 10.3-25.3 4.2-1.7 8.1-1.8 11.5 0 4.7 2.4 8.5 8.2 10.4 16l.7 2.8 1.9-2.1c2.5-2.7 5-3.9 7.3-3.3 5.6 1.3 10 11.3 11.8 17.3-1.6 1-3.5 2-5.2 2.4l.6 3c3.1-.7 6.3-2.8 7.2-3.5l.9-.6-.3-1.1c-.5-1.9-5.4-18.3-14.4-20.4-2.8-.7-5.6.1-8.4 2.4-2.3-7.4-6.3-12.9-11.2-15.5-4-2.3-8.7-2.3-13.8-.2"/><path fill="#005F34" d="M34 217.3c-9.9-1.6-10.5 18-4.4 21.6 10.2 6 10.8-18.5 4.5-21.5l-.1-.1"/><path fill="#fff" d="M25.2 222c-2.2 6-1 15.5 3.7 18.3 3 1.8 5.2 1.2 6.5.4 3.6-2.2 4.6-8.2 4.4-13.1-.2-4.5-1.6-9.9-4.9-11.5l.2.1-.4-.3-.4-.1c-4.2-.6-7.4 1.6-9.1 6.2m5.2 15.7c-3-1.8-4.2-9.4-2.3-14.6.8-2.2 2.4-4.6 5.4-4.2 1.5.8 2.8 4 3.1 7.9 0 .3 0 .6.1 1 .2 4.9-1 9.3-2.9 10.4-.4.1-1.4.7-3.4-.5"/><path fill="#005F34" d="M70.3 209.2c-11.3-3.8-5.7 17.5 3.4 20.9 6.2.5 2.5-18.6-3.3-20.8l-.1-.1"/><path fill="#fff" d="M63 210.7c-2.1 5.9 3 18.1 10.2 20.8l.2.1h.2c1.1.1 3.7-.1 4.5-4 1.3-5.6-1.8-17.7-7.2-19.7h.1l-.2-.1h-.1c-3.7-1.3-6.6-.2-7.7 2.9m2.6 4.1c-.1-1.2 0-2.2.3-3 .2-.6.8-2.2 3.9-1.1h.2c2.5 1 5 7.3 5.5 12.4.1 1.4.1 2.8-.2 3.9-.3 1.4-.8 1.6-1.1 1.7-4.7-2-8.2-9.1-8.6-13.9M43 228.4l-.2 3c5.9.4 16-1.1 21.2-3.1l-1.1-2.8c-4.7 1.8-14.4 3.2-19.9 2.9"/></svg>