<svg xmlns="http://www.w3.org/2000/svg" width="500" height="500" viewBox="0 0 500 96.446" enable-background="new 0 0 500 96.446"><path d="M36.1 95.13v-8.695h-.263c-.704 1.145-1.67 2.305-2.9 3.49s-2.633 2.264-4.216 3.23c-1.58.97-3.27 1.757-5.07 2.37-1.803.612-3.624.922-5.47.922-6.5 0-11.154-2.41-13.964-7.244C1.402 84.373 0 77.3 0 67.988V50.596c0-9.31 1.4-16.38 4.216-21.215 2.81-4.827 7.463-7.246 13.965-7.246 2.285 0 4.633.595 7.05 1.78 2.415 1.186 5.604 3.23 9.556 6.126V0h16.6v95.128H36.102zm-1.317-55.47c-3.163-3.427-6.5-5.14-10.017-5.14-1.143 0-2.193.22-3.16.657-.97.44-1.823 1.3-2.568 2.57-.747 1.27-1.34 3.028-1.78 5.27-.44 2.24-.658 5.117-.658 8.63V66.93c0 3.604.22 6.504.66 8.696.438 2.195 1.03 3.933 1.778 5.205.746 1.274 1.602 2.132 2.567 2.567.968.44 2.02.658 3.16.658 3.517 0 6.855-1.713 10.018-5.14V39.66zM79.68 63.244v9.482c0 3.604.923 6.216 2.77 7.84 1.845 1.626 4.172 2.437 6.98 2.437 3.514 0 6.02-.967 7.51-2.898 1.494-1.93 2.24-4.304 2.24-7.116h16.605c-.44 7.47-2.833 13.244-7.184 17.327-4.347 4.084-10.733 6.127-19.17 6.127-3.952 0-7.555-.59-10.804-1.775-3.25-1.19-6.02-2.878-8.3-5.073-2.286-2.195-4.064-4.854-5.335-7.974-1.275-3.115-1.91-6.654-1.91-10.606v-23.45c0-3.953.634-7.487 1.91-10.606 1.272-3.116 3.05-5.772 5.335-7.972 2.28-2.19 5.05-3.887 8.3-5.07 3.25-1.187 6.853-1.78 10.806-1.78 3.865 0 7.4.595 10.607 1.78 3.205 1.186 5.973 2.832 8.3 4.938 2.327 2.106 4.152 4.656 5.47 7.643 1.317 2.985 1.978 6.32 1.978 10.012v16.734H79.68zm19.5-13.44V45.85c0-3.162-.79-5.666-2.372-7.51-1.58-1.845-4.04-2.77-7.378-2.77-3.34 0-5.798.925-7.377 2.77-1.582 1.846-2.374 4.35-2.374 7.51v3.952h19.5zm28.297 45.324V23.453h16.075v8.168c3.075-2.637 6.08-4.875 9.025-6.72 2.94-1.846 6.127-2.77 9.553-2.77 5.094 0 8.937 1.406 11.528 4.217 2.59 2.812 3.888 7.554 3.888 14.228v54.547h-16.604v-52.7c0-2.372-.438-4.282-1.315-5.73-.88-1.448-2.46-2.176-4.743-2.176-1.758 0-3.56.684-5.402 2.04-1.845 1.362-3.646 2.834-5.4 4.416v54.15l-16.605.003zm62.51 0V0h16.602v51.254h.263l17.656-27.8h18.577l-16.47 24.24 17.92 47.435H227.01l-12.12-33.6-8.3 11.728v21.87h-16.605zm58.894-71.677h15.55l9.62 44.796h.263l9.62-44.797h14.227l10.146 44.796h.264l9.088-44.797h15.552l-16.866 71.675H300.8L290.652 50.33h-.263l-8.827 44.798h-15.55L248.88 23.453zm106.56 39.792v9.482c0 3.604.92 6.216 2.77 7.84 1.84 1.626 4.168 2.437 6.98 2.437 3.51 0 6.012-.967 7.51-2.898 1.494-1.932 2.24-4.304 2.24-7.116h16.603c-.44 7.47-2.834 13.244-7.186 17.327-4.347 4.084-10.732 6.127-19.168 6.127-3.954 0-7.558-.59-10.808-1.775-3.248-1.19-6.02-2.878-8.3-5.073-2.285-2.195-4.063-4.854-5.334-7.974-1.276-3.115-1.91-6.654-1.91-10.606v-23.45c0-3.953.634-7.487 1.91-10.606 1.27-3.116 3.05-5.772 5.335-7.972 2.28-2.19 5.05-3.887 8.3-5.07 3.25-1.187 6.852-1.78 10.806-1.78 3.86 0 7.395.595 10.603 1.78 3.206 1.186 5.974 2.832 8.3 4.938 2.327 2.106 4.148 4.656 5.468 7.643s1.98 6.32 1.98 10.012v16.734h-36.1zm19.5-13.44V45.85c0-3.162-.795-5.666-2.374-7.51-1.58-1.845-4.04-2.77-7.377-2.77-3.34 0-5.8.925-7.38 2.77-1.58 1.846-2.373 4.35-2.373 7.51v3.952h19.502zm27.948 45.324V23.453h16.205v9.484h.265c1.936-3.602 4.22-6.3 6.854-8.104 2.634-1.8 6.058-2.702 10.27-2.702v17.92c-1.407-.438-2.853-.856-4.345-1.25-1.498-.397-2.99-.594-4.484-.594-2.722 0-4.765.836-6.124 2.503-1.363 1.67-2.046 3.473-2.046 5.402v49.014l-16.596.003zm42.568 0V0h16.6v51.254h.266l17.652-27.8h18.58l-16.47 24.24L500 95.13h-17.524l-12.12-33.6-8.3 11.728v21.87h-16.6z" fill="#1D1D1B"/></svg>