<svg xmlns="http://www.w3.org/2000/svg" width="500" height="500" viewBox="0 0 500 96.446" enable-background="new 0 0 500 96.446"><g fill="#1D1D1B"><path d="M36.101 95.129v-8.694h-.264c-.704 1.145-1.67 2.305-2.899 3.49s-2.634 2.264-4.217 3.229c-1.58.97-3.271 1.758-5.071 2.372-1.803.611-3.624.921-5.469.921-6.501 0-11.155-2.411-13.965-7.244-2.814-4.831-4.216-11.903-4.216-21.215v-17.392c0-9.31 1.4-16.381 4.216-21.215 2.809-4.828 7.463-7.247 13.965-7.247 2.284 0 4.632.595 7.049 1.78 2.415 1.186 5.604 3.229 9.556 6.126v-30.04h16.601v95.128l-15.286.001zm-1.318-55.47c-3.163-3.426-6.501-5.14-10.017-5.14-1.143 0-2.193.221-3.161.658-.968.441-1.822 1.299-2.567 2.57-.747 1.271-1.339 3.028-1.779 5.271-.44 2.24-.659 5.116-.659 8.63v15.282c0 3.604.219 6.504.659 8.696.439 2.195 1.032 3.933 1.779 5.205.746 1.273 1.602 2.131 2.567 2.566.968.439 2.021.658 3.161.658 3.516 0 6.854-1.713 10.017-5.14v-39.256zM79.68 63.245v9.482c0 3.604.923 6.216 2.771 7.839 1.844 1.627 4.171 2.438 6.98 2.438 3.513 0 6.018-.967 7.51-2.898 1.493-1.931 2.24-4.304 2.24-7.116h16.604c-.439 7.471-2.833 13.244-7.184 17.327-4.348 4.084-10.734 6.127-19.17 6.127-3.953 0-7.556-.59-10.805-1.775-3.25-1.188-6.02-2.877-8.301-5.072-2.285-2.195-4.063-4.854-5.334-7.974-1.276-3.115-1.912-6.654-1.912-10.606v-23.45c0-3.953.635-7.487 1.912-10.606 1.271-3.117 3.05-5.773 5.334-7.973 2.281-2.19 5.05-3.887 8.301-5.07 3.249-1.187 6.852-1.779 10.805-1.779 3.864 0 7.398.594 10.606 1.779 3.205 1.186 5.973 2.832 8.301 4.938 2.326 2.106 4.151 4.656 5.468 7.643 1.318 2.986 1.979 6.322 1.979 10.013v16.734h-36.105v-.001zm19.501-13.441v-3.952c0-3.162-.791-5.666-2.373-7.509-1.58-1.846-4.041-2.77-7.378-2.77-3.34 0-5.798.924-7.377 2.77-1.582 1.845-2.374 4.348-2.374 7.509v3.952h19.502zM127.477 95.129v-71.675h16.075v8.168c3.075-2.637 6.081-4.875 9.025-6.721 2.94-1.845 6.127-2.769 9.553-2.769 5.094 0 8.937 1.406 11.528 4.217 2.591 2.813 3.888 7.555 3.888 14.229v54.547h-16.604v-52.7c0-2.372-.438-4.282-1.315-5.731-.88-1.447-2.459-2.175-4.743-2.175-1.758 0-3.559.685-5.402 2.042-1.845 1.361-3.646 2.833-5.401 4.415v54.15l-16.604.003zM189.987 95.129v-95.128h16.602v51.253h.264l17.656-27.8h18.578l-16.469 24.241 17.918 47.434h-17.524l-12.12-33.6-8.301 11.729v21.871h-16.604zM248.881 23.453h15.549l9.619 44.796h.264l9.619-44.796h14.228l10.146 44.796h.264l9.088-44.796h15.552l-16.866 71.675h-15.545l-10.146-44.797h-.263l-8.827 44.797h-15.55l-17.132-71.675zM355.439 63.245v9.482c0 3.604.921 6.216 2.771 7.839 1.841 1.627 4.168 2.438 6.979 2.438 3.511 0 6.013-.967 7.511-2.898 1.494-1.932 2.239-4.304 2.239-7.116h16.604c-.441 7.471-2.834 13.244-7.186 17.327-4.347 4.084-10.732 6.127-19.168 6.127-3.953 0-7.557-.59-10.807-1.775-3.248-1.188-6.02-2.877-8.299-5.072-2.286-2.195-4.064-4.854-5.335-7.974-1.276-3.115-1.911-6.654-1.911-10.606v-23.45c0-3.953.635-7.487 1.911-10.606 1.271-3.117 3.05-5.773 5.335-7.973 2.279-2.19 5.051-3.887 8.299-5.07 3.25-1.187 6.853-1.779 10.807-1.779 3.861 0 7.396.594 10.604 1.779 3.206 1.186 5.974 2.832 8.301 4.938 2.326 2.106 4.147 4.656 5.467 7.643s1.979 6.322 1.979 10.013v16.734h-36.101v-.001zm19.5-13.441v-3.952c0-3.162-.794-5.666-2.373-7.509-1.58-1.846-4.041-2.77-7.377-2.77-3.339 0-5.798.924-7.379 2.77-1.581 1.845-2.373 4.348-2.373 7.509v3.952h19.502zM402.888 95.129v-71.675h16.205v9.484h.265c1.936-3.602 4.219-6.301 6.854-8.104 2.634-1.799 6.058-2.702 10.271-2.702v17.921c-1.408-.439-2.854-.857-4.346-1.252-1.498-.396-2.99-.593-4.484-.593-2.722 0-4.765.836-6.124 2.503-1.362 1.669-2.045 3.472-2.045 5.401v49.014l-16.596.003zM445.456 95.129v-95.128h16.599v51.253h.267l17.652-27.8h18.58l-16.469 24.241 17.915 47.434h-17.524l-12.121-33.6-8.298 11.729v21.871h-16.601z"/></g></svg>