<?xml version="1.0" encoding="utf-8"?>
<!DOCTYPE svg PUBLIC "-//W3C//DTD SVG 1.1//EN" "http://www.w3.org/Graphics/SVG/1.1/DTD/svg11.dtd">
<svg version="1.1" id="Ebene_1" xmlns="http://www.w3.org/2000/svg" xmlns:xlink="http://www.w3.org/1999/xlink" x="0px" y="0px"
	 width="500px" height="500px" viewBox="0 0 500 96.446" enable-background="new 0 0 500 96.446" xml:space="preserve">
<g>
	<path fill="#1D1D1B" d="M36.101,95.129v-8.694h-0.264c-0.704,1.145-1.67,2.305-2.899,3.49c-1.229,1.185-2.634,2.264-4.217,3.229
		c-1.58,0.97-3.271,1.758-5.071,2.372c-1.803,0.611-3.624,0.921-5.469,0.921c-6.501,0-11.155-2.411-13.965-7.244
		C1.402,84.372,0,77.3,0,67.988V50.596c0-9.31,1.4-16.381,4.216-21.215c2.809-4.828,7.463-7.247,13.965-7.247
		c2.284,0,4.632,0.595,7.049,1.78c2.415,1.186,5.604,3.229,9.556,6.126V0h16.601v95.128L36.101,95.129L36.101,95.129z
		 M34.783,39.659c-3.163-3.426-6.501-5.14-10.017-5.14c-1.143,0-2.193,0.221-3.161,0.658c-0.968,0.441-1.822,1.299-2.567,2.57
		c-0.747,1.271-1.339,3.028-1.779,5.271c-0.44,2.24-0.659,5.116-0.659,8.63V66.93c0,3.604,0.219,6.504,0.659,8.696
		c0.439,2.195,1.032,3.933,1.779,5.205c0.746,1.273,1.602,2.131,2.567,2.566c0.968,0.439,2.021,0.658,3.161,0.658
		c3.516,0,6.854-1.713,10.017-5.14V39.659z"/>
	<path fill="#1D1D1B" d="M79.68,63.245v9.482c0,3.604,0.923,6.216,2.771,7.839c1.844,1.627,4.171,2.438,6.98,2.438
		c3.513,0,6.018-0.967,7.51-2.898c1.493-1.931,2.24-4.304,2.24-7.116h16.604c-0.439,7.471-2.833,13.244-7.184,17.327
		c-4.348,4.084-10.734,6.127-19.17,6.127c-3.953,0-7.556-0.59-10.805-1.775c-3.25-1.188-6.02-2.877-8.301-5.072
		c-2.285-2.195-4.063-4.854-5.334-7.974c-1.276-3.115-1.912-6.654-1.912-10.606v-23.45c0-3.953,0.635-7.487,1.912-10.606
		c1.271-3.117,3.05-5.773,5.334-7.973c2.281-2.19,5.05-3.887,8.301-5.07c3.249-1.187,6.852-1.779,10.805-1.779
		c3.864,0,7.398,0.594,10.606,1.779c3.205,1.186,5.973,2.832,8.301,4.938c2.326,2.106,4.151,4.656,5.468,7.643
		c1.318,2.986,1.979,6.322,1.979,10.013v16.734H79.68L79.68,63.245z M99.181,49.804v-3.952c0-3.162-0.791-5.666-2.373-7.509
		c-1.58-1.846-4.041-2.77-7.378-2.77c-3.34,0-5.798,0.924-7.377,2.77c-1.582,1.845-2.374,4.348-2.374,7.509v3.952H99.181z"/>
	<path fill="#1D1D1B" d="M127.477,95.129V23.454h16.075v8.168c3.075-2.637,6.081-4.875,9.025-6.721
		c2.94-1.845,6.127-2.769,9.553-2.769c5.094,0,8.937,1.406,11.528,4.217c2.591,2.813,3.888,7.555,3.888,14.229v54.547h-16.604
		V42.425c0-2.372-0.438-4.282-1.315-5.731c-0.88-1.447-2.459-2.175-4.743-2.175c-1.758,0-3.559,0.685-5.402,2.042
		c-1.845,1.361-3.646,2.833-5.401,4.415v54.15L127.477,95.129L127.477,95.129z"/>
	<path fill="#1D1D1B" d="M189.987,95.129V0.001h16.602v51.253h0.264l17.656-27.8h18.578l-16.469,24.241l17.918,47.434h-17.524
		l-12.12-33.6l-8.301,11.729v21.871H189.987L189.987,95.129z"/>
	<path fill="#1D1D1B" d="M248.881,23.453h15.549l9.619,44.796h0.264l9.619-44.796h14.228l10.146,44.796h0.264l9.088-44.796h15.552
		l-16.866,71.675h-15.545l-10.146-44.797h-0.263l-8.827,44.797h-15.55L248.881,23.453z"/>
	<path fill="#1D1D1B" d="M355.439,63.245v9.482c0,3.604,0.921,6.216,2.771,7.839c1.841,1.627,4.168,2.438,6.979,2.438
		c3.511,0,6.013-0.967,7.511-2.898c1.494-1.932,2.239-4.304,2.239-7.116h16.604c-0.441,7.471-2.834,13.244-7.186,17.327
		c-4.347,4.084-10.732,6.127-19.168,6.127c-3.953,0-7.557-0.59-10.807-1.775c-3.248-1.188-6.02-2.877-8.299-5.072
		c-2.286-2.195-4.064-4.854-5.335-7.974c-1.276-3.115-1.911-6.654-1.911-10.606v-23.45c0-3.953,0.635-7.487,1.911-10.606
		c1.271-3.117,3.05-5.773,5.335-7.973c2.279-2.19,5.051-3.887,8.299-5.07c3.25-1.187,6.853-1.779,10.807-1.779
		c3.861,0,7.396,0.594,10.604,1.779c3.206,1.186,5.974,2.832,8.301,4.938c2.326,2.106,4.147,4.656,5.467,7.643
		s1.979,6.322,1.979,10.013v16.734H355.439L355.439,63.245z M374.939,49.804v-3.952c0-3.162-0.794-5.666-2.373-7.509
		c-1.58-1.846-4.041-2.77-7.377-2.77c-3.339,0-5.798,0.924-7.379,2.77c-1.581,1.845-2.373,4.348-2.373,7.509v3.952H374.939z"/>
	<path fill="#1D1D1B" d="M402.888,95.129V23.454h16.205v9.484h0.265c1.936-3.602,4.219-6.301,6.854-8.104
		c2.634-1.799,6.058-2.702,10.271-2.702v17.921c-1.408-0.439-2.854-0.857-4.346-1.252c-1.498-0.396-2.99-0.593-4.484-0.593
		c-2.722,0-4.765,0.836-6.124,2.503c-1.362,1.669-2.045,3.472-2.045,5.401v49.014L402.888,95.129L402.888,95.129z"/>
	<path fill="#1D1D1B" d="M445.456,95.129V0.001h16.599v51.253h0.267l17.652-27.8h18.58l-16.469,24.241L500,95.129h-17.524
		l-12.121-33.6l-8.298,11.729v21.871H445.456L445.456,95.129z"/>
</g>
</svg>
