<?xml version="1.0" encoding="utf-8"?>
<!-- Generator: Adobe Illustrator 18.0.0, SVG Export Plug-In . SVG Version: 6.00 Build 0)  -->
<!DOCTYPE svg PUBLIC "-//W3C//DTD SVG 1.1//EN" "http://www.w3.org/Graphics/SVG/1.1/DTD/svg11.dtd">
<svg version="1.1" id="mehrwert__x2B__Signet" xmlns="http://www.w3.org/2000/svg" xmlns:xlink="http://www.w3.org/1999/xlink"
	 x="0px" y="0px" viewBox="0 0 1000 1000" enable-background="new 0 0 1000 1000" xml:space="preserve">
<g id="Worktmarke">
	<path fill="#1D1D1B" d="M43.4,718.2v128.5h35.7v-74.7c0-13.8,0.8-19.2,3.4-23.4c2.1-3.4,5.5-4.9,10.2-4.9c8.9,0,11.2,3.1,11.7,14.8
		l0.3,7v81.2h35.7v-74.7c0-13,0.5-18.2,2.3-22.4c1.6-3.9,5.7-6,10.7-6c7,0,10.4,3.1,11.2,10.1c0.3,3.1,0.3,8.1,0.3,12.7v80.1h36V763
		c0-15.3-0.5-21.1-2.3-27.7c-1.3-5.3-4.2-9.7-8.1-12.9c-5.5-4.5-13-6.8-22.4-6.8c-15.9,0-25,5.8-31.8,20.2
		c-4.2-14.7-12-20.2-27.9-20.2c-15.1,0-23.7,5.5-31,20.2v-17.6H43.4"/>
	<path fill-rule="evenodd" clip-rule="evenodd" fill="#1D1D1B" d="M288.1,767.7h-33.6c0.5-20.1,5.5-28.4,16.7-28.4
		c10.9,0,16.9,8.9,16.9,24.8C288.1,764.9,288.1,766.2,288.1,767.7 M321.7,788.3c0-26.9-1.6-35.2-9.4-49.3
		c-7.8-14.6-23.5-23.5-41.7-23.5c-33.4,0-53.4,25.6-53.4,68.8c0,41.2,19.6,64.9,53.7,64.9c28.2,0,44.6-14.1,50.8-44.8l-31.8-2.1
		c-2.1,15.9-7.3,22.2-18.3,22.2c-12.3,0-17.5-8.6-17.5-29.7c0-1.3,0-3.6,0.3-6.5H321.7z"/>
	<path fill="#1D1D1B" d="M337.6,672.8v173.9h35.7v-81.4c0-15.9,4.2-21.6,15.4-21.6c10.4,0,12.8,3.6,12.8,20.8v82.2h35.7v-82.2
		c0-16.1-0.3-20.8-2.1-27.9c-1.3-5-3.7-9.2-7-12.6c-5.5-5.8-13-8.4-23.2-8.4c-14.9,0-23.7,4.5-31.5,16.3v-59.1H337.6"/>
	<path fill="#1D1D1B" d="M457.4,718.2v128.5h35.7v-55.5c0-26.9,8.3-39.6,26.3-39.6c1.6,0,2.9,0.3,6,0.5v-34.9
		c-2.9-0.5-4.2-0.8-6.3-0.8c-7.3,0-14.3,3.4-19.3,9.1c-5,6-7.3,10.9-10.9,23.7v-31H457.4"/>
	<polyline fill="#1D1D1B" points="539.6,718.2 571.9,846.7 601.1,846.7 617.3,759.4 633.7,846.7 663.7,846.7 696,718.2 667.9,718.2 
		650.4,796.4 638.9,718.2 604,718.2 589.7,796.4 574.5,718.2 539.6,718.2 	"/>
	<path fill-rule="evenodd" clip-rule="evenodd" fill="#1D1D1B" d="M769.5,767.7h-33.6c0.5-20.1,5.5-28.4,16.7-28.4
		c11,0,16.9,8.9,16.9,24.8C769.5,764.9,769.5,766.2,769.5,767.7 M803.2,788.3c0-26.9-1.6-35.2-9.4-49.3
		c-7.8-14.6-23.5-23.5-41.7-23.5c-33.4,0-53.4,25.6-53.4,68.8c0,41.2,19.5,64.9,53.7,64.9c28.2,0,44.6-14.1,50.8-44.8l-31.8-2.1
		c-2.1,15.9-7.3,22.2-18.2,22.2c-12.3,0-17.5-8.6-17.5-29.7c0-1.3,0-3.6,0.3-6.5H803.2z"/>
	<path fill="#1D1D1B" d="M820.6,718.2v128.5h35.7v-55.5c0-26.9,8.3-39.6,26.3-39.6c1.6,0,2.9,0.3,6,0.5v-34.9
		c-2.9-0.5-4.2-0.8-6.3-0.8c-7.3,0-14.3,3.4-19.3,9.1c-4.9,6-7.3,10.9-10.9,23.7v-31H820.6"/>
	<path fill="#1D1D1B" d="M923.5,680.4l-2.9,37.8h-16.2v28.2h14.3v51.1c0,22.4,0.3,25.3,3.7,33.4c1.6,3.9,3.9,7.3,7,9.9
		c6.5,5.7,15.9,8.6,27.9,8.6c7.6,0,11.7-0.5,21.9-2.6v-27.4c-5.2,0.3-6.8,0.5-10.2,0.5c-7.3,0-11.5-1.8-13.6-5.5
		c-1-2.4-1.6-5-1.8-8.1c0-2.6,0-7,0-12.8v-47.2h23.7v-28.2h-23.7v-40.7L923.5,680.4"/>
</g>
<g id="Signet">
	<polygon fill="#5DB037" points="408.3,187.7 316.5,346.8 408.3,505.9 591.7,505.9 683.5,346.8 591.7,187.7 	"/>
	<g>
		<path fill="#FFFFFF" d="M594.8,324.8c0-27.5-14.5-45.8-39-45.8c-17,0-29.1,5.4-44.7,16.4c-6.7-10.5-17.5-16.4-31.5-16.4
			c-14.8,0-26.9,4.3-39.3,12.9c-2.4-6.7-7-11.6-16.9-11.6c-11.8,0-18,6.2-18,17.2v98.9c0,11.3,6.5,18.1,18.6,18.1
			c12.1,0,18.6-6.7,18.6-18.1V320c8.4-4.3,15.9-7.6,23.7-7.6c11,0,15.4,6.5,15.4,17.3v66.8c0,11.3,6.5,18.1,18.6,18.1
			c12.1,0,18.6-6.7,18.6-18.1v-76.6c8.3-4.3,15.9-7.5,23.7-7.5c11,0,15.4,6.5,15.4,17.3v66.8c0,11.3,6.5,18.1,18.6,18.1
			c12.1,0,18.6-6.7,18.6-18.1V324.8z"/>
	</g>
</g>
</svg>
