<svg xmlns="http://www.w3.org/2000/svg" viewBox="0 0 400 400" enable-background="new 0 0 400 400"><path fill="#383637" d="M24.3 190.1v-.1c0-3.8 2.5-5.6 6.1-5.6 3.6 0 6.2 1.8 6.2 5.3v.1c0 1.3.7 2.1 2.1 2.1h2.5c1.6 0 2.4-.8 2.4-2.4v-.1c0-6.7-5.4-11.5-13.2-11.5-7.6 0-13.1 4.4-13.1 12.1 0 16 19.8 11.1 19.8 20.7v.2c0 4.1-2.9 5.7-6.7 5.7-3.7 0-6.6-1.7-6.6-5.7 0-1.3-.7-2.1-2.1-2.1h-2.6c-1.6 0-2.3.7-2.3 2.3v.4c0 6.7 5.6 11.5 13.5 11.5s13.6-4.3 13.6-11.9c.2-16.1-19.6-11.3-19.6-21zM64.9 177.9c-8 0-14 4.6-14 14.3v47.4c0 1.5.8 2.3 2.4 2.3h2.2c1.6 0 2.4-.8 2.4-2.3v-20.8c2.1 2.9 5.2 4.2 9 4.2 6.8 0 12-4.4 12-13.6v-17.3c0-9.6-6-14.2-14-14.2zm7 30.4c0 6.2-3.1 8.2-7 8.2s-7-2.1-7-8.2v-15.7c0-6.2 3.1-8.2 7-8.2s7 2.1 7 8.2v15.7zM100.1 177.9c-8 0-14 4.6-14 14.3v17.3c0 9.1 5.2 13.6 12 13.6 3.8 0 6.9-1.3 9-4.2v1.2c0 1.5.8 2.3 2.4 2.3h2.2c1.6 0 2.4-.8 2.4-2.3v-27.8c0-9.8-6-14.4-14-14.4zm7 30.4c0 6.2-3.1 8.2-7 8.2s-7-2.1-7-8.2v-15.7c0-6.2 3.1-8.2 7-8.2s7 2.1 7 8.2v15.7zM138.6 178.3c-1.6-.3-2.8-.3-4-.3-7.8 0-12.4 3.2-12.4 12.2V220c0 1.5.7 2.3 2.3 2.3h2.3c1.6 0 2.4-.8 2.4-2.3v-29.3c0-4.8 2.1-6.2 6.4-6.2.8 0 1.7.2 2.7.3 1.6.2 2.4-.7 2.4-2.3v-1.8c-.1-1.6-.9-2.2-2.1-2.4zM164.6 178.1c-3.4 0-6.2 1.1-8.1 3.5V161c0-2-1-3-3-3h-3c-2 0-3 1-3 3v58.3c0 2 1 3 3 3h3c2 0 3-1 3-3v-26.1c0-5.3 2.5-6.8 5.5-6.8s5.5 1.6 5.5 6.8v26.1c0 2 1 3 3 3h3c2 0 3-1 3-3v-27.7c-.1-9.1-5.2-13.5-11.9-13.5zM233.9 178c-8.2 0-14.4 4.9-14.4 14.5v26.9c0 2 1 3 3 3h3c2 0 3-1 3-3v-26.3c0-5.3 2.5-6.8 5.5-6.8s5.5 1.6 5.5 6.8v26.3c0 2 1 3 3 3h3c2 0 3-1 3-3v-26.9c-.2-9.7-6.4-14.5-14.6-14.5zM281.3 158h-3c-2 0-3 1-3 3v20.4c-2-2.4-4.9-3.5-8.1-3.5-6.7 0-11.8 4.4-11.8 13.6v17c0 9.9 6.2 14.6 14.4 14.6s14.4-4.7 14.4-14.6V161c.1-2-.9-3-2.9-3zm-5.9 50c0 5.3-2.5 6.8-5.5 6.8s-5.5-1.6-5.5-6.8v-14.9c0-5.3 2.5-6.8 5.5-6.8s5.5 1.6 5.5 6.8V208zM197.9 178c-8.2 0-14.4 4.7-14.4 14.6v17c0 9.2 5 13.6 11.8 13.6 3.3 0 6.2-1.1 8.1-3.5v.1c0 2 1 2.6 3 2.6h3c2 0 3-.7 3-2.6v-27.2c-.1-10-6.3-14.6-14.5-14.6zm5.5 30c0 5.3-2.5 6.8-5.5 6.8s-5.5-1.6-5.5-6.8v-14.9c0-5.3 2.5-6.8 5.5-6.8s5.5 1.6 5.5 6.8V208zM319.7 178h-3.2c-1.9 0-3 .6-3.4 2.1l-6.9 27.3-7.4-27.3c-.4-1.5-1.5-2.1-3.4-2.1H292c-1.9 0-2.8 1.1-2.3 2.7l12.3 41.4-4.4 16.5c-.5 1.9.3 3.1 2.2 3.2l3.2.1c1.9 0 3-.6 3.4-2.3l15.5-58.9c.6-1.6-.3-2.7-2.2-2.7z"/><path fill="#AA2436" d="M329.2 215.3c0-1.7 0-25.2 0-25.2 0-6.7 5.5-12.2 12.2-12.2h30c6.7 0 12.2 5.5 12.2 12.2v11.1c0 6.7-5.5 12.2-12.2 12.2h-26.7c-4.2 6.2-9.4 8.9-11.7 8.9-4.1 0-3.8-6.1-3.8-7z"/><g fill="#383637"><path d="M315 240.8c0 .6-.3 1-1 1h-1.6c-.6 0-1-.3-1-1v-1.6c0-.6.3-1 1-1h1.6c.6 0 1 .3 1 1v1.6zM317.4 231.5c0-3 1.6-4.4 3.8-4.4 1.1 0 2 .4 2.7 1.1v-4.8c0-.6.3-1 1-1h1c.6 0 1 .3 1 1V237c0 3.2-2 4.7-4.7 4.7s-4.7-1.5-4.7-4.7v-5.5zm2.9 5.4c0 1.7.8 2.2 1.8 2.2s1.8-.5 1.8-2.2V232c0-1.7-.8-2.2-1.8-2.2s-1.8.5-1.8 2.2v4.9zM336.4 236.8h1.1c.6 0 1 .3 1 1 0 2.4-1.8 4.1-4.6 4.1-2.7 0-4.7-1.6-4.7-4.7V232c0-3.2 2-4.8 4.7-4.8s4.7 1.6 4.7 4.8v2.3c0 .6-.3 1-1 1h-5.5v1.8c0 1.7.8 2.2 1.8 2.2s1.7-.6 1.7-1.5c0-.7.3-1 .8-1zm-4.3-3.9h3.6v-.9c0-1.7-.8-2.2-1.8-2.2s-1.8.5-1.8 2.2v.9z"/></g></svg>