<?xml version="1.0" encoding="UTF-8" standalone="no"?><svg xmlns="http://www.w3.org/2000/svg" xmlns:xlink="http://www.w3.org/1999/xlink" clip-rule="evenodd" stroke-miterlimit="10" viewBox="0 0 432 855"><desc>SVG generated by Keynote</desc><defs></defs><g transform="matrix(1.00, 0.00, -0.00, -1.00, 0.0, 855.0)"><g><clipPath id="clip0x6080024abee0"><path d="M 2.0 853.0 L 431.0 853.0 L 431.0 1.0 L 2.0 1.0 Z M 1.6 853.1 "></path></clipPath><g clip-path="url(#clip0x6080024abee0)"><g><clipPath id="clip0x6080024ac060"><path d="M 119.2 2.0 C 87.0 3.5 47.8 9.2 40.3 13.4 C 38.4 14.4 36.2 15.1 35.4 14.9 C 34.6 14.6 33.0 15.1 31.9 16.0 C 30.8 16.8 26.9 18.5 23.2 19.7 C 13.6 22.8 5.7 31.8 3.5 42.2 C 0.9 54.3 0.9 804.7 3.5 816.8 C 4.8 822.6 7.2 827.3 10.8 830.9 C 17.5 837.6 32.1 844.5 41.0 845.1 C 44.6 845.4 48.4 846.1 49.3 846.7 C 50.3 847.3 52.9 847.8 55.1 847.8 C 57.3 847.8 62.2 848.1 66.0 848.6 C 69.8 849.0 82.9 850.2 95.1 851.3 C 123.8 853.7 312.0 853.8 336.2 851.3 C 346.2 850.3 357.0 849.4 360.3 849.3 C 381.5 848.6 412.3 841.3 414.1 836.5 C 414.7 835.0 415.8 834.2 416.6 834.7 C 418.7 836.0 426.6 827.3 428.8 821.4 C 429.9 818.6 430.6 814.0 430.5 811.1 C 430.4 808.1 430.4 633.9 430.5 424.0 C 430.5 214.1 430.1 40.9 429.5 39.2 C 425.9 29.6 420.4 23.6 412.3 20.8 C 407.8 19.1 402.6 17.0 400.8 16.0 C 390.1 10.2 360.4 5.1 321.7 2.6 C 297.8 1.0 147.7 0.6 119.2 2.0 "></path></clipPath><g clip-path="url(#clip0x6080024ac060)"><image xlink:href="../../4340ED1E-699B-49D1-B75C-1C70292CBB4D/assets/F471CDB8859734F7F2FEE23F6E002211.png" width="312.00" height="572.00" transform="matrix(1.63, 0.00, -0.00, -1.63, -34.4, 885.6)"></image></g></g></g></g></g></svg>