<?xml version="1.0" encoding="UTF-8" standalone="no"?><svg xmlns="http://www.w3.org/2000/svg" xmlns:xlink="http://www.w3.org/1999/xlink" clip-rule="evenodd" stroke-miterlimit="10" viewBox="0 0 352 65"><desc>SVG generated by Keynote</desc><defs></defs><g transform="matrix(1.00, 0.00, -0.00, -1.00, 0.0, 65.0)"><text xml:space="preserve" font-family="GillSans,Gill Sans" font-size="68.0" fill="#000000" transform="matrix(1.00, 0.00, -0.00, -1.00, -2.8, 16.7)">k</text><text xml:space="preserve" font-family="GillSans,Gill Sans" font-size="68.0" fill="#000000" transform="matrix(1.00, 0.00, -0.00, -1.00, 27.7, 16.7)">e</text><text xml:space="preserve" font-family="GillSans,Gill Sans" font-size="68.0" fill="#000000" transform="matrix(1.00, 0.00, -0.00, -1.00, 59.3, 16.7)">y</text><text xml:space="preserve" font-family="GillSans,Gill Sans" font-size="68.0" fill="#000000" transform="matrix(1.00, 0.00, -0.00, -1.00, 89.0, 16.7)">b</text><text xml:space="preserve" font-family="GillSans,Gill Sans" font-size="68.0" fill="#000000" transform="matrix(1.00, 0.00, -0.00, -1.00, 123.0, 16.7)">o</text><text xml:space="preserve" font-family="GillSans,Gill Sans" font-size="68.0" fill="#000000" transform="matrix(1.00, 0.00, -0.00, -1.00, 160.5, 16.7)">a</text><text xml:space="preserve" font-family="GillSans,Gill Sans" font-size="68.0" fill="#000000" transform="matrix(1.00, 0.00, -0.00, -1.00, 189.5, 16.7)">r</text><text xml:space="preserve" font-family="GillSans,Gill Sans" font-size="68.0" fill="#000000" transform="matrix(1.00, 0.00, -0.00, -1.00, 215.4, 16.7)">d</text><text xml:space="preserve" font-family="GillSans,Gill Sans" font-size="68.0" fill="#000000" transform="matrix(1.00, 0.00, -0.00, -1.00, 250.1, 16.7)"> </text><text xml:space="preserve" font-family="GillSans,Gill Sans" font-size="68.0" fill="#000000" transform="matrix(1.00, 0.00, -0.00, -1.00, 269.0, 16.7)">g</text><text xml:space="preserve" font-family="GillSans,Gill Sans" font-size="68.0" fill="#000000" transform="matrix(1.00, 0.00, -0.00, -1.00, 298.0, 16.7)">i</text><text xml:space="preserve" font-family="GillSans,Gill Sans" font-size="68.0" fill="#000000" transform="matrix(1.00, 0.00, -0.00, -1.00, 312.9, 16.7)">f</text><text xml:space="preserve" font-family="GillSans,Gill Sans" font-size="68.0" fill="#000000" transform="matrix(1.00, 0.00, -0.00, -1.00, 330.0, 16.7)">?</text></g></svg>