<svg xmlns="http://www.w3.org/2000/svg" xmlns:xlink="http://www.w3.org/1999/xlink" viewBox="0 0 500 500"><symbol id="b" viewBox="-44.47 -34.443 88.94 68.885"><path fill="#231F20" stroke="#231F20" stroke-width="6" d="M18.198 13.446c0 9.94-8.058 17.996-17.998 17.996s-17.998-8.057-17.998-17.996c0-9.94 8.058-18 17.998-18s17.998 8.06 17.998 18z"/><path fill="#7A7A7A" d="M-11.808 4.593c0 9.94 8.057 18 17.997 18 4.255 0 8.16-1.487 11.24-3.955C15.2 26.045 8.334 31.442.2 31.442c-9.94 0-17.998-8.057-17.998-17.996 0-5.685 2.642-10.744 6.756-14.045-.493 1.648-.766 3.388-.766 5.193zM-24.293-17.06c-2.528-2.12-6.332-1.787-8.453.74l-1.75 2.09c-2.122 2.527-1.79 6.33.74 8.452l16.415 13.773c2.527 2.12 6.33 1.788 8.453-.74l1.75-2.086c2.123-2.528 1.79-6.332-.738-8.453L-24.293-17.06z"/><path fill="none" stroke="#231F20" stroke-width="6" d="M-24.293-17.06c-2.528-2.12-6.332-1.787-8.453.74l-1.75 2.09c-2.122 2.527-1.79 6.33.74 8.452l16.415 13.773c2.527 2.12 6.33 1.788 8.453-.74l1.75-2.086c2.123-2.528 1.79-6.332-.738-8.453L-24.293-17.06z"/><path fill="#7A7A7A" d="M-27.113-27.167c-.948-3.16-4.31-4.972-7.47-4.023l-2.61.782c-3.162.948-4.973 4.31-4.024 7.47l3.478 11.596c.95 3.16 4.31 4.972 7.472 4.023l2.61-.78c3.16-.95 4.97-4.31 4.023-7.472l-3.478-11.595z"/><path fill="none" stroke="#231F20" stroke-width="6" d="M-27.113-27.167c-.948-3.16-4.31-4.972-7.47-4.023l-2.61.782c-3.162.948-4.973 4.31-4.024 7.47l3.478 11.596c.95 3.16 4.31 4.972 7.472 4.023l2.61-.78c3.16-.95 4.97-4.31 4.023-7.472l-3.478-11.595z"/><path fill="#7A7A7A" d="M24.292-17.06c2.528-2.12 6.33-1.787 8.452.74l1.752 2.09c2.12 2.527 1.788 6.33-.74 8.452L17.338 7.996c-2.53 2.12-6.333 1.788-8.455-.74L7.135 5.17c-2.122-2.527-1.79-6.33.74-8.452L24.29-17.06z"/><path fill="none" stroke="#231F20" stroke-width="6" d="M24.292-17.06c2.528-2.12 6.33-1.787 8.452.74l1.752 2.09c2.12 2.527 1.788 6.33-.74 8.452L17.338 7.996c-2.53 2.12-6.333 1.788-8.455-.74L7.135 5.17c-2.122-2.527-1.79-6.33.74-8.452L24.29-17.06z"/><path fill="#7A7A7A" d="M27.112-27.167c.948-3.16 4.31-4.972 7.47-4.023l2.613.782c3.16.948 4.972 4.31 4.023 7.47L37.74-11.342c-.948 3.16-4.31 4.972-7.47 4.023l-2.61-.782c-3.162-.948-4.972-4.31-4.024-7.47l3.476-11.595z"/><path fill="none" stroke="#231F20" stroke-width="6" d="M27.112-27.167c.948-3.16 4.31-4.972 7.47-4.023l2.613.782c3.16.948 4.972 4.31 4.023 7.47L37.74-11.342c-.948 3.16-4.31 4.972-7.47 4.023l-2.61-.782c-3.162-.948-4.972-4.31-4.024-7.47l3.476-11.595z"/><path fill="#D6D6D6" d="M-4.48 25.448c0-1.594-1.292-2.885-2.884-2.885-1.594 0-2.885 1.29-2.885 2.885s1.293 2.886 2.886 2.886c1.592 0 2.884-1.292 2.884-2.886z"/><path fill="#7A7A7A" stroke="#231F20" stroke-width="6" stroke-linecap="round" d="M-11.705-.74l-10.208-9.085M-27.792-15.287l-2.762-9.817"/></symbol><g><circle fill="#7DCFB6" cx="245.089" cy="215.501" r="215.29"/><path fill="#231F20" stroke="#fff" stroke-width="15.873" d="M246.652 367.388s41.693 2.35 63.05-14.953c21.354-17.3 81.353-88.133 81.353-162.28 0-74.144-55.93-116.996-144.403-116.996h-.01c-88.47 0-144.402 42.852-144.402 116.995 0 74.147 60 144.98 81.354 162.28 21.355 17.302 63.05 14.953 63.05 14.953h.008z"/><path fill="none" stroke="#fff" stroke-width="15.873" stroke-linecap="round" stroke-linejoin="round" d="M105.826 157.34c-5.403-15.184-7.054-41.19-7.054-41.19 24.947 63.905 146.676 29.392 147.868 119.472M246.496 235.62c1.19-90.08 122.92-55.565 147.867-119.47 0 0-1.65 26.006-7.054 41.19"/><path fill="#231F20" stroke="#fff" stroke-width="15.873" d="M106.678 238.077c-34.027-2.532 4.213 101.54 23.612 103.67 4.9.54-20.007-103.403-23.612-103.67zM383.77 238.077c34.028-2.532-4.214 101.54-23.612 103.67-4.902.54 20.005-103.403 23.61-103.67z"/><circle fill="#D6D6D6" cx="185.915" cy="354.051" r="2.391"/><circle fill="#D6D6D6" cx="296.76" cy="354.051" r="2.391"/><g fill="#231F20" stroke="#fff" stroke-width="15.873" stroke-linecap="round"><path d="M223.62 385.624c-.434-1.44-1.36-2.604-2.54-3.362-.316-1.158-.97-2.232-1.953-3.06l-11.875-9.96c-.282-.237-.583-.44-.893-.618.475-1.456.74-3.01.74-4.626 0-1.495-.228-2.94-.637-4.302v-.002c-.07-.235-.158-.46-.237-.69-.07-.187-.134-.38-.208-.562-.088-.225-.19-.44-.288-.658-.084-.184-.17-.366-.263-.547-.107-.207-.215-.413-.33-.616-.105-.183-.218-.36-.33-.54-.118-.19-.236-.378-.362-.564-.146-.21-.302-.41-.457-.612-.19-.243-.385-.483-.59-.717-.183-.208-.364-.414-.558-.612-.135-.14-.278-.27-.42-.404-.18-.17-.36-.336-.55-.498-.146-.126-.297-.248-.45-.37-.2-.156-.405-.31-.614-.457-.15-.107-.296-.212-.45-.312-.25-.168-.51-.32-.77-.47-.12-.07-.235-.145-.358-.207-.38-.208-.775-.397-1.176-.568-.112-.048-.23-.088-.342-.132-.304-.12-.61-.235-.92-.338-.155-.05-.31-.093-.466-.14-.286-.08-.574-.156-.865-.22-.164-.036-.327-.073-.492-.104-.31-.06-.623-.105-.938-.145-.146-.02-.29-.04-.438-.054-.464-.044-.93-.073-1.406-.073-8.238 0-14.915 6.68-14.915 14.915 0 .557.038 1.104.096 1.645.018.17.053.333.076.502.054.37.113.738.193 1.098.04.186.092.365.14.547.06.228.11.463.18.685-.41.21-.805.46-1.17.768l-11.876 9.962c-.985.826-1.638 1.9-1.954 3.06-1.18.758-2.107 1.92-2.54 3.36l-2.23 7.447c-.966 3.214.875 6.63 4.09 7.597 3.215.962 6.634-.88 7.598-4.092l2.232-7.446c.014-.042.02-.087.034-.132.21-.135.416-.28.612-.445l11.875-9.964c.417-.35.77-.748 1.067-1.174 1.965.953 4.162 1.5 6.49 1.5 2.234 0 4.343-.503 6.244-1.383.282.383.605.74.982 1.058l11.875 9.965c.196.166.403.31.613.445.013.045.02.09.033.132l2.234 7.446c.964 3.212 4.382 5.054 7.596 4.09 3.215-.965 5.056-4.382 4.093-7.596l-2.234-7.448zM336.698 393.07l-2.234-7.446c-.43-1.44-1.36-2.602-2.538-3.362-.316-1.158-.97-2.232-1.953-3.06l-11.875-9.96c-.282-.237-.585-.44-.894-.618.475-1.456.74-3.01.74-4.626 0-1.762-.32-3.447-.883-5.018-.062-.18-.124-.357-.193-.534-.092-.23-.193-.45-.296-.675-.08-.175-.166-.35-.254-.526-.108-.213-.22-.424-.34-.632-.1-.176-.207-.35-.314-.52-.123-.195-.244-.392-.375-.582-.137-.197-.285-.384-.43-.575-.202-.265-.414-.52-.633-.77-.174-.202-.35-.4-.535-.59-.138-.142-.286-.275-.43-.412-.177-.166-.354-.332-.54-.49-.15-.127-.302-.255-.457-.375-.198-.155-.4-.308-.607-.453-.15-.108-.3-.215-.455-.316-.248-.164-.504-.317-.762-.464-.122-.072-.242-.146-.366-.214-.38-.206-.773-.396-1.173-.565-.115-.05-.233-.09-.348-.136-.302-.12-.606-.23-.918-.334-.154-.05-.31-.093-.465-.14-.287-.08-.575-.156-.866-.22-.164-.036-.327-.073-.49-.104-.31-.06-.623-.105-.94-.143-.145-.022-.29-.04-.437-.056-.463-.044-.93-.073-1.405-.073-8.238 0-14.916 6.68-14.916 14.916 0 .557.037 1.104.095 1.645.02.17.053.334.08.503.05.37.11.738.19 1.098.042.187.093.366.14.548.06.228.11.463.182.685-.41.21-.805.46-1.173.768l-11.875 9.963c-.983.826-1.637 1.9-1.953 3.06-1.178.758-2.106 1.92-2.538 3.36l-2.234 7.447c-.964 3.214.877 6.63 4.09 7.597h.002c3.214.963 6.633-.88 7.596-4.09l2.234-7.447c.012-.042.02-.087.03-.132.212-.135.42-.28.615-.445l11.875-9.964c.416-.352.77-.75 1.067-1.176 1.963.953 4.16 1.5 6.49 1.5 2.232 0 4.342-.5 6.24-1.383.283.384.606.74.984 1.06l11.876 9.963c.195.166.403.31.614.445.01.045.018.09.03.132l2.232 7.446c.966 3.212 4.384 5.054 7.598 4.09 3.217-.965 5.06-4.382 4.094-7.596z"/></g><g stroke="#fff" stroke-width="6.349"><path fill="#BE1E2D" d="M494.943 438.24c0 32.354-26.47 58.825-58.825 58.825H63.88c-32.352 0-58.824-26.472-58.824-58.824 0-32.353 26.472-58.825 58.825-58.825H436.12c32.355 0 58.825 26.473 58.825 58.826z"/><path fill="#7DCFB6" d="M494.943 438.24c0 32.354-26.47 58.825-58.825 58.825H63.88c-32.352 0-58.824-26.472-58.824-58.824 0-32.353 26.472-58.825 58.825-58.825H436.12c32.355 0 58.825 26.473 58.825 58.826z"/></g><g fill="#fff" stroke="#fff" stroke-width="7.936" stroke-linecap="round"><path d="M223.62 385.624c-.434-1.44-1.36-2.604-2.54-3.362-.316-1.158-.97-2.232-1.953-3.06l-11.875-9.96c-.282-.237-.583-.44-.893-.618.475-1.456.74-3.01.74-4.626 0-1.495-.228-2.94-.637-4.302v-.002c-.07-.235-.158-.46-.237-.69-.07-.187-.134-.38-.208-.562-.088-.225-.19-.44-.288-.658-.084-.184-.17-.366-.263-.547-.107-.207-.215-.413-.33-.616-.105-.183-.218-.36-.33-.54-.118-.19-.236-.378-.362-.564-.146-.21-.302-.41-.457-.612-.19-.243-.385-.483-.59-.717-.183-.208-.364-.414-.558-.612-.135-.14-.278-.27-.42-.404-.18-.17-.36-.336-.55-.498-.146-.126-.297-.248-.45-.37-.2-.156-.405-.31-.614-.457-.15-.107-.296-.212-.45-.312-.25-.168-.51-.32-.77-.47-.12-.07-.235-.145-.358-.207-.38-.208-.775-.397-1.176-.568-.112-.048-.23-.088-.342-.132-.304-.12-.61-.235-.92-.338-.155-.05-.31-.093-.466-.14-.286-.08-.574-.156-.865-.22-.164-.036-.327-.073-.492-.104-.31-.06-.623-.105-.938-.145-.146-.02-.29-.04-.438-.054-.464-.044-.93-.073-1.406-.073-8.238 0-14.915 6.68-14.915 14.915 0 .557.038 1.104.096 1.645.018.17.053.333.076.502.054.37.113.738.193 1.098.04.186.092.365.14.547.06.228.11.463.18.685-.41.21-.805.46-1.17.768l-11.876 9.962c-.985.826-1.638 1.9-1.954 3.06-1.18.758-2.107 1.92-2.54 3.36l-2.23 7.447c-.966 3.214.875 6.63 4.09 7.597 3.215.962 6.634-.88 7.598-4.092l2.232-7.446c.014-.042.02-.087.034-.132.21-.135.416-.28.612-.445l11.875-9.964c.417-.35.77-.748 1.067-1.174 1.965.953 4.162 1.5 6.49 1.5 2.234 0 4.343-.503 6.244-1.383.282.383.605.74.982 1.058l11.875 9.965c.196.166.403.31.613.445.013.045.02.09.033.132l2.234 7.446c.964 3.212 4.382 5.054 7.596 4.09 3.215-.965 5.056-4.382 4.093-7.596l-2.234-7.448zM336.698 393.07l-2.234-7.446c-.43-1.44-1.36-2.602-2.538-3.362-.316-1.158-.97-2.232-1.953-3.06l-11.875-9.96c-.282-.237-.585-.44-.894-.618.475-1.456.74-3.01.74-4.626 0-1.762-.32-3.447-.883-5.018-.062-.18-.124-.357-.193-.534-.092-.23-.193-.45-.296-.675-.08-.175-.166-.35-.254-.526-.108-.213-.22-.424-.34-.632-.1-.176-.207-.35-.314-.52-.123-.195-.244-.392-.375-.582-.137-.197-.285-.384-.43-.575-.202-.265-.414-.52-.633-.77-.174-.202-.35-.4-.535-.59-.138-.142-.286-.275-.43-.412-.177-.166-.354-.332-.54-.49-.15-.127-.302-.255-.457-.375-.198-.155-.4-.308-.607-.453-.15-.108-.3-.215-.455-.316-.248-.164-.504-.317-.762-.464-.122-.072-.242-.146-.366-.214-.38-.206-.773-.396-1.173-.565-.115-.05-.233-.09-.348-.136-.302-.12-.606-.23-.918-.334-.154-.05-.31-.093-.465-.14-.287-.08-.575-.156-.866-.22-.164-.036-.327-.073-.49-.104-.31-.06-.623-.105-.94-.143-.145-.022-.29-.04-.437-.056-.463-.044-.93-.073-1.405-.073-8.238 0-14.916 6.68-14.916 14.916 0 .557.037 1.104.095 1.645.02.17.053.334.08.503.05.37.11.738.19 1.098.042.187.093.366.14.548.06.228.11.463.182.685-.41.21-.805.46-1.173.768l-11.875 9.963c-.983.826-1.637 1.9-1.953 3.06-1.178.758-2.106 1.92-2.538 3.36l-2.234 7.447c-.964 3.214.877 6.63 4.09 7.597h.002c3.214.963 6.633-.88 7.596-4.09l2.234-7.447c.012-.042.02-.087.03-.132.212-.135.42-.28.615-.445l11.875-9.964c.416-.352.77-.75 1.067-1.176 1.963.953 4.16 1.5 6.49 1.5 2.232 0 4.342-.5 6.24-1.383.283.384.606.74.984 1.06l11.876 9.963c.195.166.403.31.614.445.01.045.018.09.03.132l2.232 7.446c.966 3.212 4.384 5.054 7.598 4.09 3.217-.965 5.06-4.382 4.094-7.596z"/></g><circle fill="#fff" cx="40.956" cy="438.241" r="18.482"/><circle fill="#fff" cx="461.288" cy="438.241" r="18.482"/><path fill="#231F20" d="M462.325 425.794c2.218 1.835 3.632 4.605 3.632 7.71 0 5.52-4.476 9.995-9.996 9.995-2.53 0-4.83-.946-6.59-2.494 1.33 5.357 6.154 9.335 11.924 9.335 6.792 0 12.298-5.506 12.298-12.3 0-6.443-4.957-11.72-11.267-12.246zM40.956 429.895l6.59-6.09-.653 8.95 8.87 1.352-7.404 5.072 4.47 7.78-8.58-2.63-3.294 8.346-3.295-8.346-8.58 2.63 4.472-7.78-7.405-5.073 8.87-1.353-.652-8.95z"/><path fill="#7A7A7A" d="M393.77 126.93l-5.793 32.015-7.928-21.65 7.927-8.844zM102.558 122.964l11.892 15.55-8.234 18.908-5.488-19.822z"/><linearGradient id="a" gradientUnits="userSpaceOnUse" x1="102.24" y1="220.326" x2="391.055" y2="220.326"><stop offset="0" stop-color="#D6D6D6"/><stop offset="1" stop-color="#7A7A7A"/></linearGradient><path fill="url(#a)" stroke="#231F20" stroke-width="6.349" d="M246.652 367.388s41.693 2.35 63.05-14.953c21.354-17.3 81.353-88.133 81.353-162.28 0-74.144-55.93-116.996-144.403-116.996h-.01c-88.47 0-144.402 42.852-144.402 116.995 0 74.147 60 144.98 81.354 162.28 21.355 17.302 63.05 14.953 63.05 14.953h.008z"/><path fill="#231F20" stroke="#231F20" stroke-width="6.349" d="M106.678 238.077c-34.027-2.532 4.213 101.54 23.612 103.67 4.9.54-20.007-103.403-23.612-103.67zM383.77 238.077c34.028-2.532-4.214 101.54-23.612 103.67-4.902.54 20.005-103.403 23.61-103.67z"/><path fill="#231F20" d="M257.27 91.123c-8.472.115-16.49.522-24.04 1.184.52.865.864 1.782.958 2.756.6 6.317-8.55 12.354-20.438 13.483-11.452 1.09-21.243-2.78-22.482-8.71-30.448 9.13-44.613 24.297-38.743 40.102 6.58 17.386 87.948 7.266 95.023 88.835 16.503-83.83 102.045-64.237 102.373-95.91.29-28.263-44.85-42.396-92.65-41.74zM246.656 235.62h-.017c-.83-62.733-93.467-86.4-111.64-66.96-12.884 13.786-13.623 27.264-12.284 47.342 4.495 67.417 56.076 121.28 74.546 137.064 18.47 15.787 54.532 13.642 54.532 13.642h.006s36.062 2.146 54.532-13.642c18.472-15.785 70.365-80.422 70.365-148.07 0-21.817-5.04-40.66-14.422-56.186-40.907 20.405-114.733 19.806-115.62 86.81z"/><path fill="none" stroke="#fff" stroke-width=".794" stroke-dasharray="7.143" d="M245.075 25.237"/><ellipse transform="matrix(-.82 -.572 .572 -.82 186.662 304.149)" fill="#231F20" cx="141.126" cy="122.742" rx="4.735" ry="8.49"/><ellipse transform="matrix(-.513 -.859 .859 -.513 133.031 301.409)" fill="#231F20" cx="152.064" cy="112.946" rx="2.152" ry="3.858"/><path fill="#231F20" d="M176.062 167.21c-15.532 5.04-26.767 19.624-26.767 36.84 0 21.39 17.343 38.734 38.736 38.734 21.395 0 38.736-17.344 38.736-38.735 0-7.956-2.4-15.347-6.513-21.498-10.436-6.515-26.69-10.846-44.19-15.343z"/><path fill="none" stroke="#7A7A7A" stroke-width="2.381" d="M152.966 206.544l44.063-36.6M179.77 239.2l46.76-39.72"/><path fill="none" stroke="#7A7A7A" stroke-width="7.936" d="M166.83 233.17l55.55-46.14"/><path fill="#7A7A7A" stroke="#231F20" stroke-width="1.587" d="M159.52 205.968c0-16.758 10.645-31.017 25.535-36.416-2.945-.784-5.948-1.562-8.993-2.343-15.532 5.04-26.767 19.624-26.767 36.84 0 20.733 16.295 37.663 36.776 38.684-15.42-5.107-26.55-19.633-26.55-36.766z"/><path fill="none" stroke="#7A7A7A" stroke-width="2.381" d="M176.062 167.21c-15.532 5.04-26.767 19.624-26.767 36.84 0 21.39 17.343 38.734 38.736 38.734 21.395 0 38.736-17.344 38.736-38.735 0-7.956-2.4-15.347-6.513-21.498-10.436-6.515-26.69-10.846-44.19-15.343z"/><path fill="#231F20" d="M319.423 167.21c15.533 5.04 26.767 19.624 26.767 36.84 0 21.39-17.343 38.734-38.736 38.734-21.393 0-38.735-17.344-38.735-38.735 0-7.956 2.4-15.347 6.513-21.498 10.436-6.515 26.69-10.846 44.19-15.343z"/><path fill="none" stroke="#7A7A7A" stroke-width="2.381" d="M271.653 211.084l47.58-39.525M295.407 239.66l44.062-36.597"/><path fill="none" stroke="#7A7A7A" stroke-width="7.936" d="M274.54 223.506l53.576-44.503"/><path fill="#7A7A7A" stroke="#231F20" stroke-width="1.587" d="M335.964 205.968c0-16.758-10.644-31.017-25.533-36.416 2.945-.784 5.948-1.562 8.993-2.343 15.533 5.04 26.767 19.624 26.767 36.84 0 20.733-16.294 37.663-36.777 38.684 15.422-5.107 26.55-19.633 26.55-36.766z"/><path fill="none" stroke="#7A7A7A" stroke-width="2.381" d="M319.423 167.21c15.533 5.04 26.767 19.624 26.767 36.84 0 21.39-17.343 38.734-38.736 38.734-21.393 0-38.735-17.344-38.735-38.735 0-7.956 2.4-15.347 6.513-21.498 10.436-6.515 26.69-10.846 44.19-15.343z"/><g fill="#7A7A7A"><path d="M140.602 185.75c.538.09 1.06.037 1.548-.113-1.61-.483-2.65-2.092-2.364-3.788.22-1.308 1.17-2.3 2.355-2.66-.134-.043-.267-.09-.41-.114-1.84-.312-3.588.928-3.9 2.773-.313 1.84.93 3.588 2.772 3.9zM137.388 199.104c.206-.023.402-.07.593-.128-1.25-.382-2.22-1.475-2.375-2.857-.186-1.655.855-3.155 2.393-3.614-.43-.133-.89-.182-1.363-.13-1.86.21-3.195 1.882-2.988 3.743.207 1.857 1.883 3.192 3.74 2.984zM135.552 211.468c-.722-1.727.093-3.708 1.818-4.43.107-.044.22-.066.328-.1-.728-.223-1.528-.217-2.285.1-1.726.722-2.54 2.703-1.82 4.43.676 1.616 2.46 2.415 4.1 1.918-.93-.284-1.738-.952-2.14-1.918zM139.627 225.755c-1.168-1.46-.93-3.588.53-4.757.35-.276.737-.47 1.138-.592-1.03-.312-2.19-.13-3.094.592-1.46 1.17-1.697 3.298-.53 4.757.888 1.112 2.334 1.51 3.618 1.125-.633-.192-1.218-.568-1.66-1.125zM147.245 238.1c-1.517-1.094-1.856-3.208-.762-4.725.452-.623 1.08-1.038 1.763-1.244-1.344-.405-2.852.045-3.72 1.245-1.095 1.517-.754 3.63.76 4.725.892.646 1.988.78 2.965.484-.35-.105-.693-.258-1.005-.484zM147.198 174.02c.79.372 1.647.4 2.42.165-.156-.048-.31-.093-.463-.164-1.69-.793-2.42-2.81-1.624-4.503.425-.902 1.2-1.518 2.084-1.788-1.583-.48-3.316.246-4.04 1.787-.795 1.694-.067 3.71 1.624 4.504zM159.827 165.177c-.435-.13-.85-.35-1.218-.664-1.42-1.215-1.585-3.354-.37-4.772.44-.51 1-.853 1.598-1.034-1.246-.376-2.652-.017-3.554 1.035-1.218 1.42-1.05 3.56.367 4.773.91.776 2.11.984 3.177.664zM238.285 207.236c.024-.006.043-.02.064-.025-1.07-.32-1.956-1.16-2.28-2.316-.5-1.777.52-3.617 2.277-4.15-.597-.18-1.248-.205-1.893-.023-1.8.507-2.85 2.375-2.342 4.175.505 1.797 2.375 2.846 4.173 2.34zM228.51 229.646c.33-1.145 1.212-1.972 2.272-2.295-.014-.003-.025-.01-.04-.015-1.795-.52-3.672.516-4.19 2.31-.52 1.8.514 3.675 2.31 4.193.65.188 1.312.166 1.916-.017-1.767-.534-2.784-2.392-2.27-4.174zM209.557 251.167c-1.277-1.364-1.207-3.508.16-4.785.392-.366.85-.61 1.33-.753-1.116-.34-2.374-.103-3.287.752-1.365 1.277-1.436 3.42-.16 4.785.912.975 2.258 1.276 3.454.915-.553-.166-1.074-.463-1.497-.915zM157.795 247.918c-1.75-.654-2.637-2.606-1.983-4.36.384-1.022 1.216-1.74 2.188-2.036-1.693-.514-3.515.358-4.145 2.036-.656 1.754.233 3.706 1.982 4.36.726.27 1.48.267 2.167.057-.067-.023-.14-.03-.21-.057zM233.958 218.02c.013-1.517 1.027-2.78 2.407-3.197-.304-.094-.62-.16-.953-.16-1.87-.018-3.396 1.49-3.41 3.357-.015 1.87 1.488 3.396 3.358 3.41.35.003.683-.063 1.003-.16-1.397-.425-2.417-1.714-2.405-3.25zM221.368 243.928c-1.593-.974-2.094-3.06-1.117-4.654.452-.736 1.143-1.227 1.91-1.46-1.44-.438-3.046.118-3.868 1.46-.976 1.594-.475 3.68 1.12 4.654.857.527 1.852.61 2.745.342-.27-.084-.537-.188-.79-.342zM167.613 250.963c.123-1.422 1.11-2.557 2.4-2.943-.222-.067-.454-.116-.693-.136-1.862-.16-3.502 1.218-3.665 3.08-.162 1.863 1.216 3.505 3.08 3.666.44.04.864-.015 1.264-.135-1.5-.455-2.528-1.91-2.387-3.532zM195.988 255.02c-.856-1.662-.204-3.705 1.457-4.562.187-.097.38-.17.573-.23-.81-.244-1.715-.19-2.53.23-1.662.856-2.314 2.9-1.458 4.562.76 1.475 2.452 2.15 3.985 1.686-.847-.26-1.59-.838-2.027-1.686zM181.35 254.98c-.335-1.724.703-3.38 2.347-3.877-.514-.157-1.068-.21-1.63-.1-1.836.36-3.032 2.14-2.674 3.976.36 1.834 2.137 3.028 3.97 2.672.115-.02.22-.064.328-.1-1.156-.353-2.09-1.302-2.34-2.573z"/></g><g fill="#7A7A7A"><path d="M265.995 234.398c-1.795.52-3.672-.515-4.192-2.31-.32-1.106-.048-2.24.625-3.072-1.792.522-2.825 2.397-2.306 4.19.52 1.797 2.396 2.832 4.193 2.31.69-.197 1.265-.602 1.686-1.12-.002 0-.004.002-.005.002zM296.267 257.04c-1.66-.86-2.312-2.9-1.457-4.565.107-.203.23-.393.37-.568-.854.254-1.61.838-2.05 1.692-.856 1.66-.205 3.704 1.457 4.56 1.456.75 3.203.34 4.19-.89-.808.237-1.7.184-2.51-.23zM282.472 251.888c-1.305-1.223-1.413-3.224-.307-4.59-.567.16-1.1.462-1.532.924-1.278 1.365-1.207 3.506.157 4.786 1.366 1.277 3.508 1.21 4.786-.158.057-.062.097-.132.148-.195-1.11.32-2.35.077-3.252-.767zM270.792 243.37c-.768-1.253-.61-2.8.26-3.884-.28.08-.56.188-.82.35-1.597.977-2.096 3.06-1.122 4.653.977 1.595 3.062 2.096 4.656 1.117.34-.208.62-.474.858-.77-1.43.42-3.017-.134-3.832-1.468zM355.223 194.17c-1.273.37-2.266 1.476-2.42 2.876-.21 1.857 1.13 3.53 2.986 3.74 1.187.133 2.295-.37 3-1.234-.417.12-.863.167-1.32.115-1.857-.212-3.196-1.885-2.986-3.742.074-.67.343-1.267.74-1.754zM348.673 184.658c.31 1.844 2.058 3.084 3.9 2.77.85-.14 1.562-.6 2.063-1.225-.126.04-.248.085-.38.105-1.844.312-3.59-.93-3.902-2.773-.17-.99.124-1.947.708-2.677-1.624.48-2.68 2.09-2.39 3.8zM258.448 207.775c-.592.176-1.237.2-1.877.02-1.798-.504-2.847-2.374-2.342-4.175.13-.45.34-.854.617-1.2-1.076.32-1.97 1.16-2.297 2.32-.505 1.8.542 3.67 2.342 4.174 1.348.382 2.735-.11 3.558-1.14zM260.414 221.84c-.293.087-.596.15-.916.15-1.87.017-3.396-1.488-3.413-3.358-.005-.814.288-1.552.763-2.142-1.417.413-2.455 1.713-2.443 3.263.014 1.868 1.54 3.373 3.412 3.357 1.056-.006 1.98-.506 2.597-1.27zM326.123 255.193c-1.863.16-3.503-1.22-3.666-3.084-.078-.91.215-1.766.747-2.422-1.52.44-2.57 1.905-2.428 3.542.164 1.864 1.804 3.242 3.666 3.082.953-.084 1.774-.557 2.332-1.243-.21.06-.427.103-.65.123zM352.43 226.85c-1.46-1.17-1.698-3.298-.53-4.762.002-.003.005-.005.007-.007-.643.19-1.24.566-1.69 1.13-1.165 1.46-.928 3.59.532 4.76 1.456 1.163 3.58.93 4.75-.524-1.025.3-2.174.116-3.07-.597zM344.846 237.9c-.914-1.266-.816-2.94.12-4.102-.364.106-.718.262-1.04.494-1.516 1.098-1.856 3.213-.76 4.73 1.093 1.514 3.21 1.854 4.725.76.25-.182.458-.397.643-.626-1.337.388-2.826-.063-3.687-1.256zM311.49 258.212c-1.834-.36-3.03-2.137-2.67-3.974.108-.56.362-1.052.698-1.467-1.176.345-2.128 1.303-2.38 2.59-.36 1.835.837 3.612 2.673 3.972 1.274.248 2.51-.263 3.272-1.207-.502.146-1.042.193-1.59.087zM356.834 213.845c-1.725-.718-2.54-2.7-1.82-4.427.128-.304.305-.566.5-.812-.945.28-1.77.95-2.18 1.934-.72 1.724.094 3.707 1.82 4.425 1.422.595 3.008.136 3.928-1.01-.716.212-1.505.2-2.248-.11zM345.98 175.703c.48-.228.873-.562 1.185-.948-1.572.46-3.29-.268-4.01-1.798-.567-1.212-.346-2.58.44-3.557-.166.048-.334.098-.495.175-1.69.795-2.42 2.81-1.624 4.5.795 1.695 2.812 2.422 4.503 1.628zM334.66 246.497c-.433-1.16-.18-2.402.543-3.302-.08.023-.16.032-.24.063-1.75.656-2.64 2.608-1.983 4.356.657 1.75 2.608 2.638 4.36 1.983.59-.22 1.07-.6 1.44-1.058-1.688.496-3.493-.375-4.12-2.043zM336.525 166.195c.16-.14.3-.29.427-.45-1.238.36-2.626.003-3.52-1.04-1.078-1.262-1.066-3.078-.06-4.325-.447.13-.876.35-1.252.672-1.42 1.218-1.585 3.354-.37 4.772 1.218 1.42 3.354 1.586 4.775.37z"/></g><g fill="#7A7A7A"><path d="M247.795 117.246c-.327-.094-.663-.16-1.018-.16-2.148 0-3.89 1.823-3.89 4.073 0 2.246 1.742 4.07 3.89 4.07.18 0 .353-.033.527-.06-1.652-.47-2.873-2.032-2.873-3.908.003-2.06 1.468-3.745 3.365-4.016zM246.778 178.657c.18 0 .353-.032.528-.055-1.653-.472-2.874-2.035-2.874-3.913 0-2.06 1.465-3.745 3.363-4.017-.327-.094-.663-.16-1.018-.16-2.148 0-3.89 1.823-3.89 4.072s1.742 4.072 3.89 4.072zM247.795 143.96c-.326-.094-.662-.16-1.018-.16-2.148 0-3.89 1.825-3.89 4.073 0 2.25 1.742 4.07 3.89 4.07.18 0 .353-.03.528-.056-1.653-.47-2.874-2.034-2.874-3.912.003-2.06 1.468-3.743 3.365-4.014zM246.778 165.3c.18 0 .353-.03.528-.057-1.653-.468-2.874-2.033-2.874-3.91 0-2.06 1.465-3.746 3.363-4.017-.326-.093-.662-.157-1.018-.157-2.148 0-3.89 1.82-3.89 4.07s1.742 4.07 3.89 4.07zM246.778 98.517c.18 0 .354-.032.528-.056-1.653-.472-2.873-2.035-2.873-3.913 0-2.06 1.464-3.743 3.362-4.017-.326-.092-.662-.158-1.018-.158-2.148 0-3.89 1.823-3.89 4.07 0 2.25 1.742 4.075 3.89 4.075zM244.433 188.047c0-2.062 1.465-3.746 3.363-4.018-.327-.094-.663-.16-1.018-.16-2.148 0-3.89 1.823-3.89 4.074 0 2.247 1.742 4.07 3.89 4.07.18 0 .353-.033.528-.057-1.653-.47-2.873-2.033-2.873-3.91zM246.778 138.588c.18 0 .353-.033.527-.057-1.652-.47-2.873-2.033-2.873-3.91 0-2.06 1.465-3.746 3.363-4.018-.328-.094-.665-.16-1.018-.16-2.148 0-3.892 1.825-3.892 4.07 0 2.253 1.744 4.076 3.893 4.076zM246.778 111.872c.18 0 .353-.03.528-.057-1.653-.47-2.874-2.033-2.874-3.912 0-2.06 1.465-3.744 3.363-4.014-.326-.096-.662-.16-1.018-.16-2.15 0-3.892 1.822-3.892 4.07 0 2.25 1.743 4.072 3.893 4.072z"/></g><path fill="#231F20" stroke="#231F20" stroke-width="6.349" d="M106.678 238.077c-34.027-2.532 4.213 101.54 23.612 103.67 4.9.54-20.007-103.403-23.612-103.67zM383.77 238.077c34.028-2.532-4.214 101.54-23.612 103.67-4.902.54 20.005-103.403 23.61-103.67z"/><path fill="#7A7A7A" d="M377.424 256.052c-8.31 29.782-20.88 86.092-17.267 85.696 1.697-.186 3.54-1.167 5.464-2.773 1.11-18.278 7.017-58.01 11.804-82.923zM107.45 239.023c-.314-.592-.575-.933-.772-.946-29.914-2.227-3.98 77.925 15.91 98.785-16.57-21.39-34.162-88.997-15.137-97.84zM105.323 242.828c-.327-.093-.664-.157-1.017-.157-2.148 0-3.892 1.823-3.892 4.073 0 2.247 1.744 4.07 3.892 4.07.18 0 .354-.033.528-.055-1.652-.472-2.874-2.036-2.874-3.913 0-2.06 1.466-3.743 3.363-4.017zM390.063 244.356c-.326-.095-.663-.16-1.017-.16-2.15 0-3.892 1.823-3.892 4.072 0 2.248 1.743 4.07 3.892 4.07.18 0 .354-.03.528-.054-1.652-.47-2.874-2.038-2.874-3.915 0-2.058 1.467-3.743 3.363-4.014zM216.308 327.123c0 8.223-6.157 14.055-13.753 13.03-7.595-1.03-13.75-8.53-13.75-16.753s6.156-14.056 13.75-13.03c7.595 1.03 13.753 8.53 13.753 16.753z"/><path fill="none" stroke="#231F20" stroke-width="1.587" d="M188.922 329.135l31.24 6.018M188.922 325.96l31.24 6.02M188.922 322.785l31.24 6.02M188.922 319.61l31.24 6.02M188.922 316.436l31.24 6.018M188.922 313.26l31.24 6.02M188.922 310.086l31.24 6.018"/><path fill="#231F20" d="M205.076 337.422c-6.712-.91-12.155-7.54-12.155-14.803 0-4.868 2.446-8.774 6.073-10.562-5.336.666-9.308 5.316-9.308 11.52 0 7.27 5.44 13.897 12.153 14.806 2.22.3 4.292-.075 6.083-.955-.914.11-1.862.122-2.844-.008z"/><path fill="none" stroke="#7A7A7A" stroke-width="3.175" d="M216.308 327.123c0 8.223-6.157 14.055-13.753 13.03-7.595-1.03-13.75-8.53-13.75-16.753s6.156-14.056 13.75-13.03c7.595 1.03 13.753 8.53 13.753 16.753z"/><path fill="#7A7A7A" d="M244.67 337.294c0 5.14-3.847 8.786-8.594 8.143-4.745-.642-8.594-5.326-8.594-10.467 0-5.14 3.85-8.782 8.594-8.142 4.747.645 8.594 5.33 8.594 10.466z"/><path fill="#231F20" d="M237.59 342.155c-3.324-.45-6.02-3.733-6.02-7.33 0-2.41 1.212-4.344 3.008-5.227-2.642.328-4.61 2.632-4.61 5.704 0 3.596 2.696 6.878 6.018 7.326 1.1.152 2.125-.035 3.013-.474-.455.06-.925.067-1.41 0z"/><circle fill-rule="evenodd" clip-rule="evenodd" fill="#fff" cx="119.982" cy="164.341" r="6.734"/><path fill="none" stroke="#fff" stroke-width=".794" stroke-dasharray="7.143" d="M245.075 417.102"/><path fill="none" stroke="#231F20" stroke-width="6.349" stroke-linecap="round" stroke-linejoin="round" d="M105.826 157.34c-5.403-15.184-7.054-41.19-7.054-41.19 24.947 63.905 146.676 29.392 147.868 119.472M246.496 235.62c1.19-90.08 122.92-55.565 147.867-119.47 0 0-1.65 26.006-7.054 41.19"/><path fill="#231F20" d="M258.738 244.064c0 7.54-6.11 37.533-13.65 37.533-7.538 0-13.648-29.994-13.648-37.533s6.11-13.65 13.65-13.65c7.538 0 13.648 6.11 13.648 13.65z"/><path fill="#7A7A7A" d="M241.305 244.627c.972-6.225 6.014-10.795 11.994-11.45-2.288-1.726-5.125-2.763-8.21-2.763-7.54 0-13.65 6.11-13.65 13.65s6.11 37.533 13.65 37.533c.312 0 .62-.067.927-.168-4.83-7.534-5.697-30.487-4.712-36.803z"/><circle fill="#fff" cx="237.24" cy="241.155" r="3.023"/><path fill="none" stroke="#fff" stroke-width=".794" stroke-dasharray="7.143" d="M245.075 417.102"/><use xlink:href="#b" width="88.94" height="68.885" x="-44.47" y="-34.443" transform="matrix(.829 0 0 -.829 192.019 375.141)" overflow="visible"/><use xlink:href="#b" width="88.94" height="68.885" x="-44.47" y="-34.443" transform="matrix(.829 0 0 -.829 302.912 375.141)" overflow="visible"/><g fill="#fff"><path d="M73.96 413.044h11.45l9.66 30.38h.233l-1.247-8.803v-21.576h9.737v50.243h-11.45l-9.658-30.302h-.312l1.247 8.725v21.577h-9.66v-50.243zM109.327 409.383v-9.66h9.66v9.66h-9.66zm0 3.66h9.66v50.244h-9.66v-50.243zM152.17 425.74v3.506h-9.737v-3.505c0-2.336-1.792-4.128-4.128-4.128-2.26 0-4.128 1.792-4.128 4.13v25.082c0 2.26 1.87 4.128 4.128 4.128 2.337 0 4.128-1.87 4.128-4.128V442.8h-4.518v-9.503h14.255v17.527c0 7.634-6.232 13.787-13.866 13.787s-13.788-6.152-13.788-13.786V425.74c0-7.633 6.154-13.787 13.788-13.787s13.866 6.154 13.866 13.788zM167.362 433.375h8.257v-20.33h9.736v50.242h-9.737v-20.253h-8.258v20.253h-9.66v-50.243h9.66v20.33zM189.33 413.044h27.654v9.66h-9.036v40.583h-9.66v-40.584h-8.957v-9.66zM220.957 413.044h9.66v40.584h17.993v9.66h-27.653v-50.244zM262.32 447.786v15.5h-10.047v-15.5l-9.036-34.742h10.36l2.96 14.723.7 7.166h.157l.7-7.166 2.883-14.723h10.438l-9.114 34.742zM315.604 448.643v.856c0 7.634-6.232 13.787-13.866 13.787H287.95v-50.243h13.788c7.634 0 13.866 6.154 13.866 13.788v.856c0 4.206-1.947 7.945-4.908 10.438 2.96 2.57 4.908 6.31 4.908 10.517zm-17.994-15.268h4.128c2.337 0 4.128-1.947 4.128-4.284v-2.258c0-2.26-1.792-4.13-4.128-4.13-2.26 0-4.128 0-4.128 0v10.673zm8.257 16.124v-2.26c0-2.337-1.792-4.284-4.128-4.284h-4.13v10.672s1.87 0 4.13 0c2.335 0 4.127-1.87 4.127-4.13zM330.795 413.044v37.78c0 2.26 1.87 4.128 4.128 4.128 2.337 0 4.128-1.87 4.128-4.128v-37.78h9.738v37.78c0 7.634-6.232 13.787-13.866 13.787s-13.788-6.152-13.788-13.786v-37.78h9.66zM354.322 409.383v-9.66h9.66v9.66h-9.66zm0 3.66h9.66v50.244h-9.66v-50.243zM369.512 413.044h9.66v40.584h17.993v9.66h-27.653v-50.244zM427.235 449.5c0 7.634-6.232 13.787-13.866 13.787h-13.79v-50.243h13.79c7.633 0 13.865 6.154 13.865 13.788V449.5zm-9.737 0v-2.26c0-.545 0-20.408 0-20.408 0-2.26-1.792-4.13-4.128-4.13-2.26 0-4.128 0-4.128 0v30.926s1.87 0 4.128 0c2.336 0 4.128-1.87 4.128-4.13z"/></g></g></svg>