<svg xmlns="http://www.w3.org/2000/svg" viewBox="79 11 358 180" enable-background="new 79 11 358 180"><path fill="#004653" d="M436.3 191h-86.4v-1.1c0-2-1.5-3.7-3.4-3.8-2.1-.1-3.8 1.5-3.8 3.6v1.3H79V11h263.7v1.1c0 2 1.5 3.7 3.4 3.8 2.1.1 3.8-1.5 3.8-3.6V11h86.4v65.4h-.8c-13.3 0-24.5 10.9-24.2 24.2.3 12.9 10.8 23.2 23.7 23.2h1.3s0 47.1 0 62.8c0 2.5 0 4.4 0 4.4zm-83.9-2.6H432c.9 0 1.7-.8 1.7-1.7v-60.2c-13.9-.7-25-12.2-25-26.3s11.1-25.6 25-26.3V15.3c0-.9-.8-1.7-1.7-1.7h-79.6c-.6 2.8-3.1 4.9-6.1 4.9s-5.5-2.1-6.1-4.9H83.3c-.9 0-1.7.8-1.7 1.7v171.4c0 .9.8 1.7 1.7 1.7h256.9c.6-2.8 3.1-4.9 6.1-4.9s5.5 2.1 6.1 4.9zm-6.1-8.6c-3.4 0-6.2-2.8-6.2-6.2s2.8-6.2 6.2-6.2c3.4 0 6.2 2.8 6.2 6.2s-2.8 6.2-6.2 6.2zm0-9.8c-2 0-3.6 1.6-3.6 3.6s1.6 3.6 3.6 3.6 3.6-1.6 3.6-3.6-1.6-3.6-3.6-3.6zm0-6.3c-3.4 0-6.2-2.8-6.2-6.2s2.8-6.2 6.2-6.2c3.4 0 6.2 2.8 6.2 6.2s-2.8 6.2-6.2 6.2zm0-9.9c-2 0-3.6 1.6-3.6 3.6s1.6 3.6 3.6 3.6 3.6-1.6 3.6-3.6c0-1.9-1.6-3.6-3.6-3.6zm0-6.3c-3.4 0-6.2-2.8-6.2-6.2 0-3.4 2.8-6.2 6.2-6.2 3.4 0 6.2 2.8 6.2 6.2s-2.8 6.2-6.2 6.2zm0-9.8c-2 0-3.6 1.6-3.6 3.6s1.6 3.6 3.6 3.6 3.6-1.6 3.6-3.6-1.6-3.6-3.6-3.6zm0-6.3c-3.4 0-6.2-2.8-6.2-6.2s2.8-6.2 6.2-6.2c3.4 0 6.2 2.8 6.2 6.2 0 3.4-2.8 6.2-6.2 6.2zm0-9.8c-2 0-3.6 1.6-3.6 3.6s1.6 3.6 3.6 3.6 3.6-1.6 3.6-3.6-1.6-3.6-3.6-3.6zm0-6.3c-3.4 0-6.2-2.8-6.2-6.2 0-3.4 2.8-6.2 6.2-6.2 3.4 0 6.2 2.8 6.2 6.2s-2.8 6.2-6.2 6.2zm0-9.8c-2 0-3.6 1.6-3.6 3.6s1.6 3.6 3.6 3.6 3.6-1.6 3.6-3.6-1.6-3.6-3.6-3.6zm0-6.3c-3.4 0-6.2-2.8-6.2-6.2 0-3.4 2.8-6.2 6.2-6.2 3.4 0 6.2 2.8 6.2 6.2 0 3.4-2.8 6.2-6.2 6.2zm0-9.9c-2 0-3.6 1.6-3.6 3.6s1.6 3.6 3.6 3.6 3.6-1.6 3.6-3.6c0-1.9-1.6-3.6-3.6-3.6zm0-6.3c-3.4 0-6.2-2.8-6.2-6.2 0-3.4 2.8-6.2 6.2-6.2 3.4 0 6.2 2.8 6.2 6.2 0 3.4-2.8 6.2-6.2 6.2zm0-9.8c-2 0-3.6 1.6-3.6 3.6s1.6 3.6 3.6 3.6 3.6-1.6 3.6-3.6-1.6-3.6-3.6-3.6zm0-6.3c-3.4 0-6.2-2.8-6.2-6.2 0-3.4 2.8-6.2 6.2-6.2 3.4 0 6.2 2.8 6.2 6.2 0 3.4-2.8 6.2-6.2 6.2zm0-9.8c-2 0-3.6 1.6-3.6 3.6s1.6 3.6 3.6 3.6 3.6-1.6 3.6-3.6-1.6-3.6-3.6-3.6zm0-6.3c-3.4 0-6.2-2.8-6.2-6.2s2.8-6.2 6.2-6.2c3.4 0 6.2 2.8 6.2 6.2s-2.8 6.2-6.2 6.2zm0-9.8c-2 0-3.6 1.6-3.6 3.6s1.6 3.6 3.6 3.6 3.6-1.6 3.6-3.6-1.6-3.6-3.6-3.6zm0-6.3c-3.4 0-6.2-2.8-6.2-6.2s2.8-6.2 6.2-6.2c3.4 0 6.2 2.8 6.2 6.2s-2.8 6.2-6.2 6.2zm0-9.8c-2 0-3.6 1.6-3.6 3.6s1.6 3.6 3.6 3.6 3.6-1.6 3.6-3.6-1.6-3.6-3.6-3.6z"/></svg>